<?xml version="1.0" standalone="no"?>
<!DOCTYPE svg PUBLIC "-//W3C//DTD SVG 1.1//EN" "http://www.w3.org/Graphics/SVG/1.1/DTD/svg11.dtd" >
<svg xmlns="http://www.w3.org/2000/svg" xmlns:xlink="http://www.w3.org/1999/xlink" version="1.1">
<metadata>
Created by FontForge 20201107 at Wed Jun 22 18:33:50 2022
 By 
Copyright 2015 The Vazirmatn Project Authors (https://github.com/rastikerdar/vazirmatn)
</metadata>
<defs>
<font id="Vazirmatn-Regular" horiz-adv-x="0" >
  <font-face 
    font-family="Vazirmatn"
    font-weight="400"
    font-stretch="normal"
    units-per-em="2048"
    panose-1="0 0 0 0 0 0 0 0 0 0"
    ascent="1638"
    descent="-410"
    x-height="1082"
    cap-height="1456"
    bbox="-985 -1142 2913 2163"
    underline-thickness="100"
    underline-position="-780"
    unicode-range="U+000D-FFFD"
  />
<missing-glyph horiz-adv-x="908" 
 />
    <glyph glyph-name="uni0622" unicode="&#x627;&#x653;" horiz-adv-x="475" 
d="M337 1502l-129 59q-32 15 -59.5 24t-54.5 9q-41 0 -86.5 -27.5t-110.5 -94.5l-58 -60l91 -82l57 57q47 47 75 65t50 18q11 0 23 -4t26 -10l129 -59q52 -23 90 -23q40 0 79.5 23.5t92.5 73.5l56 53l-91 82l-51 -46q-38 -34 -60 -49.5t-40 -15.5q-15 0 -29 7zM322 1247
h-169v-1246h169v1246z" />
    <glyph glyph-name="uni0623" unicode="&#x627;&#x654;" horiz-adv-x="475" 
d="M144 1449l-110 -43l14 -98l381 151l-14 99l-132 -48q-3 -1 -5.5 -2t-4.5 -1q-56 -8 -86.5 21.5t-31.5 60.5q0 50 36.5 76t79.5 26q23 0 50 -4t58 -20l-1 99q-28 17 -57.5 24.5t-63.5 7.5q-76 0 -135.5 -55t-59.5 -141q0 -59 24 -93t58 -60zM322 1247h-169v-1246h169v1246
z" />
    <glyph glyph-name="uni0624" unicode="&#x648;&#x654;" horiz-adv-x="910" 
d="M350 983l-110 -43l14 -98l381 151l-14 99l-132 -48q-3 -1 -5.5 -2t-4.5 -1q-56 -8 -86.5 21.5t-31.5 60.5q0 50 36.5 76t79.5 26q23 0 50 -4t58 -20l-1 99q-28 17 -57.5 24.5t-63.5 7.5q-76 0 -135.5 -55t-59.5 -141q0 -59 24 -93t58 -60zM811 171q0 106 -23 206t-69 180
t-116.5 127t-165.5 47q-80 0 -143 -38t-106.5 -100.5t-66 -137t-22.5 -148.5q0 -156 92.5 -233t272.5 -77q38 0 88 9t88 21q-16 -103 -83 -183.5t-179.5 -135.5t-266.5 -85l59 -159q213 41 355.5 133.5t214 236t71.5 337.5zM469 178q-102 0 -152 31t-50 104q0 45 14.5 100.5
t51 96.5t102.5 41q48 0 84.5 -22.5t62.5 -67t41.5 -109t20.5 -148.5q-43 -13 -88 -19.5t-87 -6.5z" />
    <glyph glyph-name="uni0625" unicode="&#x627;&#x655;" horiz-adv-x="475" 
d="M138 -458l-110 -43l14 -98l381 151l-14 99l-132 -48q-3 -1 -5.5 -2t-4.5 -1q-56 -8 -86.5 21.5t-31.5 60.5q0 50 36.5 76t79.5 26q23 0 50 -4t58 -20l-1 99q-28 17 -57.5 24.5t-63.5 7.5q-76 0 -135.5 -55t-59.5 -141q0 -59 24 -93t58 -60zM323 1377h-169v-1376h169v1376
z" />
    <glyph glyph-name="uni0626" unicode="&#x64a;&#x654;" horiz-adv-x="1445" 
d="M402 797l-110 -43l14 -98l381 151l-14 99l-132 -48q-3 -1 -5.5 -2t-4.5 -1q-56 -8 -86.5 21.5t-31.5 60.5q0 50 36.5 76t79.5 26q23 0 50 -4t58 -20l-1 99q-28 17 -57.5 24.5t-63.5 7.5q-76 0 -135.5 -55t-59.5 -141q0 -59 24 -93t58 -60zM689 -505q159 0 281.5 35.5
t206 96.5t126.5 138t43 161q0 77 -21.5 136.5t-73.5 93.5t-144 34h-168q-58 0 -77 21.5t-19 68.5q0 85 32 154.5t92.5 110.5t145.5 41q45 0 86 -9.5t82 -30.5l57 152q-58 39 -115.5 53t-109.5 14q-103 0 -185 -38t-140 -105.5t-89 -155t-31 -186.5q0 -63 14 -113t45 -85
t82.5 -53.5t125.5 -18.5h162q50 0 69 -28t19 -60q0 -47 -37.5 -91.5t-104.5 -79.5t-157.5 -55.5t-196.5 -20.5q-159 0 -250 53t-129.5 142t-38.5 197q0 91 20 188t49 189l-159 64q-38 -106 -60 -217.5t-22 -217.5q0 -157 57.5 -288.5t187 -210.5t345.5 -79z" />
    <glyph glyph-name="uni06C0" unicode="&#x647;&#x654;" horiz-adv-x="954" 
d="M576 1673q-64 0 -120 -29t-91 -81.5t-35 -124.5q0 -64 33.5 -97.5t97.5 -33.5h75q17 0 34 -5.5t17 -22.5q0 -47 -38.5 -80t-97.5 -50.5t-121 -17.5q-45 0 -79 8t-63 21l-43 -89q38 -16 83.5 -25.5t99.5 -9.5q103 0 181.5 30.5t122.5 89.5t44 144q0 45 -29 74t-86 29h-94
q-26 0 -34.5 9t-8.5 34q0 47 41.5 89.5t110.5 42.5q16 0 37 -3t42 -9l18 90q-27 11 -54.5 14t-42.5 3zM685 344q0 -82 -49.5 -122t-159.5 -40q-109 0 -158 43t-49 101q0 51 23.5 98t67.5 97t105 108q52 -45 102.5 -93.5t84 -97t33.5 -94.5zM341 740q-118 -116 -180 -216.5
t-62 -216.5q0 -132 102 -217.5t276 -85.5q114 0 199 40.5t132 115t47 176.5q0 73 -32.5 141.5t-92.5 137.5t-141.5 142t-180.5 155l-106 -137z" />
    <glyph glyph-name="fi" unicode="fi" horiz-adv-x="1135" 
d="M388 0h-185v1176q0 185 106 283t290 98q72 0 141 -17.5t142 -43.5l-31 -156q-46 18 -106.5 34.5t-132.5 16.5q-119 0 -171.5 -53.5t-52.5 -161.5v-1176zM609 1082v-142h-577v142h577zM973 1082v-1082h-185v1082h185z" />
    <glyph glyph-name="f_l" unicode="fl" horiz-adv-x="1163" 
d="M417 0h-185v1196q0 175 96.5 268t273.5 93q44 0 110.5 -9t142 -23t147.5 -29l-86 -134q-95 18 -171 27.5t-129 9.5q-97 0 -148 -52.5t-51 -150.5v-1196zM817 0v1496h185v-1496h-185zM647 1082v-142h-586v142h586z" />
    <glyph glyph-name="f_f_i" unicode="ffi" horiz-adv-x="1748" 
d="M417 0h-185v1196q0 175 94.5 268t260.5 93q32 0 64.5 -4t63.5 -12l-10 -151q-21 5 -47.5 7t-52.5 2q-89 0 -138.5 -52.5t-49.5 -150.5v-1196zM657 1082v-142h-596v142h596zM1002 0h-185v1176q0 185 105.5 283t289.5 98q73 0 142 -17.5t142 -43.5l-32 -156
q-45 18 -106 34.5t-132 16.5q-119 0 -171.5 -53.5t-52.5 -161.5v-1176zM1223 1082v-142h-577v142h577zM1587 1082v-1082h-185v1082h185z" />
    <glyph glyph-name="f_f_l" unicode="ffl" horiz-adv-x="1748" 
d="M417 0h-185v1196q0 175 94.5 268t260.5 93q32 0 64.5 -4t63.5 -12l-10 -151q-21 5 -47.5 7t-52.5 2q-89 0 -138.5 -52.5t-49.5 -150.5v-1196zM658 1082v-142h-597v142h597zM1002 0h-185v1196q0 175 96.5 268t273.5 93q44 0 110.5 -9t142 -23t147.5 -29l-86 -134
q-95 18 -171 27.5t-129 9.5q-97 0 -148 -52.5t-51 -150.5v-1196zM1402 0v1496h185v-1496h-185zM1232 1082v-142h-586v142h586z" />
    <glyph glyph-name="uniFBA5.fina" unicode="&#xfeea;&#x654;" horiz-adv-x="1062" arabic-form="final" 
d="M727 1703q-64 0 -120 -29t-91 -81.5t-35 -124.5q0 -64 33.5 -97.5t97.5 -33.5h75q17 0 34 -5.5t17 -22.5q0 -47 -38.5 -80t-97.5 -50.5t-121 -17.5q-45 0 -79 8t-63 21l-43 -89q38 -16 83.5 -25.5t99.5 -9.5q103 0 181.5 30.5t122.5 89.5t44 144q0 45 -29 74t-86 29h-94
q-26 0 -34.5 9t-8.5 34q0 47 41.5 89.5t110.5 42.5q16 0 37 -3t42 -9l18 90q-27 11 -54.5 14t-42.5 3zM1047 0h35v182h-31q-87 0 -132.5 43.5t-57.5 131.5l-87 614l-160 -32l7 -48q-135 -42 -233.5 -90.5t-162.5 -105.5t-95 -123t-31 -143q0 -136 97 -213t240 -77
q84 0 151.5 31t125.5 89q16 -80 57.5 -138.5t110 -89.5t166.5 -31zM673 503q0 -61 -33.5 -105t-87 -67t-112.5 -23q-77 0 -122 34t-45 100q0 41 21.5 77.5t66.5 71t115.5 69t167.5 69.5l25 -167q2 -16 3 -30t1 -29z" />
    <glyph glyph-name="uniFDF2" unicode="&#x627;&#xfedf;&#xfee0;&#xfeea;" horiz-adv-x="2578" arabic-form="isolated" 
d="M1287 1566h85v313h-85v-313zM1373 1486l-82 -10l1 -29q0 -62 -4 -103.5t-22 -62t-61 -20.5q-39 0 -53.5 27t-14.5 64q0 20 3 40t7 39l-81 13q-14 -54 -14 -103q0 -75 34 -127t107 -52q47 0 91.5 21.5t59.5 80.5q21 -34 53 -45.5t57 -11.5q80 0 116 54.5t36 143.5
q0 67 -19 131l-91 -18q6 -28 12 -62t6 -67q0 -37 -12 -63t-46 -26q-41 0 -57.5 29t-20 72.5t-5.5 84.5zM1047 0h35v182h-31q-87 0 -132.5 43.5t-57.5 131.5l-87 614l-160 -32l7 -48q-135 -42 -233.5 -90.5t-162.5 -105.5t-95 -123t-31 -143q0 -136 97 -213t240 -77
q84 0 151.5 31t125.5 89q16 -80 57.5 -138.5t110 -89.5t166.5 -31zM673 503q0 -61 -33.5 -105t-87 -67t-112.5 -23q-77 0 -122 34t-45 100q0 41 21.5 77.5t66.5 71t115.5 69t167.5 69.5l25 -167q2 -16 3 -30t1 -29zM1585 0h40v182h-43q-55 0 -87 17t-47 50.5t-19 83
t-4 114.5v648h-169v-648q0 -87 -7 -146t-39.5 -89t-109.5 -30h-45v-182h43q69 0 114.5 13t76.5 42t55 77q40 -73 92 -102.5t149 -29.5zM1598 182v-182h30q194 0 267.5 110t73.5 312v833h-169v-835q0 -74 -13.5 -127.5t-50 -82t-107.5 -28.5h-31zM2425 1377h-169v-1376h169
v1376z" />
    <glyph glyph-name="uniFE70" unicode="&#x20;&#x64b;" horiz-adv-x="592" arabic-form="isolated" 
d="M83 982l426 174v95l-426 -174v-95zM83 1187l426 174v95l-426 -174v-95z" />
    <glyph glyph-name="uniFE71" unicode="&#x640;&#x64b;" horiz-adv-x="606" arabic-form="medial" 
d="M-18 182v-182h336v182h-336zM288 182v-182h336v182h-336zM87 982l426 174v95l-426 -174v-95zM87 1187l426 174v95l-426 -174v-95z" />
    <glyph glyph-name="uniFE72" unicode="&#x20;&#x64c;" horiz-adv-x="743" arabic-form="isolated" 
d="M578 938l35 -3.5t36 -2.5l8 68q-16 2 -25 3t-19 2q13 32 20 62.5t7 60.5q0 74 -47 119.5t-118 45.5t-118 -48.5t-47 -115.5q0 -57 27.5 -94t71 -56t89.5 -23q-43 -44 -117 -63.5t-130 -27.5q8 35 11 64t3 53q0 71 -27.5 103.5t-79.5 32.5q-21 0 -45.5 -4.5t-52.5 -14.5
l9 -83q23 7 41 10.5t31 3.5q26 0 38 -12.5t12 -39.5q0 -21 -7.5 -52t-22.5 -73l33 -72q133 3 234 45.5t150 111.5zM533 1021q-38 9 -70.5 20t-52 30.5t-19.5 53.5q0 32 24.5 59t63.5 27q34 0 57.5 -23t23.5 -61q0 -24 -8 -52.5t-19 -53.5z" />
    <glyph glyph-name="uniFE74" unicode="&#x20;&#x64d;" horiz-adv-x="592" arabic-form="isolated" 
d="M83 -609l426 174v95l-426 -174v-95zM83 -404l426 174v95l-426 -174v-95z" />
    <glyph glyph-name="uniFE76" unicode="&#x20;&#x64e;" horiz-adv-x="592" arabic-form="isolated" 
d="M85 1001l426 174v95l-426 -174v-95z" />
    <glyph glyph-name="uniFE77" unicode="&#x640;&#x64e;" horiz-adv-x="606" arabic-form="medial" 
d="M-18 182v-182h336v182h-336zM288 182v-182h336v182h-336zM88 1001l426 174v95l-426 -174v-95z" />
    <glyph glyph-name="uniFE78" unicode="&#x20;&#x64f;" horiz-adv-x="592" arabic-form="isolated" 
d="M513 999l8 67q-16 2 -25 3t-19 2q13 32 20 62.5t7 60.5q0 74 -47 119.5t-118 45.5t-118 -48.5t-47 -115.5q0 -57 27.5 -94t71 -56t89.5 -23q-36 -38 -113 -62.5t-177 -33.5l13 -77q125 7 216.5 47t140.5 109l35 -3.5t36 -2.5zM397 1087q-38 9 -70.5 20t-52 30.5
t-19.5 53.5q0 32 24.5 59t63.5 27q34 0 57.5 -23t23.5 -61q0 -24 -8 -52.5t-19 -53.5z" />
    <glyph glyph-name="uniFE79" unicode="&#x640;&#x64f;" horiz-adv-x="606" arabic-form="medial" 
d="M-18 182v-182h336v182h-336zM288 182v-182h336v182h-336zM514 999l8 67q-16 2 -25 3t-19 2q13 32 20 62.5t7 60.5q0 74 -47 119.5t-118 45.5t-118 -48.5t-47 -115.5q0 -57 27.5 -94t71 -56t89.5 -23q-36 -38 -113 -62.5t-177 -33.5l13 -77q125 7 216.5 47t140.5 109
l35 -3.5t36 -2.5zM398 1087q-38 9 -70.5 20t-52 30.5t-19.5 53.5q0 32 24.5 59t63.5 27q34 0 57.5 -23t23.5 -61q0 -24 -8 -52.5t-19 -53.5z" />
    <glyph glyph-name="uniFE7A" unicode="&#x20;&#x650;" horiz-adv-x="592" arabic-form="isolated" 
d="M83 -401l426 174v95l-426 -174v-95z" />
    <glyph glyph-name="uniFE7B" unicode="&#x640;&#x650;" horiz-adv-x="606" arabic-form="medial" 
d="M-18 182v-182h336v182h-336zM288 182v-182h336v182h-336zM87 -431l426 174v95l-426 -174v-95z" />
    <glyph glyph-name="uniFE7C" unicode="&#x20;&#x651;" horiz-adv-x="592" arabic-form="isolated" 
d="M341 1159l-82 -10l1 -29q0 -62 -4 -103.5t-22 -62t-61 -20.5q-39 0 -53.5 27t-14.5 64q0 20 3 40t7 39l-81 13q-14 -54 -14 -103q0 -75 34 -127t107 -52q47 0 91.5 21.5t59.5 80.5q21 -34 53 -45.5t57 -11.5q80 0 116 54.5t36 143.5q0 67 -19 131l-91 -18q6 -28 12 -62
t6 -67q0 -37 -12 -63t-46 -26q-41 0 -57.5 29t-20 72.5t-5.5 84.5z" />
    <glyph glyph-name="uniFE7D" unicode="&#x640;&#x651;" horiz-adv-x="606" arabic-form="medial" 
d="M-18 182v-182h336v182h-336zM288 182v-182h336v182h-336zM348 1159l-82 -10l1 -29q0 -62 -4 -103.5t-22 -62t-61 -20.5q-39 0 -53.5 27t-14.5 64q0 20 3 40t7 39l-81 13q-14 -54 -14 -103q0 -75 34 -127t107 -52q47 0 91.5 21.5t59.5 80.5q21 -34 53 -45.5t57 -11.5
q80 0 116 54.5t36 143.5q0 67 -19 131l-91 -18q6 -28 12 -62t6 -67q0 -37 -12 -63t-46 -26q-41 0 -57.5 29t-20 72.5t-5.5 84.5z" />
    <glyph glyph-name="uniFE7E" unicode="&#x20;&#x652;" horiz-adv-x="592" arabic-form="isolated" 
d="M201 1032q0 40 27.5 68t67.5 28t67 -28t27 -68t-27 -67t-67 -27t-67.5 27t-27.5 67zM121 1032q0 -72 51.5 -123.5t123.5 -51.5t123.5 51.5t51.5 123.5t-51.5 124t-123.5 52t-123.5 -52t-51.5 -124z" />
    <glyph glyph-name="uniFE7F" unicode="&#x640;&#x652;" horiz-adv-x="606" arabic-form="medial" 
d="M-18 182v-182h336v182h-336zM288 182v-182h336v182h-336zM208 1032q0 40 27.5 68t67.5 28t67 -28t27 -68t-27 -67t-67 -27t-67.5 27t-27.5 67zM128 1032q0 -72 51.5 -123.5t123.5 -51.5t123.5 51.5t51.5 123.5t-51.5 124t-123.5 52t-123.5 -52t-51.5 -124z" />
    <glyph glyph-name="uniFEF5" unicode="&#xfedf;&#xfe82;" horiz-adv-x="1164" arabic-form="isolated" 
d="M211 1511q25 0 68.5 -22t86 -44.5t65.5 -22.5q32 0 71 24t76.5 57t64.5 60l-73 66q-17 -17 -44 -40.5t-54 -41t-45 -17.5q-30 0 -73 22.5t-83.5 44.5t-63.5 22q-34 0 -79 -28.5t-87 -67t-70 -69.5l74 -66q17 18 49 47t65 52.5t52 23.5zM279 0q128 0 240 16.5t202.5 57
t155.5 111t100 178t35 258.5v756h-169v-753q0 -142 -34 -225.5t-93 -127t-134 -64.5l-10 61.5t-32.5 170.5t-59.5 252t-90.5 307t-125.5 334l-155 -72q73 -165 126 -323t89 -295.5t57 -242.5t30.5 -164l9.5 -59q-20 -3 -50.5 -4t-71.5 -1q-43 0 -86 2.5t-105 6.5v-172
q44 -4 87 -6t84 -2z" />
    <glyph glyph-name="uniFEF6" unicode="&#xfee0;&#xfe82;" horiz-adv-x="1234" arabic-form="final" 
d="M211 1511q25 0 68.5 -22t86 -44.5t65.5 -22.5q32 0 71 24t76.5 57t64.5 60l-73 66q-17 -17 -44 -40.5t-54 -41t-45 -17.5q-30 0 -73 22.5t-83.5 44.5t-63.5 22q-34 0 -79 -28.5t-87 -67t-70 -69.5l74 -66q17 18 49 47t65 52.5t52 23.5zM582 207l-10 61.5t-32.5 170.5
t-59.5 252t-90.5 307t-125.5 334l-155 -72q73 -165 126 -323t89 -295.5t57 -242.5t30.5 -164l9.5 -59q-20 -4 -50.5 -4.5t-71.5 -0.5q-43 0 -86 2.5t-105 6.5v-172q44 -4 87 -6t84 -2q144 0 265 26.5t212.5 81t147.5 136.5q22 -77 60.5 -131.5t100 -83.5t150.5 -29h39v182
h-36q-76 0 -121 44t-65 131t-20 214v806h-169v-753q0 -142 -34 -225.5t-93 -127t-134 -64.5z" />
    <glyph glyph-name="uniFEF7" unicode="&#xfedf;&#xfe84;" horiz-adv-x="1164" arabic-form="isolated" 
d="M89 1484l-110 -43l14 -98l381 151l-14 99l-132 -48q-3 -1 -5.5 -2t-4.5 -1q-56 -8 -86.5 21.5t-31.5 60.5q0 50 36.5 76t79.5 26q23 0 50 -4t58 -20l-1 99q-28 17 -57.5 24.5t-63.5 7.5q-76 0 -135.5 -55t-59.5 -141q0 -59 24 -93t58 -60zM279 0q128 0 240 16.5t202.5 57
t155.5 111t100 178t35 258.5v756h-169v-753q0 -142 -34 -225.5t-93 -127t-134 -64.5l-10 61.5t-32.5 170.5t-59.5 252t-90.5 307t-125.5 334l-155 -72q73 -165 126 -323t89 -295.5t57 -242.5t30.5 -164l9.5 -59q-20 -3 -50.5 -4t-71.5 -1q-43 0 -86 2.5t-105 6.5v-172
q44 -4 87 -6t84 -2z" />
    <glyph glyph-name="uniFEF8" unicode="&#xfee0;&#xfe84;" horiz-adv-x="1234" arabic-form="final" 
d="M89 1484l-110 -43l14 -98l381 151l-14 99l-132 -48q-3 -1 -5.5 -2t-4.5 -1q-56 -8 -86.5 21.5t-31.5 60.5q0 50 36.5 76t79.5 26q23 0 50 -4t58 -20l-1 99q-28 17 -57.5 24.5t-63.5 7.5q-76 0 -135.5 -55t-59.5 -141q0 -59 24 -93t58 -60zM582 207l-10 61.5t-32.5 170.5
t-59.5 252t-90.5 307t-125.5 334l-155 -72q73 -165 126 -323t89 -295.5t57 -242.5t30.5 -164l9.5 -59q-20 -4 -50.5 -4.5t-71.5 -0.5q-43 0 -86 2.5t-105 6.5v-172q44 -4 87 -6t84 -2q144 0 265 26.5t212.5 81t147.5 136.5q22 -77 60.5 -131.5t100 -83.5t150.5 -29h39v182
h-36q-76 0 -121 44t-65 131t-20 214v806h-169v-753q0 -142 -34 -225.5t-93 -127t-134 -64.5z" />
    <glyph glyph-name="uniFEF9" unicode="&#xfedf;&#xfe88;" horiz-adv-x="1164" arabic-form="isolated" 
d="M266 -459l-110 -43l14 -98l381 151l-14 99l-132 -48q-3 -1 -5.5 -2t-4.5 -1q-56 -8 -86.5 21.5t-31.5 60.5q0 50 36.5 76t79.5 26q23 0 50 -4t58 -20l-1 99q-28 17 -57.5 24.5t-63.5 7.5q-76 0 -135.5 -55t-59.5 -141q0 -59 24 -93t58 -60zM279 0q128 0 240 16.5
t202.5 57t155.5 111t100 178t35 258.5v756h-169v-753q0 -142 -34 -225.5t-93 -127t-134 -64.5l-10 61.5t-32.5 170.5t-59.5 252t-90.5 307t-125.5 334l-155 -72q73 -165 126 -323t89 -295.5t57 -242.5t30.5 -164l9.5 -59q-20 -3 -50.5 -4t-71.5 -1q-43 0 -86 2.5t-105 6.5
v-172q44 -4 87 -6t84 -2z" />
    <glyph glyph-name="uniFEFA" unicode="&#xfee0;&#xfe88;" horiz-adv-x="1234" arabic-form="final" 
d="M266 -459l-110 -43l14 -98l381 151l-14 99l-132 -48q-3 -1 -5.5 -2t-4.5 -1q-56 -8 -86.5 21.5t-31.5 60.5q0 50 36.5 76t79.5 26q23 0 50 -4t58 -20l-1 99q-28 17 -57.5 24.5t-63.5 7.5q-76 0 -135.5 -55t-59.5 -141q0 -59 24 -93t58 -60zM582 207l-10 61.5t-32.5 170.5
t-59.5 252t-90.5 307t-125.5 334l-155 -72q73 -165 126 -323t89 -295.5t57 -242.5t30.5 -164l9.5 -59q-20 -4 -50.5 -4.5t-71.5 -0.5q-43 0 -86 2.5t-105 6.5v-172q44 -4 87 -6t84 -2q144 0 265 26.5t212.5 81t147.5 136.5q22 -77 60.5 -131.5t100 -83.5t150.5 -29h39v182
h-36q-76 0 -121 44t-65 131t-20 214v806h-169v-753q0 -142 -34 -225.5t-93 -127t-134 -64.5z" />
    <glyph glyph-name="uniFEFB" unicode="&#xfedf;&#xfe8e;" horiz-adv-x="1164" arabic-form="isolated" 
d="M279 0q128 0 240 16.5t202.5 57t155.5 111t100 178t35 258.5v756h-169v-753q0 -142 -34 -225.5t-93 -127t-134 -64.5l-10 61.5t-32.5 170.5t-59.5 252t-90.5 307t-125.5 334l-155 -72q73 -165 126 -323t89 -295.5t57 -242.5t30.5 -164l9.5 -59q-20 -3 -50.5 -4t-71.5 -1
q-43 0 -86 2.5t-105 6.5v-172q44 -4 87 -6t84 -2z" />
    <glyph glyph-name="uniFEFC" unicode="&#xfee0;&#xfe8e;" horiz-adv-x="1234" arabic-form="final" 
d="M582 207l-10 61.5t-32.5 170.5t-59.5 252t-90.5 307t-125.5 334l-155 -72q73 -165 126 -323t89 -295.5t57 -242.5t30.5 -164l9.5 -59q-20 -4 -50.5 -4.5t-71.5 -0.5q-43 0 -86 2.5t-105 6.5v-172q44 -4 87 -6t84 -2q144 0 265 26.5t212.5 81t147.5 136.5
q22 -77 60.5 -131.5t100 -83.5t150.5 -29h39v182h-36q-76 0 -121 44t-65 131t-20 214v806h-169v-753q0 -142 -34 -225.5t-93 -127t-134 -64.5z" />
    <glyph glyph-name="LamAlefWasla" unicode="&#xfedf;&#xfb51;" horiz-adv-x="1164" 
d="M229 1492h-70q64 99 108 140t99 41q42 0 67.5 -26t25.5 -65q0 -37 -21.5 -56.5t-72 -26.5t-136.5 -7zM-22 1474q22 -35 80 -51.5t148 -16.5h25q115 0 183 17t98.5 56.5t30.5 106.5q0 75 -51 125t-131 50q-79 0 -144.5 -59.5t-146.5 -196.5q-18 7 -39.5 24t-34.5 28z
M279 0q128 0 240 16.5t202.5 57t155.5 111t100 178t35 258.5v756h-169v-753q0 -142 -34 -225.5t-93 -127t-134 -64.5l-10 61.5t-32.5 170.5t-59.5 252t-90.5 307t-125.5 334l-155 -72q73 -165 126 -323t89 -295.5t57 -242.5t30.5 -164l9.5 -59q-20 -3 -50.5 -4t-71.5 -1
q-43 0 -86 2.5t-105 6.5v-172q44 -4 87 -6t84 -2z" />
    <glyph glyph-name="LamAlefWasla.fina" unicode="&#xfee0;&#xfb51;" horiz-adv-x="1234" 
d="M229 1492h-70q64 99 108 140t99 41q42 0 67.5 -26t25.5 -65q0 -37 -21.5 -56.5t-72 -26.5t-136.5 -7zM-22 1474q22 -35 80 -51.5t148 -16.5h25q115 0 183 17t98.5 56.5t30.5 106.5q0 75 -51 125t-131 50q-79 0 -144.5 -59.5t-146.5 -196.5q-18 7 -39.5 24t-34.5 28z
M582 207l-10 61.5t-32.5 170.5t-59.5 252t-90.5 307t-125.5 334l-155 -72q73 -165 126 -323t89 -295.5t57 -242.5t30.5 -164l9.5 -59q-20 -4 -50.5 -4.5t-71.5 -0.5q-43 0 -86 2.5t-105 6.5v-172q44 -4 87 -6t84 -2q144 0 265 26.5t212.5 81t147.5 136.5q22 -77 60.5 -131.5
t100 -83.5t150.5 -29h39v182h-36q-76 0 -121 44t-65 131t-20 214v806h-169v-753q0 -142 -34 -225.5t-93 -127t-134 -64.5z" />
    <glyph glyph-name="uni063D.init" unicode="&#x63d;" horiz-adv-x="638" 
d="M-22 182v-182h80v182h-80zM339 -159l-139 -139l139 -141l140 141zM7 -159l-139 -139l139 -141l140 141zM197 0q126 0 201 53.5t108 147.5t33 214q0 70 -10 147t-27 157l-174 -44q14 -75 26 -149t12 -139q0 -89 -35.5 -147t-135.5 -58h-161v-182h163zM531 941l-153 312
h-105l-154 -312l82 -40l124 254l125 -254z" />
    <glyph glyph-name="uni063D.medi" unicode="&#x63d;" horiz-adv-x="743" 
d="M-22 182v-182h80v182h-80zM339 -159l-139 -139l139 -141l140 141zM7 -159l-139 -139l139 -141l140 141zM356 591q4 -43 6.5 -86t2.5 -91q0 -118 -54.5 -175t-181.5 -57h-96v-182h96q96 0 184 37t142 116q27 -49 65 -83t92 -52t128 -18h23v182h-21q-64 0 -107.5 22
t-67.5 65.5t-28 107.5l-16 234zM561 862l-153 312h-105l-154 -312l82 -40l124 254l125 -254z" />
    <glyph glyph-name="uni063D.fina" unicode="&#x63d;" horiz-adv-x="1329" 
d="M715 633l-153 312h-105l-154 -312l82 -40l124 254l125 -254zM689 -515q165 0 286 37t200.5 97t118 130.5t38.5 136.5q0 29 -4.5 56t-19.5 57h41v182h-555q-13 0 -18 -7.5t-4 -15.5l27 -96q8 -28 17 -45.5t29 -17.5h148q93 0 134.5 -34t41.5 -82q0 -42 -57.5 -93t-165 -88
t-257.5 -37q-159 0 -250.5 53t-129.5 142t-38 197q0 53 8.5 130t37.5 177l-159 59q-38 -114 -48.5 -203t-10.5 -157q0 -157 57.5 -288.5t187 -210.5t345.5 -79z" />
    <glyph glyph-name="uni066E.init" unicode="&#x66e;" horiz-adv-x="584" 
d="M143 0q126 0 201 53.5t108 147.5t33 214q0 70 -10 147t-27 157l-174 -44q14 -75 26 -149t12 -139q0 -89 -35.5 -147t-135.5 -58h-161v-182h163z" />
    <glyph glyph-name="uni066E.medi" unicode="&#x66e;" horiz-adv-x="690" 
d="M303 591q4 -43 6.5 -86t2.5 -91q0 -118 -54.5 -175t-181.5 -57h-96v-182h96q96 0 184 37t142 116q27 -49 65 -83t92 -52t128 -18h23v182h-21q-64 0 -107.5 22t-67.5 65.5t-28 107.5l-16 234z" />
    <glyph glyph-name="uni066E.fina" unicode="&#x66e;" horiz-adv-x="1903" 
d="M1515 591q4 -42 6.5 -89t2.5 -88q0 -88 -59 -138.5t-171.5 -72t-271.5 -21.5h-167q-145 0 -254 12.5t-181.5 44t-109.5 87.5t-37 144q0 45 10.5 95t26.5 94l-155 58q-25 -61 -40.5 -127t-15.5 -135q0 -126 47.5 -213t142 -140.5t236 -77.5t330.5 -24h167
q230 0 359.5 41.5t212.5 137.5q47 -94 119.5 -136.5t185.5 -42.5h24v182h-24q-97 0 -145.5 50t-54.5 145l-17 234z" />
    <glyph glyph-name="uni066F.init" unicode="&#x66f;" horiz-adv-x="936" 
d="M483 532q-93 0 -142.5 22.5t-49.5 91.5q0 46 16.5 100t54 93t99.5 39q53 0 89 -29t59.5 -76t37 -102.5t19.5 -108.5q-46 -13 -91.5 -21.5t-91.5 -8.5zM360 182h-380v-182h368q134 0 227 17t151 64.5t84.5 139t26.5 240.5q0 113 -22 219.5t-67.5 191t-116 134.5t-168.5 50
q-107 0 -182 -64.5t-113.5 -160.5t-38.5 -192q0 -139 85.5 -209t254.5 -70q58 0 108.5 8t99.5 23q0 -94 -32.5 -138.5t-102 -57.5t-182.5 -13z" />
    <glyph glyph-name="uni066F.medi" unicode="&#x66f;" horiz-adv-x="1019" 
d="M539 657q40 0 83 -29t72.5 -72t29.5 -85q0 -47 -24.5 -96t-66 -88.5t-92.5 -61.5q-43 22 -84.5 62t-68.5 88t-27 94q0 45 28.5 88t70 71.5t79.5 28.5zM894 471q0 63 -29 127t-78.5 117.5t-113.5 86t-134 32.5q-67 0 -130 -32.5t-112 -86.5t-78 -117t-29 -125
q0 -52 15.5 -100t44 -93.5t68.5 -92.5q-43 -2 -77.5 -3.5t-63.5 -1.5h-57h-140v-182h140q41 0 110 6.5t150 22t158 43.5q77 -27 156.5 -43t146 -22.5t104.5 -6.5h94v182h-97h-50t-59 1t-70 3q41 47 70 92.5t45 92.5t16 100z" />
    <glyph glyph-name="uni066F.fina" unicode="&#x66f;" horiz-adv-x="1409" 
d="M689 -515q194 0 333.5 61.5t214 176.5t74.5 277h118v182h-116q-2 135 -31 237.5t-80 172t-118 104.5t-145 35q-80 0 -142.5 -38t-106 -100.5t-66 -137t-22.5 -148.5q0 -154 94.5 -230.5t284.5 -76.5h170q0 -163 -114 -249t-348 -86q-159 0 -250 53t-129.5 142t-38.5 197
q0 91 20 188t49 189l-159 64q-38 -106 -60 -217.5t-22 -217.5q0 -157 57.5 -288.5t187 -210.5t345.5 -79zM971 182q-106 0 -153.5 30.5t-47.5 100.5q0 45 14.5 100.5t51 96.5t100.5 41q48 0 85 -21.5t63 -66.5t42 -115t22 -166h-177z" />
    <glyph glyph-name="uni067C.init" unicode="&#x67c;" horiz-adv-x="678" 
d="M-20 182v-182h117v182h-117zM470 1189l-139 -139l139 -141l140 141zM138 1189l-139 -139l139 -141l140 141zM244 -82q0 40 27.5 67.5t67.5 27.5t67 -27.5t27 -67.5t-27 -67t-67 -27t-67.5 27t-27.5 67zM154 -82q0 -76 54.5 -130.5t130.5 -54.5t130 54.5t54 130.5t-54 130
t-130 54t-130.5 -54t-54.5 -130zM237 0q126 0 201 53.5t108 147.5t33 214q0 70 -10 147t-27 157l-174 -44q14 -75 26 -149t12 -139q0 -89 -35.5 -147t-135.5 -58h-161v-182h163z" />
    <glyph glyph-name="uni067C.medi" unicode="&#x67c;" horiz-adv-x="784" 
d="M-20 182v-182h117v182h-117zM245 -74q0 40 27.5 67.5t67.5 27.5t67 -27.5t27 -67.5t-27 -67t-67 -27t-67.5 27t-27.5 67zM155 -74q0 -76 54.5 -130.5t130.5 -54.5t130 54.5t54 130.5t-54 130t-130 54t-130.5 -54t-54.5 -130zM397 591q4 -43 6.5 -86t2.5 -91
q0 -118 -54.5 -175t-181.5 -57h-96v-182h96q96 0 184 37t142 116q27 -49 65 -83t92 -52t128 -18h23v182h-21q-64 0 -107.5 22t-67.5 65.5t-28 107.5l-16 234zM470 1102l-139 -139l139 -141l140 141zM138 1102l-139 -139l139 -141l140 141z" />
    <glyph glyph-name="uni067C.fina" unicode="&#x67c;" horiz-adv-x="1903" 
d="M812 -95q0 40 27.5 67.5t67.5 27.5t67 -27.5t27 -67.5t-27 -67t-67 -27t-67.5 27t-27.5 67zM722 -95q0 -76 54.5 -130.5t130.5 -54.5t130 54.5t54 130.5t-54 130t-130 54t-130.5 -54t-54.5 -130zM1076 981l-139 -139l139 -141l140 141zM744 981l-139 -139l139 -141
l140 141zM1515 591q4 -42 6.5 -89t2.5 -88q0 -88 -59 -138.5t-171.5 -72t-271.5 -21.5h-167q-145 0 -254 12.5t-181.5 44t-109.5 87.5t-37 144q0 45 10.5 95t26.5 94l-155 58q-25 -61 -40.5 -127t-15.5 -135q0 -126 47.5 -213t142 -140.5t236 -77.5t330.5 -24h167
q230 0 359.5 41.5t212.5 137.5q47 -94 119.5 -136.5t185.5 -42.5h24v182h-24q-97 0 -145.5 50t-54.5 145l-17 234z" />
    <glyph glyph-name="uni0681.init" unicode="&#x681;" horiz-adv-x="1372" 
d="M519 1088l-110 -43l14 -98l381 151l-14 99l-132 -48q-3 -1 -5.5 -2t-4.5 -1q-56 -8 -86.5 21.5t-31.5 60.5q0 50 36.5 76t79.5 26q23 0 50 -4t58 -20l-1 99q-28 17 -57.5 24.5t-63.5 7.5q-76 0 -135.5 -55t-59.5 -141q0 -59 24 -93t58 -60zM-20 182v-182h167
q141 0 254.5 24.5t223 72t237.5 115.5q106 56 185 92t137 54.5t100 23.5v173q-80 3 -168 29.5t-176 65t-170 76t-151 62.5t-119 25q-118 0 -205.5 -64.5t-153.5 -171.5l-15 -24l153 -75l27 34q39 50 85.5 85.5t107.5 35.5q21 0 72 -17.5t119.5 -44.5t144.5 -57.5t147 -56.5
q-127 -58 -229.5 -108.5t-196 -87.5t-191.5 -58t-215 -21h-170z" />
    <glyph glyph-name="uni0681.medi" unicode="&#x681;" horiz-adv-x="1396" 
d="M519 1088l-110 -43l14 -98l381 151l-14 99l-132 -48q-3 -1 -5.5 -2t-4.5 -1q-56 -8 -86.5 21.5t-31.5 60.5q0 50 36.5 76t79.5 26q23 0 50 -4t58 -20l-1 99q-28 17 -57.5 24.5t-63.5 7.5q-76 0 -135.5 -55t-59.5 -141q0 -59 24 -93t58 -60zM1284 555q-80 3 -168 29.5
t-176 65t-170 76t-151 62.5t-119 25q-118 0 -205.5 -64.5t-153.5 -171.5l-15 -24l153 -75l27 34q39 50 85.5 85.5t107.5 35.5q21 0 72 -17.5t119.5 -44.5t144.5 -57.5t147 -56.5q-127 -58 -229.5 -108.5t-196 -87.5t-191.5 -58t-215 -21h-170v-182h167q143 0 271.5 32
t254 88t257.5 128q14 -93 62.5 -147.5t138.5 -77.5t226 -23h59v182h-55q-95 0 -162 9.5t-102.5 37.5t-36.5 83q65 31 123 48.5t101 21.5v173z" />
    <glyph glyph-name="uni0681.fina" unicode="&#x681;" horiz-adv-x="1409" 
d="M479 1128l-110 -43l14 -98l381 151l-14 99l-132 -48q-3 -1 -5.5 -2t-4.5 -1q-56 -8 -86.5 21.5t-31.5 60.5q0 50 36.5 76t79.5 26q23 0 50 -4t58 -20l-1 99q-28 17 -57.5 24.5t-63.5 7.5q-76 0 -135.5 -55t-59.5 -141q0 -59 24 -93t58 -60zM100 -175q0 -134 49.5 -231.5
t139.5 -160.5t211.5 -93.5t265.5 -30.5q139 0 273.5 25.5t239.5 74.5l-45 167q-103 -48 -221.5 -70.5t-231.5 -22.5q-171 0 -285 39.5t-170.5 117.5t-56.5 194q0 80 36 159t111 151.5t192 133.5t278 104q0 -153 51.5 -236t155 -114.5t258.5 -31.5h78v182h-81q-102 0 -173 13
t-107.5 61.5t-36.5 154.5q49 10 106 17t112 11v172q-80 3 -167 29.5t-173.5 65t-167 76t-148.5 62.5t-118 25q-118 0 -210.5 -64.5t-158.5 -171.5l-15 -24l153 -75l27 34q39 50 90.5 85.5t112.5 35.5q24 0 83.5 -21.5t139 -53.5t161.5 -66q-190 -42 -332.5 -113.5t-237 -166
t-141.5 -207t-47 -236.5z" />
    <glyph glyph-name="uni0685.init" unicode="&#x685;" horiz-adv-x="1372" 
d="M616 1464l-135 -135l135 -135l135 135zM787 1211l-135 -135l135 -135l135 135zM445 1211l-135 -135l135 -135l135 135zM-20 182v-182h167q141 0 254.5 24.5t223 72t237.5 115.5q106 56 185 92t137 54.5t100 23.5v173q-80 3 -168 29.5t-176 65t-170 76t-151 62.5t-119 25
q-118 0 -205.5 -64.5t-153.5 -171.5l-15 -24l153 -75l27 34q39 50 85.5 85.5t107.5 35.5q21 0 72 -17.5t119.5 -44.5t144.5 -57.5t147 -56.5q-127 -58 -229.5 -108.5t-196 -87.5t-191.5 -58t-215 -21h-170z" />
    <glyph glyph-name="uni0685.medi" unicode="&#x685;" horiz-adv-x="1396" 
d="M616 1464l-135 -135l135 -135l135 135zM787 1211l-135 -135l135 -135l135 135zM445 1211l-135 -135l135 -135l135 135zM1284 555q-80 3 -168 29.5t-176 65t-170 76t-151 62.5t-119 25q-118 0 -205.5 -64.5t-153.5 -171.5l-15 -24l153 -75l27 34q39 50 85.5 85.5
t107.5 35.5q21 0 72 -17.5t119.5 -44.5t144.5 -57.5t147 -56.5q-127 -58 -229.5 -108.5t-196 -87.5t-191.5 -58t-215 -21h-170v-182h167q143 0 271.5 32t254 88t257.5 128q14 -93 62.5 -147.5t138.5 -77.5t226 -23h59v182h-55q-95 0 -162 9.5t-102.5 37.5t-36.5 83
q65 31 123 48.5t101 21.5v173z" />
    <glyph glyph-name="uni0685.fina" unicode="&#x685;" horiz-adv-x="1409" 
d="M581 1505l-135 -135l135 -135l135 135zM752 1252l-135 -135l135 -135l135 135zM410 1252l-135 -135l135 -135l135 135zM100 -175q0 -134 49.5 -231.5t139.5 -160.5t211.5 -93.5t265.5 -30.5q139 0 273.5 25.5t239.5 74.5l-45 167q-103 -48 -221.5 -70.5t-231.5 -22.5
q-171 0 -285 39.5t-170.5 117.5t-56.5 194q0 80 36 159t111 151.5t192 133.5t278 104q0 -153 51.5 -236t155 -114.5t258.5 -31.5h78v182h-81q-102 0 -173 13t-107.5 61.5t-36.5 154.5q49 10 106 17t112 11v172q-80 3 -167 29.5t-173.5 65t-167 76t-148.5 62.5t-118 25
q-118 0 -210.5 -64.5t-158.5 -171.5l-15 -24l153 -75l27 34q39 50 90.5 85.5t112.5 35.5q24 0 83.5 -21.5t139 -53.5t161.5 -66q-190 -42 -332.5 -113.5t-237 -166t-141.5 -207t-47 -236.5z" />
    <glyph glyph-name="uni0689.fina" unicode="&#x689;" horiz-adv-x="1089" 
d="M351 -91q0 40 27.5 67.5t67.5 27.5t67 -27.5t27 -67.5t-27 -67t-67 -27t-67.5 27t-27.5 67zM261 -91q0 -76 54.5 -130.5t130.5 -54.5t130 54.5t54 130.5t-54 130t-130 54t-130.5 -54t-54.5 -130zM675 364q0 -60 -39.5 -101t-119 -62t-200.5 -21q-51 0 -103.5 6.5
t-113.5 20.5v-181q50 -12 106 -18.5t126 -6.5q108 0 191.5 18t147 56t110.5 97q37 -58 73 -96t85.5 -57t128.5 -19h42v182h-42q-43 0 -76.5 21.5t-68 79.5t-80.5 166l-227 534l-156 -73l177 -401q16 -36 27.5 -77.5t11.5 -67.5z" />
    <glyph glyph-name="uni0693.fina" unicode="&#x693;" horiz-adv-x="791" 
d="M278 -510q0 40 27.5 67.5t67.5 27.5t67 -27.5t27 -67.5t-27 -67t-67 -27t-67.5 27t-27.5 67zM188 -510q0 -76 54.5 -130.5t130.5 -54.5t130 54.5t54 130.5t-54 130t-130 54t-130.5 -54t-54.5 -130zM784 0h27v182h-38q-73 0 -121 35t-70 119l-54 209l-166 -56
q33 -97 51.5 -190.5t18.5 -178.5q0 -121 -43.5 -221t-140.5 -171.5t-260 -106.5l59 -158q189 37 304 128t172.5 213.5t72.5 253.5q26 -21 72.5 -39.5t115.5 -18.5z" />
    <glyph glyph-name="uni0695.fina" unicode="&#x695;" horiz-adv-x="791" 
d="M221 -959h105l153 312l-81 40l-125 -254l-124 254l-82 -40zM784 0h27v182h-38q-73 0 -121 35t-70 119l-54 209l-166 -56q33 -97 51.5 -190.5t18.5 -178.5q0 -121 -43.5 -221t-140.5 -171.5t-260 -106.5l59 -158q189 37 304 128t172.5 213.5t72.5 253.5q26 -21 72.5 -39.5
t115.5 -18.5z" />
    <glyph glyph-name="uni0696.fina" unicode="&#x696;" horiz-adv-x="791" 
d="M417 -522l-145 -145l145 -145l145 145zM162 173l-145 -145l145 -145l145 145zM784 0h27v182h-38q-73 0 -121 35t-70 119l-54 209l-166 -56q33 -97 51.5 -190.5t18.5 -178.5q0 -121 -43.5 -221t-140.5 -171.5t-260 -106.5l59 -158q189 37 304 128t172.5 213.5t72.5 253.5
q26 -21 72.5 -39.5t115.5 -18.5z" />
    <glyph glyph-name="uni069A.init" unicode="&#x69a;" horiz-adv-x="1615" 
d="M963 -158l-145 -145l145 -145l145 145zM900 1117l-145 -145l145 -145l145 145zM677 0q80 0 148.5 36t124.5 117q37 -73 96 -113t155 -40q118 1 186.5 59.5t98.5 153.5t30 203q0 75 -11 150.5t-29 142.5l-171 -46q8 -31 17 -76.5t16 -96.5t7 -101q0 -55 -13.5 -102.5
t-45 -76t-86.5 -28.5q-85 0 -123 56.5t-43 137.5l-16 209l-167 -21q4 -42 6 -71.5t3 -50.5t1 -39q0 -107 -38 -164t-144 -57q-89 0 -134.5 55t-51.5 139l-16 209l-167 -21q4 -42 6 -71.5t3 -50.5t1 -39q0 -84 -26 -132t-80 -68.5t-140 -20.5h-94v-182h92q135 0 208 39.5
t120 113.5q37 -74 99.5 -113.5t177.5 -39.5z" />
    <glyph glyph-name="uni069A.medi" unicode="&#x69a;" horiz-adv-x="1729" 
d="M963 -158l-145 -145l145 -145l145 145zM900 1117l-145 -145l145 -145l145 145zM1201 0q98 0 152.5 40t96.5 114q26 -77 96 -115.5t175 -38.5h28v182h-30q-91 0 -141.5 49t-56.5 145l-16 225l-167 -20q5 -64 7.5 -103t2.5 -75q0 -72 -16.5 -121t-49 -74.5t-82.5 -25.5
q-85 0 -123 56.5t-43 137.5l-16 209l-167 -21q4 -42 6 -71.5t3 -50.5t1 -39q0 -107 -38 -164t-144 -57q-89 0 -134.5 55t-51.5 139l-16 209l-167 -21q4 -42 6 -71.5t3 -50.5t1 -39q0 -84 -26 -132t-80 -68.5t-140 -20.5h-94v-182h92q135 0 208 39.5t120 113.5
q37 -74 99.5 -113.5t177.5 -39.5q80 0 148.5 36t124.5 117q37 -73 96 -113t155 -40z" />
    <glyph glyph-name="uni069A.fina" unicode="&#x69a;" horiz-adv-x="2533" 
d="M1772 -158l-145 -145l145 -145l145 145zM1709 1117l-145 -145l145 -145l145 145zM689 -335q-159 0 -250 53t-129.5 142t-38.5 197q0 91 20 188t49 189l-159 64q-38 -106 -60 -217.5t-22 -217.5q0 -157 57.5 -288.5t187 -210.5t345.5 -79q208 0 339.5 73t194.5 202.5
t64 296.5q32 -24 80 -40.5t114 -16.5q80 0 148.5 36t124.5 117q37 -73 96 -113t155 -40q98 0 152.5 40t96.5 114q26 -77 96 -115.5t175 -38.5h28v182h-30q-91 0 -141.5 49t-56.5 145l-16 225l-167 -20q5 -64 7.5 -103t2.5 -75q0 -72 -16.5 -121t-49 -74.5t-82.5 -25.5
q-85 0 -123 56.5t-43 137.5l-16 209l-167 -21q4 -42 6 -71.5t3 -50.5t1 -39q0 -107 -38 -164t-144 -57q-92 0 -148 44t-84 131l-60 189l-171 -69q28 -74 60 -190t32 -235q0 -101 -36.5 -189.5t-128 -143t-258.5 -54.5z" />
    <glyph glyph-name="uni06A0.init" unicode="&#x6a0;" horiz-adv-x="1068" 
d="M560 1550l-135 -135l135 -135l135 135zM731 1297l-135 -135l135 -135l135 135zM389 1297l-135 -135l135 -135l135 135zM287 182h-307v-182h109q104 0 208 9t211.5 27.5t222 46.5t238.5 66v182l-423 -101q-10 -3 -19 -4t-16 -1q-13 0 -51 31.5t-71.5 88.5t-33.5 131
q0 64 33 110.5t86.5 72.5t114.5 26q55 0 121 -23.5t142 -68.5l67 149q-91 62 -176.5 93t-164.5 31q-105 0 -196 -51t-147 -138t-56 -194q0 -54 14.5 -109.5t39 -104.5t54.5 -87z" />
    <glyph glyph-name="uni06A0.medi" unicode="&#x6a0;" horiz-adv-x="1172" 
d="M621 1456l-135 -135l135 -135l135 135zM792 1203l-135 -135l135 -135l135 135zM450 1203l-135 -135l135 -135l135 135zM622 610q46 0 130 -7t158 -32q-48 -61 -98.5 -113.5t-93.5 -92t-69.5 -61.5l-26.5 -22l-44.5 38.5t-110.5 103.5t-131 147q74 25 157.5 32t128.5 7z
M622 782q-78 0 -160 -12.5t-152.5 -35.5t-113.5 -56t-43 -74q0 -23 20.5 -61t54 -83t73.5 -92t81 -88.5t75 -71.5q-46 -12 -107.5 -17.5t-119 -7t-91.5 -1.5h-159v-182h158q70 0 157.5 11t174 35t152.5 62q101 -58 205.5 -83t209.5 -25h155v182h-156q-51 0 -114 4t-133 22
q34 30 75 71.5t81 88.5t73.5 92t53.5 83t20 61q0 41 -44 74t-114.5 56t-152.5 35.5t-159 12.5z" />
    <glyph glyph-name="uni06A0.fina" unicode="&#x6a0;" horiz-adv-x="1230" 
d="M636 1510l-135 -135l135 -135l135 135zM807 1257l-135 -135l135 -135l135 135zM465 1257l-135 -135l135 -135l135 135zM633 691q46 0 130 -7.5t158 -32.5q-48 -61 -98.5 -113.5t-93.5 -92t-69.5 -61.5l-26.5 -22l-44.5 38.5t-110.5 104t-131 146.5q74 25 157.5 32.5
t128.5 7.5zM479 278q-57 -37 -122.5 -84t-124 -106t-96 -133t-37.5 -166q0 -160 74.5 -267t209.5 -160t314 -53q113 0 216.5 17.5t188.5 48.5l-39 167q-90 -30 -182 -44.5t-179 -14.5q-144 0 -240.5 37.5t-144.5 106.5t-48 162q0 53 24.5 102t71 96t111 92.5t144.5 90.5
q104 -72 195.5 -108.5t182.5 -49t192 -12.5h60v182h-60q-136 0 -235 16t-183 68q37 30 81.5 74t88.5 94t80.5 98.5t58.5 89t22 63.5q0 41 -44 74t-114.5 56t-152.5 35.5t-159 12.5q-78 0 -160 -12.5t-152.5 -35.5t-113.5 -56t-43 -74q0 -23 21.5 -62t56.5 -86t77 -95t84 -91
t76 -73z" />
    <glyph glyph-name="uni06A1.init" unicode="&#x6a1;" horiz-adv-x="936" 
d="M483 532q-93 0 -142.5 22.5t-49.5 91.5q0 46 16.5 100t54 93t99.5 39q53 0 89 -29t59.5 -76t37 -102.5t19.5 -108.5q-46 -13 -91.5 -21.5t-91.5 -8.5zM360 182h-380v-182h368q134 0 227 17t151 64.5t84.5 139t26.5 240.5q0 113 -22 219.5t-67.5 191t-116 134.5t-168.5 50
q-107 0 -182 -64.5t-113.5 -160.5t-38.5 -192q0 -139 85.5 -209t254.5 -70q58 0 108.5 8t99.5 23q0 -94 -32.5 -138.5t-102 -57.5t-182.5 -13z" />
    <glyph glyph-name="uni06A1.medi" unicode="&#x6a1;" horiz-adv-x="1019" 
d="M539 657q40 0 83 -29t72.5 -72t29.5 -85q0 -47 -24.5 -96t-66 -88.5t-92.5 -61.5q-43 22 -84.5 62t-68.5 88t-27 94q0 45 28.5 88t70 71.5t79.5 28.5zM894 471q0 63 -29 127t-78.5 117.5t-113.5 86t-134 32.5q-67 0 -130 -32.5t-112 -86.5t-78 -117t-29 -125
q0 -52 15.5 -100t44 -93.5t68.5 -92.5q-43 -2 -77.5 -3.5t-63.5 -1.5h-57h-140v-182h140q41 0 110 6.5t150 22t158 43.5q77 -27 156.5 -43t146 -22.5t104.5 -6.5h94v182h-97h-50t-59 1t-70 3q41 47 70 92.5t45 92.5t16 100z" />
    <glyph glyph-name="uni06A1.fina" unicode="&#x6a1;" horiz-adv-x="1903" 
d="M1424 657q40 0 83 -29t72.5 -72t29.5 -85q0 -47 -24.5 -96t-66 -88.5t-92.5 -61.5q-43 22 -84.5 62t-68.5 88t-27 94q0 45 28.5 88t70 71.5t79.5 28.5zM855 182q-145 0 -254 12.5t-181.5 44t-109.5 87.5t-37 144q0 45 10.5 95t26.5 94l-155 58q-25 -61 -40.5 -127
t-15.5 -135q0 -126 47.5 -213t142 -140.5t236 -77.5t330.5 -24h86q31 0 87.5 3.5t126 11.5t140 22t128.5 35q77 -27 156 -43t145 -22.5t104 -6.5h95v182h-97h-50t-58.5 1t-69.5 3q41 47 70 92.5t45 92.5t16 100q0 63 -29 127t-78.5 117.5t-113.5 86t-134 32.5
q-67 0 -130 -32.5t-112 -86.5t-78 -117t-29 -125q0 -52 15.5 -100t44 -93.5t68.5 -92.5q-31 -2 -72.5 -3t-82 -1.5t-70 -0.5h-35.5h-88z" />
    <glyph glyph-name="uni06AA.init" unicode="&#x6aa;" horiz-adv-x="1619" 
d="M780 456q74 0 170.5 -2.5t187 -13t150 -35t59.5 -68.5q0 -41 -32.5 -69t-89.5 -45t-131 -26t-158 -12t-170 -3h-786v-182h787q124 0 237 8.5t207 29.5t163.5 59t107.5 96t38 141q0 73 -32 124.5t-93.5 85t-151 52.5t-204.5 26.5t-254 7.5h-552q109 78 247.5 146.5
t286 125.5t281.5 100v173q-134 -39 -265.5 -88t-249.5 -102t-211 -105t-149 -98q-50 -41 -76 -88t-26 -91q0 -42 24.5 -75t74 -52.5t124.5 -19.5h486z" />
    <glyph glyph-name="uni06AA.medi" unicode="&#x6aa;" horiz-adv-x="1701" 
d="M1672 0h49v182h-49q-52 0 -96.5 7t-82.5 36q10 22 18.5 52t8.5 57q0 73 -32 124.5t-93.5 85t-151 52.5t-204.5 26.5t-254 7.5h-552q109 78 247.5 146.5t286 125.5t281.5 100v173q-134 -39 -265.5 -88t-249.5 -102t-211 -105t-149 -98q-49 -41 -75 -88t-26 -91
q0 -42 24 -75t73 -52.5t125 -19.5h486q74 0 170.5 -2.5t187 -13t150 -35t59.5 -68.5q0 -41 -32.5 -69t-89.5 -45t-131 -26t-158 -12t-170 -3h-786v-182h787q121 0 231 9.5t203 31t163 58.5q50 -40 121 -69.5t187 -29.5z" />
    <glyph glyph-name="uni06AA.fina" unicode="&#x6aa;" horiz-adv-x="2092" 
d="M1158 0q121 0 231 9.5t203 31t163 58.5q50 -40 121 -69.5t187 -29.5h48v182h-48q-52 0 -97 7t-83 36q10 22 19 52t9 57q0 73 -32 124.5t-93.5 85t-151 52.5t-204.5 26.5t-254 7.5h-551q109 78 247 146.5t285 125.5t281 100v173q-134 -39 -265.5 -88t-249.5 -102
t-211 -105t-149 -98q-49 -41 -74.5 -87.5t-25.5 -90.5q0 -42 24 -75.5t73.5 -53t124.5 -19.5h486q74 0 170.5 -2t187 -12.5t149.5 -35t59 -69.5q0 -41 -32.5 -69t-89 -45t-130.5 -26t-158 -12t-170 -3h-378q-71 0 -171 3t-222.5 12t-262.5 27l-24 -158q113 -25 220.5 -38.5
t200.5 -19.5t162.5 -7t106.5 -1h369z" />
    <glyph glyph-name="uni06AB.init" unicode="&#x6ab;" horiz-adv-x="909" 
d="M547 1037q0 40 27.5 67.5t67.5 27.5t67 -27.5t27 -67.5t-27 -67t-67 -27t-67.5 27t-27.5 67zM457 1037q0 -76 54.5 -130.5t130.5 -54.5t130 54.5t54 130.5t-54 130t-130 54t-130.5 -54t-54.5 -130zM220 970l629 255v177l-719 -292q-48 -19 -70.5 -55.5t-22.5 -77.5
q0 -35 17 -70t49 -61q59 -47 125.5 -94.5t129.5 -95.5t114.5 -97.5t82 -100.5t30.5 -104q0 -68 -36.5 -105.5t-116 -52t-209.5 -14.5h-243v-182h244q186 0 304 36t174.5 113t56.5 201q0 78 -33 149t-89.5 135.5t-126.5 122.5t-145 111t-145 102z" />
    <glyph glyph-name="uni06AB.medi" unicode="&#x6ab;" horiz-adv-x="1046" 
d="M547 1037q0 40 27.5 67.5t67.5 27.5t67 -27.5t27 -67.5t-27 -67t-67 -27t-67.5 27t-27.5 67zM457 1037q0 -76 54.5 -130.5t130.5 -54.5t130 54.5t54 130.5t-54 130t-130 54t-130.5 -54t-54.5 -130zM220 970l629 255v177l-719 -292q-48 -19 -70.5 -55t-22.5 -77
q0 -36 17 -71t49 -61q59 -47 125.5 -94.5t129.5 -95.5t114.5 -97.5t82 -100.5t30.5 -104q0 -68 -36.5 -105.5t-116 -52t-209.5 -14.5h-243v-182h244q147 0 239.5 20.5t150 60.5t97.5 99q61 -94 138.5 -137t188.5 -43h28v182h-28q-71 0 -120 26t-85.5 80.5t-72.5 140.5
q-30 72 -72.5 133.5t-95 115t-113 102t-126 95.5t-133.5 95z" />
    <glyph glyph-name="uni06AB.fina" unicode="&#x6ab;" horiz-adv-x="1929" 
d="M1430 1037q0 40 27.5 67.5t67.5 27.5t67 -27.5t27 -67.5t-27 -67t-67 -27t-67.5 27t-27.5 67zM1340 1037q0 -76 54.5 -130.5t130.5 -54.5t130 54.5t54 130.5t-54 130t-130 54t-130.5 -54t-54.5 -130zM1107 0q147 0 239.5 20.5t150 60.5t97.5 99q61 -94 138.5 -137
t188.5 -43h27l1 182h-27q-71 0 -120 26t-85.5 80.5t-72.5 140.5q-30 72 -72.5 133.5t-95 114.5t-113 102t-126 95.5t-133.5 95.5l629 255v177l-719 -292q-48 -19 -71 -55.5t-23 -77.5q0 -36 17 -70.5t49 -60.5q59 -47 125.5 -94.5t129.5 -95.5t114.5 -97.5t82 -100.5
t30.5 -104q0 -68 -36.5 -105.5t-116 -52t-209.5 -14.5h-254q-144 0 -252.5 12.5t-181 44t-109 88t-36.5 144.5q0 45 10.5 95t26.5 93l-155 58q-25 -61 -40.5 -127t-15.5 -135q0 -126 47 -213t141 -140.5t235.5 -77.5t329.5 -24h255z" />
    <glyph glyph-name="uni06AC.init" unicode="&#x6ac;" horiz-adv-x="909" 
d="M347 1662l-145 -145l145 -145l145 145zM220 970l629 255v177l-719 -292q-48 -19 -70.5 -55.5t-22.5 -77.5q0 -35 17 -70t49 -61q59 -47 125.5 -94.5t129.5 -95.5t114.5 -97.5t82 -100.5t30.5 -104q0 -68 -36.5 -105.5t-116 -52t-209.5 -14.5h-243v-182h244q186 0 304 36
t174.5 113t56.5 201q0 78 -33 149t-89.5 135.5t-126.5 122.5t-145 111t-145 102z" />
    <glyph glyph-name="uni06AC.medi" unicode="&#x6ac;" horiz-adv-x="1046" 
d="M347 1662l-145 -145l145 -145l145 145zM220 970l629 255v177l-719 -292q-48 -19 -70.5 -55t-22.5 -77q0 -36 17 -71t49 -61q59 -47 125.5 -94.5t129.5 -95.5t114.5 -97.5t82 -100.5t30.5 -104q0 -68 -36.5 -105.5t-116 -52t-209.5 -14.5h-243v-182h244q147 0 239.5 20.5
t150 60.5t97.5 99q61 -94 138.5 -137t188.5 -43h28v182h-28q-71 0 -120 26t-85.5 80.5t-72.5 140.5q-30 72 -72.5 133.5t-95 115t-113 102t-126 95.5t-133.5 95z" />
    <glyph glyph-name="uni06AC.fina" unicode="&#x6ac;" horiz-adv-x="1863" 
d="M896 1512l-145 -145l145 -145l145 145zM855 182q-145 0 -254 12.5t-181.5 44t-109.5 87.5t-37 144q0 45 10.5 95t26.5 94l-155 58q-25 -61 -40.5 -127t-15.5 -135q0 -126 47.5 -213t142 -140.5t236.5 -77.5t330 -24h165q134 0 232.5 13.5t172 48.5t132.5 99
q29 -80 97 -120.5t193 -40.5h36v182h-38q-89 0 -130.5 36t-52.5 106t-11 172v881h-169v-884q0 -76 -9 -134.5t-50.5 -97.5t-138 -59t-271.5 -20h-158zM707 610v-111q38 -6 77.5 -9.5t78.5 -3.5q67 0 125.5 14.5t94.5 51t36 102.5q0 26 -7 45.5t-20 34.5q-25 31 -65.5 47.5
t-81.5 25t-69 17t-28 25.5q0 22 25.5 42t64.5 35.5t80 24t72 8.5l-7 118q-43 0 -100.5 -14t-113 -42.5t-91.5 -72.5t-36 -106q0 -49 27.5 -77.5t68.5 -43.5t82 -24t69 -18.5t28 -28.5q0 -32 -46 -43.5t-104 -11.5q-45 0 -88.5 4.5t-71.5 10.5z" />
    <glyph glyph-name="uni06B5.init" unicode="&#x6b5;" horiz-adv-x="590" 
d="M298 1519h105l153 312l-81 40l-125 -254l-124 254l-82 -40zM-20 182v-182h83q194 0 284 106.5t90 314.5v956h-169v-957q0 -102 -42 -170t-162 -68h-84z" />
    <glyph glyph-name="uni06B5.medi" unicode="&#x6b5;" horiz-adv-x="651" 
d="M298 1519h105l153 312l-81 40l-125 -254l-124 254l-82 -40zM268 438q0 -73 -16.5 -131t-60 -91.5t-127.5 -33.5h-84v-182h86q89 0 140.5 17.5t85 51.5t66.5 83q26 -49 63.5 -83t91 -51.5t128.5 -17.5h30v182h-32q-77 0 -121 32.5t-62.5 90t-18.5 130.5v942h-169v-939z
" />
    <glyph glyph-name="uni06B5.fina" unicode="&#x6b5;" horiz-adv-x="1372" 
d="M539 1041h105l153 312l-81 40l-125 -254l-124 254l-82 -40zM629 -496q129 0 227.5 35.5t165.5 107t101 179t34 250.5q43 -41 81 -58.5t126 -17.5h28v182h-30q-121 0 -162.5 57.5t-41.5 169.5v968h-169v-1279q0 -145 -40.5 -236.5t-120.5 -134.5t-199 -43
q-129 0 -207.5 40.5t-114.5 117t-36 184.5q0 91 20 188t49 189l-159 64q-38 -106 -60 -217.5t-22 -217.5q0 -157 55 -276t172 -185.5t303 -66.5z" />
    <glyph glyph-name="uni06BA.init" unicode="&#x6ba;" horiz-adv-x="584" 
d="M143 0q126 0 201 53.5t108 147.5t33 214q0 70 -10 147t-27 157l-174 -44q14 -75 26 -149t12 -139q0 -89 -35.5 -147t-135.5 -58h-161v-182h163z" />
    <glyph glyph-name="uni06BA.medi" unicode="&#x6ba;" horiz-adv-x="690" 
d="M303 591q4 -43 6.5 -86t2.5 -91q0 -118 -54.5 -175t-181.5 -57h-96v-182h96q96 0 184 37t142 116q27 -49 65 -83t92 -52t128 -18h23v182h-21q-64 0 -107.5 22t-67.5 65.5t-28 107.5l-16 234z" />
    <glyph glyph-name="uni06BC.init" unicode="&#x6bc;" horiz-adv-x="584" 
d="M153 -82q0 40 27.5 67.5t67.5 27.5t67 -27.5t27 -67.5t-27 -67t-67 -27t-67.5 27t-27.5 67zM63 -82q0 -76 54.5 -130.5t130.5 -54.5t130 54.5t54 130.5t-54 130t-130 54t-130.5 -54t-54.5 -130zM143 0q126 0 201 53.5t108 147.5t33 214q0 70 -10 147t-27 157l-174 -44
q14 -75 26 -149t12 -139q0 -89 -35.5 -147t-135.5 -58h-161v-182h163zM265 1180l-145 -145l145 -145l145 145z" />
    <glyph glyph-name="uni06BC.medi" unicode="&#x6bc;" horiz-adv-x="690" 
d="M153 -74q0 40 27.5 67.5t67.5 27.5t67 -27.5t27 -67.5t-27 -67t-67 -27t-67.5 27t-27.5 67zM63 -74q0 -76 54.5 -130.5t130.5 -54.5t130 54.5t54 130.5t-54 130t-130 54t-130.5 -54t-54.5 -130zM303 591q4 -43 6.5 -86t2.5 -91q0 -118 -54.5 -175t-181.5 -57h-96v-182h96
q96 0 184 37t142 116q27 -49 65 -83t92 -52t128 -18h23v182h-21q-64 0 -107.5 22t-67.5 65.5t-28 107.5l-16 234zM322 1089l-145 -145l145 -145l145 145z" />
    <glyph glyph-name="uni06BC.fina" unicode="&#x6bc;" horiz-adv-x="1477" 
d="M612 -610q0 40 27.5 67.5t67.5 27.5t67 -27.5t27 -67.5t-27 -67t-67 -27t-67.5 27t-27.5 67zM522 -610q0 -76 54.5 -130.5t130.5 -54.5t130 54.5t54 130.5t-54 130t-130 54t-130.5 -54t-54.5 -130zM678 773l-145 -145l145 -145l145 145zM689 -335q-159 0 -250 53
t-129.5 142t-38.5 197q0 91 20 188t49 189l-159 64q-38 -106 -60 -217.5t-22 -217.5q0 -157 57.5 -288.5t187 -210.5t345.5 -79q208 0 339.5 73t194.5 202.5t64 296.5q32 -31 68.5 -44t106.5 -13h35v182h-39q-82 0 -127.5 33t-65.5 97l-74 234l-171 -69q28 -74 60 -190
t32 -235q0 -101 -36.5 -189.5t-128 -143t-258.5 -54.5z" />
    <glyph glyph-name="uni06BD.fina" unicode="&#x6bd;" horiz-adv-x="1477" 
d="M666 1121l-135 -135l135 -135l135 135zM837 868l-135 -135l135 -135l135 135zM495 868l-135 -135l135 -135l135 135zM689 -335q-159 0 -250 53t-129.5 142t-38.5 197q0 91 20 188t49 189l-159 64q-38 -106 -60 -217.5t-22 -217.5q0 -157 57.5 -288.5t187 -210.5
t345.5 -79q208 0 339.5 73t194.5 202.5t64 296.5q32 -31 68.5 -44t106.5 -13h35v182h-39q-82 0 -127.5 33t-65.5 97l-74 234l-171 -69q28 -74 60 -190t32 -235q0 -101 -36.5 -189.5t-128 -143t-258.5 -54.5z" />
    <glyph glyph-name="uni06C2.init" unicode="&#x6c2;" horiz-adv-x="584" 
d="M194 947l-110 -43l14 -98l381 151l-14 99l-132 -48q-3 -1 -5.5 -2t-4.5 -1q-56 -8 -86.5 21.5t-31.5 60.5q0 50 36.5 76t79.5 26q23 0 50 -4t58 -20l-1 99q-28 17 -57.5 24.5t-63.5 7.5q-76 0 -135.5 -55t-59.5 -141q0 -59 24 -93t58 -60zM382 -217l-51 41
q-77 -59 -125.5 -138.5t-48.5 -181.5q0 -56 26.5 -89t85.5 -33q47 0 70.5 27t23.5 73t-20.5 69.5t-73.5 23.5q0 67 30.5 113.5t82.5 94.5zM143 0q126 0 201 53.5t108 147.5t33 214q0 70 -10 147t-27 157l-174 -44q14 -75 26 -149t12 -139q0 -89 -35.5 -147t-135.5 -58h-161
v-182h163z" />
    <glyph glyph-name="uni06C2.medi" unicode="&#x6c2;" horiz-adv-x="1020" 
d="M450 619l-110 -43l14 -98l381 151l-14 99l-132 -48q-3 -1 -5.5 -2t-4.5 -1q-56 -8 -86.5 21.5t-31.5 60.5q0 50 36.5 76t79.5 26q23 0 50 -4t58 -20l-1 99q-28 17 -57.5 24.5t-63.5 7.5q-76 0 -135.5 -55t-59.5 -141q0 -59 24 -93t58 -60zM736 -320q0 116 30 186.5
t90 102t149 31.5h35v182h-33q-106 0 -185.5 -31t-131.5 -93.5t-78 -155.5t-26 -217q-58 45 -96.5 96.5t-57.5 110t-19 124.5q0 44 17 84t45 75.5t61 64.5l-112 124q-53 -53 -106 -94t-117.5 -64.5t-152.5 -23.5h-68v-182h66q53 0 104 11.5t106 37.5q0 -140 45.5 -249
t127 -192t187.5 -144l124 121q-2 24 -3 48.5t-1 46.5z" />
    <glyph glyph-name="uni06C2.fina" unicode="&#x6c2;" horiz-adv-x="957" 
d="M370 851l-110 -43l14 -98l381 151l-14 99l-132 -48q-3 -1 -5.5 -2t-4.5 -1q-56 -8 -86.5 21.5t-31.5 60.5q0 50 36.5 76t79.5 26q23 0 50 -4t58 -20l-1 99q-28 17 -57.5 24.5t-63.5 7.5q-76 0 -135.5 -55t-59.5 -141q0 -59 24 -93t58 -60zM500 422q21 0 36.5 -17t29 -45
t27.5 -62q28 -63 67 -132t107 -117.5t179 -48.5h31v182h-32q-59 0 -97.5 31.5t-64.5 81t-50 102.5q-25 58 -53.5 110.5t-71.5 86.5t-111 34q-61 0 -125.5 -46.5t-122 -129.5t-97.5 -194.5t-53 -241.5l148 -36q14 101 42 182.5t65 139.5t75 89t71 31z" />
    <glyph glyph-name="uni06C3.fina" unicode="&#x6c3;" horiz-adv-x="957" 
d="M616 1068l-139 -139l139 -141l140 141zM284 1068l-139 -139l139 -141l140 141zM500 422q21 0 36.5 -17t29 -45t27.5 -62q28 -63 67 -132t107 -117.5t179 -48.5h31v182h-32q-59 0 -97.5 31.5t-64.5 81t-50 102.5q-25 58 -53.5 110.5t-71.5 86.5t-111 34
q-61 0 -125.5 -46.5t-122 -129.5t-97.5 -194.5t-53 -241.5l148 -36q14 101 42 182.5t65 139.5t75 89t71 31z" />
    <glyph glyph-name="uni06CA.fina" unicode="&#x6ca;" horiz-adv-x="911" 
d="M597 1170l-139 -139l139 -141l140 141zM265 1170l-139 -139l139 -141l140 141zM436 731q-80 0 -142.5 -38t-106 -100.5t-66 -137t-22.5 -148.5q0 -154 94.5 -230.5t284.5 -76.5h158q-24 -98 -90.5 -172t-175 -125t-259.5 -80l59 -159q213 41 342 123.5t194.5 190
t87.5 222.5h137v182h-121q-2 135 -31 237.5t-80 172t-118 104.5t-145 35zM468 182q-106 0 -153.5 30.5t-47.5 100.5q0 45 14.5 100.5t51 96.5t100.5 41q48 0 85 -21.5t63 -66.5t42 -115t22 -166h-177z" />
    <glyph glyph-name="uni06CD.fina" unicode="&#x6cd;" horiz-adv-x="1509" 
d="M300 246l38 177l-263 -132l-37 -177zM869 -515q165 0 286 37t200.5 97t118 130.5t38.5 136.5q0 29 -4.5 56t-19.5 57h41v182h-555q-13 0 -18 -7.5t-4 -15.5l27 -96q8 -28 17 -45.5t29 -17.5h148q93 0 134.5 -34t41.5 -82q0 -42 -57.5 -93t-165 -88t-257.5 -37
q-159 0 -250.5 53t-129.5 142t-38 197q0 53 8.5 130t37.5 177l-159 59q-38 -114 -48.5 -203t-10.5 -157q0 -157 57.5 -288.5t187 -210.5t345.5 -79z" />
    <glyph glyph-name="uni06CE.init" unicode="&#x6ce;" horiz-adv-x="638" 
d="M-22 182v-182h80v182h-80zM339 -159l-139 -139l139 -141l140 141zM7 -159l-139 -139l139 -141l140 141zM197 0q126 0 201 53.5t108 147.5t33 214q0 70 -10 147t-27 157l-174 -44q14 -75 26 -149t12 -139q0 -89 -35.5 -147t-135.5 -58h-161v-182h163zM323 931h105l153 312
l-81 40l-125 -254l-124 254l-82 -40z" />
    <glyph glyph-name="uni06CE.medi" unicode="&#x6ce;" horiz-adv-x="743" 
d="M-22 182v-182h80v182h-80zM339 -159l-139 -139l139 -141l140 141zM7 -159l-139 -139l139 -141l140 141zM356 591q4 -43 6.5 -86t2.5 -91q0 -118 -54.5 -175t-181.5 -57h-96v-182h96q96 0 184 37t142 116q27 -49 65 -83t92 -52t128 -18h23v182h-21q-64 0 -107.5 22
t-67.5 65.5t-28 107.5l-16 234zM364 817h105l153 312l-81 40l-125 -254l-124 254l-82 -40z" />
    <glyph glyph-name="uni06CE.fina" unicode="&#x6ce;" horiz-adv-x="1329" 
d="M363 629h105l153 312l-81 40l-125 -254l-124 254l-82 -40zM689 -515q165 0 286 37t200.5 97t118 130.5t38.5 136.5q0 29 -4.5 56t-19.5 57h41v182h-555q-13 0 -18 -7.5t-4 -15.5l27 -96q8 -28 17 -45.5t29 -17.5h148q93 0 134.5 -34t41.5 -82q0 -42 -57.5 -93t-165 -88
t-257.5 -37q-159 0 -250.5 53t-129.5 142t-38 197q0 53 8.5 130t37.5 177l-159 59q-38 -114 -48.5 -203t-10.5 -157q0 -157 57.5 -288.5t187 -210.5t345.5 -79z" />
    <glyph glyph-name="uni06CF.fina" unicode="&#x6cf;" horiz-adv-x="911" 
d="M436 731q-80 0 -142.5 -38t-106 -100.5t-66 -137t-22.5 -148.5q0 -154 94.5 -230.5t284.5 -76.5h158q-24 -98 -90.5 -172t-175 -125t-259.5 -80l59 -159q213 41 342 123.5t194.5 190t87.5 222.5h137v182h-121q-2 135 -31 237.5t-80 172t-118 104.5t-145 35zM468 182
q-106 0 -153.5 30.5t-47.5 100.5q0 45 14.5 100.5t51 96.5t100.5 41q48 0 85 -21.5t63 -66.5t42 -115t22 -166h-177zM429 1202l-145 -145l145 -145l145 145z" />
    <glyph glyph-name="uni06D0.init" unicode="&#x6d0;" horiz-adv-x="628" arabic-form="initial" 
d="M-22 182v-182h74v182h-74zM187 0q126 0 201 53.5t108 147.5t33 214q0 70 -10 147t-27 157l-174 -44q14 -75 26 -149t12 -139q0 -89 -35.5 -147t-135.5 -58h-161v-182h163zM214 -405l-142 -143l142 -145l143 145zM214 -116l-142 -143l142 -145l143 145z" />
    <glyph glyph-name="uni06D0.medi" unicode="&#x6d0;" horiz-adv-x="734" arabic-form="medial" 
d="M-22 182v-182h74v182h-74zM347 591q4 -43 6.5 -86t2.5 -91q0 -118 -54.5 -175t-181.5 -57h-96v-182h96q96 0 184 37t142 116q27 -49 65 -83t92 -52t128 -18h23v182h-21q-64 0 -107.5 22t-67.5 65.5t-28 107.5l-16 234zM214 -405l-142 -143l142 -145l143 145zM214 -116
l-142 -143l142 -145l143 145z" />
    <glyph glyph-name="uni06D0.fina" unicode="&#x6d0;" horiz-adv-x="1329" arabic-form="final" 
d="M689 -515q165 0 286 37t200.5 97t118 130.5t38.5 136.5q0 29 -4.5 56t-19.5 57h41v182h-555q-13 0 -18 -7.5t-4 -15.5l27 -96q8 -28 17 -45.5t29 -17.5h148q93 0 134.5 -34t41.5 -82q0 -42 -57.5 -93t-165 -88t-257.5 -37q-159 0 -250.5 53t-129.5 142t-38 197
q0 53 8.5 130t37.5 177l-159 59q-38 -114 -48.5 -203t-10.5 -157q0 -157 57.5 -288.5t187 -210.5t345.5 -79zM714 -854l-142 -143l142 -145l143 145zM714 -565l-142 -143l142 -145l143 145z" />
    <glyph glyph-name="uni06D5.fina" unicode="&#x6d5;" horiz-adv-x="1062" 
d="M1047 0h35v182h-31q-87 0 -132.5 43.5t-57.5 131.5l-87 614l-160 -32l7 -48q-135 -42 -233.5 -90.5t-162.5 -105.5t-95 -123t-31 -143q0 -136 97 -213t240 -77q84 0 151.5 31t125.5 89q16 -80 57.5 -138.5t110 -89.5t166.5 -31zM673 503q0 -61 -33.5 -105t-87 -67
t-112.5 -23q-77 0 -122 34t-45 100q0 41 21.5 77.5t66.5 71t115.5 69t167.5 69.5l25 -167q2 -16 3 -30t1 -29z" />
    <glyph glyph-name="uniFB50" unicode="&#x671;" horiz-adv-x="475" arabic-form="isolated" 
d="M322 1247h-169v-1246h169v1246zM199 1432h-70q64 99 108 140t99 41q42 0 67.5 -26t25.5 -65q0 -37 -21.5 -56.5t-72 -26.5t-136.5 -7zM-52 1414q22 -35 80 -51.5t148 -16.5h25q115 0 183 17t98.5 56.5t30.5 106.5q0 75 -51 125t-131 50q-79 0 -144.5 -59.5t-146.5 -196.5
q-18 7 -39.5 24t-34.5 28z" />
    <glyph glyph-name="uniFB51" unicode="&#x671;" horiz-adv-x="536" arabic-form="final" 
d="M229 1432h-70q64 99 108 140t99 41q42 0 67.5 -26t25.5 -65q0 -37 -21.5 -56.5t-72 -26.5t-136.5 -7zM-22 1414q22 -35 80 -51.5t148 -16.5h25q115 0 183 17t98.5 56.5t30.5 106.5q0 75 -51 125t-131 50q-79 0 -144.5 -59.5t-146.5 -196.5q-18 7 -39.5 24t-34.5 28z
M153 1247v-826q0 -219 93.5 -320t284.5 -101h25v182h-25q-105 0 -157 49t-52 190v826h-169z" />
    <glyph glyph-name="uniFB56" unicode="&#x67e;" horiz-adv-x="1791" arabic-form="isolated" 
d="M928 -379l-135 -135l135 -135l135 135zM1099 -126l-135 -135l135 -135l135 135zM757 -126l-135 -135l135 -135l135 135zM1088 0q128 0 237.5 14t192 56t128.5 124t46 218q0 62 -9.5 145.5t-27.5 161.5l-174 -44q15 -76 26 -153.5t11 -133.5q0 -77 -41 -119.5t-106 -60.5
t-139.5 -22t-142.5 -4h-234q-145 0 -254 12.5t-181.5 44t-109.5 87.5t-37 144q0 45 10.5 95t26.5 94l-155 58q-25 -61 -40.5 -127t-15.5 -135q0 -126 47.5 -213t142 -140.5t236 -77.5t330.5 -24h233z" />
    <glyph glyph-name="uniFB57" unicode="&#x67e;" horiz-adv-x="1903" arabic-form="final" 
d="M928 -379l-135 -135l135 -135l135 135zM1099 -126l-135 -135l135 -135l135 135zM757 -126l-135 -135l135 -135l135 135zM1515 591q4 -42 6.5 -89t2.5 -88q0 -88 -59 -138.5t-171.5 -72t-271.5 -21.5h-167q-145 0 -254 12.5t-181.5 44t-109.5 87.5t-37 144q0 45 10.5 95
t26.5 94l-155 58q-25 -61 -40.5 -127t-15.5 -135q0 -126 47.5 -213t142 -140.5t236 -77.5t330.5 -24h167q230 0 359.5 41.5t212.5 137.5q47 -94 119.5 -136.5t185.5 -42.5h24v182h-24q-97 0 -145.5 50t-54.5 145l-17 234z" />
    <glyph glyph-name="uniFB58" unicode="&#x67e;" horiz-adv-x="638" arabic-form="initial" 
d="M-22 182v-182h80v182h-80zM169 -379l-135 -135l135 -135l135 135zM340 -126l-135 -135l135 -135l135 135zM-2 -126l-135 -135l135 -135l135 135zM197 0q126 0 201 53.5t108 147.5t33 214q0 70 -10 147t-27 157l-174 -44q14 -75 26 -149t12 -139q0 -89 -35.5 -147
t-135.5 -58h-161v-182h163z" />
    <glyph glyph-name="uniFB59" unicode="&#x67e;" horiz-adv-x="743" arabic-form="medial" 
d="M-22 182v-182h80v182h-80zM169 -379l-135 -135l135 -135l135 135zM340 -126l-135 -135l135 -135l135 135zM-2 -126l-135 -135l135 -135l135 135zM356 591q4 -43 6.5 -86t2.5 -91q0 -118 -54.5 -175t-181.5 -57h-96v-182h96q96 0 184 37t142 116q27 -49 65 -83t92 -52
t128 -18h23v182h-21q-64 0 -107.5 22t-67.5 65.5t-28 107.5l-16 234z" />
    <glyph glyph-name="uniFB66" unicode="&#x679;" horiz-adv-x="1791" arabic-form="isolated" 
d="M881 803l-52 -1q37 55 73.5 94t71.5 60.5t67 21.5q37 0 58 -21.5t21 -56.5q0 -31 -25 -52.5t-78 -33t-136 -11.5zM726 802h-106v-100h262q110 0 185 21.5t113.5 66.5t38.5 113q0 76 -51.5 126t-131.5 50q-52 0 -98 -27t-89 -72v308h-95v-440q-7 -10 -13.5 -22t-14.5 -24z
M1088 0q128 0 237.5 14t192 56t128.5 124t46 218q0 62 -9.5 145.5t-27.5 161.5l-174 -44q15 -76 26 -153.5t11 -133.5q0 -77 -41 -119.5t-106 -60.5t-139.5 -22t-142.5 -4h-234q-145 0 -254 12.5t-181.5 44t-109.5 87.5t-37 144q0 45 10.5 95t26.5 94l-155 58
q-25 -61 -40.5 -127t-15.5 -135q0 -126 47.5 -213t142 -140.5t236 -77.5t330.5 -24h233z" />
    <glyph glyph-name="uniFB67" unicode="&#x679;" horiz-adv-x="1903" arabic-form="final" 
d="M892 806l-52 -1q37 55 73.5 94t71.5 60.5t67 21.5q37 0 58 -21.5t21 -56.5q0 -31 -25 -52.5t-78 -33t-136 -11.5zM737 805h-106v-100h262q110 0 185 21.5t113.5 66.5t38.5 113q0 76 -51.5 126t-131.5 50q-52 0 -98 -27t-89 -72v308h-95v-440q-7 -10 -13.5 -22t-14.5 -24z
M1515 591q4 -42 6.5 -89t2.5 -88q0 -88 -59 -138.5t-171.5 -72t-271.5 -21.5h-167q-145 0 -254 12.5t-181.5 44t-109.5 87.5t-37 144q0 45 10.5 95t26.5 94l-155 58q-25 -61 -40.5 -127t-15.5 -135q0 -126 47.5 -213t142 -140.5t236 -77.5t330.5 -24h167q230 0 359.5 41.5
t212.5 137.5q47 -94 119.5 -136.5t185.5 -42.5h24v182h-24q-97 0 -145.5 50t-54.5 145l-17 234z" />
    <glyph glyph-name="uniFB68" unicode="&#x679;" horiz-adv-x="604" arabic-form="initial" 
d="M-21 182v-182h48v182h-48zM245 975l-52 -1q37 55 73.5 94t71.5 60.5t67 21.5q37 0 58 -21.5t21 -56.5q0 -31 -25 -52.5t-78 -33t-136 -11.5zM90 974h-106v-100h262q110 0 185 21.5t113.5 66.5t38.5 113q0 76 -51.5 126t-131.5 50q-52 0 -98 -27t-89 -72v308h-95v-440
q-7 -10 -13.5 -22t-14.5 -24zM163 0q126 0 201 53.5t108 147.5t33 214q0 70 -10 147t-27 157l-174 -44q14 -75 26 -149t12 -139q0 -89 -35.5 -147t-135.5 -58h-161v-182h163z" />
    <glyph glyph-name="uniFB69" unicode="&#x679;" horiz-adv-x="691" arabic-form="medial" 
d="M-21 182v-182h48v182h-48zM247 883l-52 -1q37 55 73.5 94t71.5 60.5t67 21.5q37 0 58 -21.5t21 -56.5q0 -31 -25 -52.5t-78 -33t-136 -11.5zM92 882h-106v-100h262q110 0 185 21.5t113.5 66.5t38.5 113q0 76 -51.5 126t-131.5 50q-52 0 -98 -27t-89 -72v308h-95v-440
q-7 -10 -13.5 -22t-14.5 -24zM323 591q4 -43 6.5 -86t2.5 -91q0 -118 -54.5 -175t-181.5 -57h-96v-182h96q96 0 184 37t142 116q27 -49 65 -83t92 -52t128 -18h23v182h-21q-64 0 -107.5 22t-67.5 65.5t-28 107.5l-16 234z" />
    <glyph glyph-name="uniFB6A" unicode="&#x6a4;" horiz-adv-x="1775" arabic-form="isolated" 
d="M1278 1708l-135 -135l135 -135l135 135zM1449 1455l-135 -135l135 -135l135 135zM1107 1455l-135 -135l135 -135l135 135zM1321 531q-92 0 -141.5 23t-49.5 91q0 46 16.5 100t54 93t99.5 39q53 0 89 -29t59.5 -76t37 -102.5t19.5 -108.5q-47 -13 -92 -21.5t-92 -8.5z
M1516 390q0 -93 -30.5 -137.5t-100 -57.5t-187.5 -13h-343q-141 0 -249.5 12.5t-182.5 44t-112 87.5t-38 144q0 45 10.5 95t26.5 94l-155 58q-25 -61 -40.5 -127t-15.5 -135q0 -126 46.5 -213t140 -140.5t235.5 -77.5t334 -24h331q137 0 231 16.5t151 64t82.5 139
t25.5 240.5q0 113 -22 219.5t-67.5 191t-116 134.5t-168.5 50q-81 0 -143 -37.5t-104.5 -99t-64.5 -135t-22 -144.5q0 -140 85 -210t255 -70q58 0 108.5 8t99.5 23z" />
    <glyph glyph-name="uniFB6B" unicode="&#x6a4;" horiz-adv-x="1903" arabic-form="final" 
d="M1420 1482l-135 -135l135 -135l135 135zM1591 1229l-135 -135l135 -135l135 135zM1249 1229l-135 -135l135 -135l135 135zM1424 657q40 0 83 -29t72.5 -72t29.5 -85q0 -47 -24.5 -96t-66 -88.5t-92.5 -61.5q-43 22 -84.5 62t-68.5 88t-27 94q0 45 28.5 88t70 71.5
t79.5 28.5zM855 182q-145 0 -254 12.5t-181.5 44t-109.5 87.5t-37 144q0 45 10.5 95t26.5 94l-155 58q-25 -61 -40.5 -127t-15.5 -135q0 -126 47.5 -213t142 -140.5t236 -77.5t330.5 -24h86q31 0 87.5 3.5t126 11.5t140 22t128.5 35q77 -27 156 -43t145 -22.5t104 -6.5h95
v182h-97h-50t-58.5 1t-69.5 3q41 47 70 92.5t45 92.5t16 100q0 63 -29 127t-78.5 117.5t-113.5 86t-134 32.5q-67 0 -130 -32.5t-112 -86.5t-78 -117t-29 -125q0 -52 15.5 -100t44 -93.5t68.5 -92.5q-31 -2 -72.5 -3t-82 -1.5t-70 -0.5h-35.5h-88z" />
    <glyph glyph-name="uniFB6C" unicode="&#x6a4;" horiz-adv-x="936" arabic-form="initial" 
d="M483 532q-93 0 -142.5 22.5t-49.5 91.5q0 46 16.5 100t54 93t99.5 39q53 0 89 -29t59.5 -76t37 -102.5t19.5 -108.5q-46 -13 -91.5 -21.5t-91.5 -8.5zM360 182h-380v-182h368q134 0 227 17t151 64.5t84.5 139t26.5 240.5q0 113 -22 219.5t-67.5 191t-116 134.5t-168.5 50
q-107 0 -182 -64.5t-113.5 -160.5t-38.5 -192q0 -139 85.5 -209t254.5 -70q58 0 108.5 8t99.5 23q0 -94 -32.5 -138.5t-102 -57.5t-182.5 -13zM440 1708l-135 -135l135 -135l135 135zM611 1455l-135 -135l135 -135l135 135zM269 1455l-135 -135l135 -135l135 135z" />
    <glyph glyph-name="uniFB6D" unicode="&#x6a4;" horiz-adv-x="1019" arabic-form="medial" 
d="M539 1482l-135 -135l135 -135l135 135zM710 1229l-135 -135l135 -135l135 135zM368 1229l-135 -135l135 -135l135 135zM539 657q40 0 83 -29t72.5 -72t29.5 -85q0 -47 -24.5 -96t-66 -88.5t-92.5 -61.5q-43 22 -84.5 62t-68.5 88t-27 94q0 45 28.5 88t70 71.5t79.5 28.5z
M894 471q0 63 -29 127t-78.5 117.5t-113.5 86t-134 32.5q-67 0 -130 -32.5t-112 -86.5t-78 -117t-29 -125q0 -52 15.5 -100t44 -93.5t68.5 -92.5q-43 -2 -77.5 -3.5t-63.5 -1.5h-57h-140v-182h140q41 0 110 6.5t150 22t158 43.5q77 -27 156.5 -43t146 -22.5t104.5 -6.5h94
v182h-97h-50t-59 1t-70 3q41 47 70 92.5t45 92.5t16 100z" />
    <glyph glyph-name="uniFB7A" unicode="&#x686;" horiz-adv-x="1370" arabic-form="isolated" 
d="M1249 611q-80 3 -167 29.5t-173.5 65t-167 76t-148.5 62.5t-118 25q-118 0 -207.5 -60t-161.5 -176l-15 -24l153 -75l27 34q46 58 94 89.5t109 31.5q24 0 83.5 -21.5t139 -53.5t161.5 -66q-190 -42 -332.5 -113.5t-237 -166t-141.5 -207t-47 -236.5q0 -134 49.5 -231.5
t139.5 -160.5t211.5 -93.5t265.5 -30.5q139 0 273.5 25.5t239.5 74.5l-45 167q-103 -48 -221.5 -70.5t-231.5 -22.5q-171 0 -285 39.5t-170.5 117.5t-56.5 194q0 96 46 181t132.5 156.5t207 126.5t271 91t323.5 50v172zM815 -108l-135 -135l135 -135l135 135zM986 145
l-135 -135l135 -135l135 135zM644 145l-135 -135l135 -135l135 135z" />
    <glyph glyph-name="uniFB7B" unicode="&#x686;" horiz-adv-x="1409" arabic-form="final" 
d="M100 -175q0 -134 49.5 -231.5t139.5 -160.5t211.5 -93.5t265.5 -30.5q139 0 273.5 25.5t239.5 74.5l-45 167q-103 -48 -221.5 -70.5t-231.5 -22.5q-171 0 -285 39.5t-170.5 117.5t-56.5 194q0 80 36 159t111 151.5t192 133.5t278 104q0 -153 51.5 -236t155 -114.5
t258.5 -31.5h78v182h-81q-102 0 -173 13t-107.5 61.5t-36.5 154.5q49 10 106 17t112 11v172q-80 3 -167 29.5t-173.5 65t-167 76t-148.5 62.5t-118 25q-118 0 -210.5 -64.5t-158.5 -171.5l-15 -24l153 -75l27 34q39 50 90.5 85.5t112.5 35.5q24 0 83.5 -21.5t139 -53.5
t161.5 -66q-190 -42 -332.5 -113.5t-237 -166t-141.5 -207t-47 -236.5zM680 -165l-121 -121l121 -122l122 122zM834 63l-122 -122l122 -121l121 121zM526 63l-121 -122l121 -121l122 121z" />
    <glyph glyph-name="uniFB7C" unicode="&#x686;" horiz-adv-x="1372" arabic-form="initial" 
d="M666 -379l-135 -135l135 -135l135 135zM837 -126l-135 -135l135 -135l135 135zM495 -126l-135 -135l135 -135l135 135zM-20 182v-182h167q141 0 254.5 24.5t223 72t237.5 115.5q106 56 185 92t137 54.5t100 23.5v173q-80 3 -168 29.5t-176 65t-170 76t-151 62.5t-119 25
q-118 0 -205.5 -64.5t-153.5 -171.5l-15 -24l153 -75l27 34q39 50 85.5 85.5t107.5 35.5q21 0 72 -17.5t119.5 -44.5t144.5 -57.5t147 -56.5q-127 -58 -229.5 -108.5t-196 -87.5t-191.5 -58t-215 -21h-170z" />
    <glyph glyph-name="uniFB7D" unicode="&#x686;" horiz-adv-x="1396" arabic-form="medial" 
d="M666 -379l-135 -135l135 -135l135 135zM837 -126l-135 -135l135 -135l135 135zM495 -126l-135 -135l135 -135l135 135zM1284 555q-80 3 -168 29.5t-176 65t-170 76t-151 62.5t-119 25q-118 0 -205.5 -64.5t-153.5 -171.5l-15 -24l153 -75l27 34q39 50 85.5 85.5
t107.5 35.5q21 0 72 -17.5t119.5 -44.5t144.5 -57.5t147 -56.5q-127 -58 -229.5 -108.5t-196 -87.5t-191.5 -58t-215 -21h-170v-182h167q143 0 271.5 32t254 88t257.5 128q14 -93 62.5 -147.5t138.5 -77.5t226 -23h59v182h-55q-95 0 -162 9.5t-102.5 37.5t-36.5 83
q65 31 123 48.5t101 21.5v173z" />
    <glyph glyph-name="uniFB88" unicode="&#x688;" horiz-adv-x="980" arabic-form="isolated" 
d="M394 1210l-52 -1q37 55 73.5 94t71.5 60.5t67 21.5q37 0 58 -21.5t21 -56.5q0 -31 -25 -52.5t-78 -33t-136 -11.5zM239 1209h-106v-100h262q110 0 185 21.5t113.5 66.5t38.5 113q0 76 -51.5 126t-131.5 50q-52 0 -98 -27t-89 -72v308h-95v-440q-7 -10 -13.5 -22
t-14.5 -24zM326 180q-49 0 -105.5 7t-121.5 20v-181q54 -12 115.5 -18t126.5 -6q188 0 307 42.5t176 127.5t57 210q0 79 -31 154.5t-93.5 148.5t-158 142t-223.5 135l-79 -158q148 -81 239 -154.5t133 -140.5t42 -130q0 -66 -42 -110t-127 -66.5t-215 -22.5z" />
    <glyph glyph-name="uniFB89" unicode="&#x688;" horiz-adv-x="1089" arabic-form="final" 
d="M442 1250l-52 -1q37 55 73.5 94t71.5 60.5t67 21.5q37 0 58 -21.5t21 -56.5q0 -31 -25 -52.5t-78 -33t-136 -11.5zM287 1249h-106v-100h262q110 0 185 21.5t113.5 66.5t38.5 113q0 76 -51.5 126t-131.5 50q-52 0 -98 -27t-89 -72v308h-95v-440q-7 -10 -13.5 -22
t-14.5 -24zM675 364q0 -60 -39.5 -101t-119 -62t-200.5 -21q-51 0 -103.5 6.5t-113.5 20.5v-181q50 -12 106 -18.5t126 -6.5q108 0 191.5 18t147 56t110.5 97q37 -58 73 -96t85.5 -57t128.5 -19h42v182h-42q-43 0 -76.5 21.5t-68 79.5t-80.5 166l-227 534l-156 -73l177 -401
q16 -36 27.5 -77.5t11.5 -67.5z" />
    <glyph glyph-name="uniFB8A" unicode="&#x698;" horiz-adv-x="701" arabic-form="isolated" 
d="M389 1221l-135 -135l135 -135l135 135zM560 968l-135 -135l135 -135l135 135zM218 968l-135 -135l135 -135l135 135zM47 -538q191 37 313.5 136.5t181 242t58.5 309.5q0 95 -18.5 195t-53.5 200l-166 -56q33 -97 51.5 -190.5t18.5 -178.5q0 -121 -43.5 -221
t-140.5 -171.5t-260 -106.5z" />
    <glyph glyph-name="uniFB8B" unicode="&#x698;" horiz-adv-x="791" arabic-form="final" 
d="M389 1221l-135 -135l135 -135l135 135zM560 968l-135 -135l135 -135l135 135zM218 968l-135 -135l135 -135l135 135zM784 0h27v182h-38q-73 0 -121 35t-70 119l-54 209l-166 -56q33 -97 51.5 -190.5t18.5 -178.5q0 -121 -43.5 -221t-140.5 -171.5t-260 -106.5l59 -158
q189 37 304 128t172.5 213.5t72.5 253.5q26 -21 72.5 -39.5t115.5 -18.5z" />
    <glyph glyph-name="uniFB8C" unicode="&#x691;" horiz-adv-x="701" arabic-form="isolated" 
d="M346 822l-52 -1q37 55 73.5 94t71.5 60.5t67 21.5q37 0 58 -21.5t21 -56.5q0 -31 -25 -52.5t-78 -33t-136 -11.5zM191 821h-106v-100h262q110 0 185 21.5t113.5 66.5t38.5 113q0 76 -51.5 126t-131.5 50q-52 0 -98 -27t-89 -72v308h-95v-440q-7 -10 -13.5 -22t-14.5 -24z
M47 -538q191 37 313.5 136.5t181 242t58.5 309.5q0 95 -18.5 195t-53.5 200l-166 -56q33 -97 51.5 -190.5t18.5 -178.5q0 -121 -43.5 -221t-140.5 -171.5t-260 -106.5z" />
    <glyph glyph-name="uniFB8D" unicode="&#x691;" horiz-adv-x="791" arabic-form="final" 
d="M346 822l-52 -1q37 55 73.5 94t71.5 60.5t67 21.5q37 0 58 -21.5t21 -56.5q0 -31 -25 -52.5t-78 -33t-136 -11.5zM191 821h-106v-100h262q110 0 185 21.5t113.5 66.5t38.5 113q0 76 -51.5 126t-131.5 50q-52 0 -98 -27t-89 -72v308h-95v-440q-7 -10 -13.5 -22t-14.5 -24z
M784 0h27v182h-38q-73 0 -121 35t-70 119l-54 209l-166 -56q33 -97 51.5 -190.5t18.5 -178.5q0 -121 -43.5 -221t-140.5 -171.5t-260 -106.5l59 -158q189 37 304 128t172.5 213.5t72.5 253.5q26 -21 72.5 -39.5t115.5 -18.5z" />
    <glyph glyph-name="uniFB8E" unicode="&#x6a9;" horiz-adv-x="1793" arabic-form="isolated" 
d="M1108 0q186 0 304 36t174.5 113t56.5 201q0 78 -33.5 149t-90 135.5t-126.5 122.5t-145 111t-144 102l629 255v177l-719 -292q-48 -19 -70.5 -55t-22.5 -77q0 -36 17 -71t49 -61q59 -47 125.5 -94.5t129.5 -95.5t114.5 -97.5t82 -100.5t30.5 -104q0 -68 -36.5 -105.5
t-116 -52t-209.5 -14.5h-252q-145 0 -254 12.5t-181.5 44t-109.5 87.5t-37 144q0 45 10.5 95t26.5 94l-155 58q-25 -61 -40.5 -127t-15.5 -135q0 -126 47.5 -213t142 -140.5t236.5 -77.5t330 -24h253z" />
    <glyph glyph-name="uniFB8F" unicode="&#x6a9;" horiz-adv-x="1929" arabic-form="final" 
d="M1107 0q147 0 239.5 20.5t150 60.5t97.5 99q61 -94 138.5 -137t188.5 -43h27l1 182h-27q-71 0 -120 26t-85.5 80.5t-72.5 140.5q-30 72 -72.5 133.5t-95 114.5t-113 102t-126 95.5t-133.5 95.5l629 255v177l-719 -292q-48 -19 -71 -55.5t-23 -77.5q0 -36 17 -70.5
t49 -60.5q59 -47 125.5 -94.5t129.5 -95.5t114.5 -97.5t82 -100.5t30.5 -104q0 -68 -36.5 -105.5t-116 -52t-209.5 -14.5h-254q-144 0 -252.5 12.5t-181 44t-109 88t-36.5 144.5q0 45 10.5 95t26.5 93l-155 58q-25 -61 -40.5 -127t-15.5 -135q0 -126 47 -213t141 -140.5
t235.5 -77.5t329.5 -24h255z" />
    <glyph glyph-name="uniFB90" unicode="&#x6a9;" horiz-adv-x="909" arabic-form="initial" 
d="M220 970l629 255v177l-719 -292q-48 -19 -70.5 -55.5t-22.5 -77.5q0 -35 17 -70t49 -61q59 -47 125.5 -94.5t129.5 -95.5t114.5 -97.5t82 -100.5t30.5 -104q0 -68 -36.5 -105.5t-116 -52t-209.5 -14.5h-243v-182h244q186 0 304 36t174.5 113t56.5 201q0 78 -33 149
t-89.5 135.5t-126.5 122.5t-145 111t-145 102z" />
    <glyph glyph-name="uniFB91" unicode="&#x6a9;" horiz-adv-x="1046" arabic-form="medial" 
d="M220 970l629 255v177l-719 -292q-48 -19 -70.5 -55t-22.5 -77q0 -36 17 -71t49 -61q59 -47 125.5 -94.5t129.5 -95.5t114.5 -97.5t82 -100.5t30.5 -104q0 -68 -36.5 -105.5t-116 -52t-209.5 -14.5h-243v-182h244q147 0 239.5 20.5t150 60.5t97.5 99q61 -94 138.5 -137
t188.5 -43h28v182h-28q-71 0 -120 26t-85.5 80.5t-72.5 140.5q-30 72 -72.5 133.5t-95 115t-113 102t-126 95.5t-133.5 95z" />
    <glyph glyph-name="uniFB92" unicode="&#x6af;" horiz-adv-x="1793" arabic-form="isolated" 
d="M966 1211l760 308v110l-760 -308v-110zM1108 0q186 0 304 36t174.5 113t56.5 201q0 78 -33.5 149t-90 135.5t-126.5 122.5t-145 111t-144 102l629 255v177l-719 -292q-48 -19 -70.5 -55t-22.5 -77q0 -36 17 -71t49 -61q59 -47 125.5 -94.5t129.5 -95.5t114.5 -97.5
t82 -100.5t30.5 -104q0 -68 -36.5 -105.5t-116 -52t-209.5 -14.5h-252q-145 0 -254 12.5t-181.5 44t-109.5 87.5t-37 144q0 45 10.5 95t26.5 94l-155 58q-25 -61 -40.5 -127t-15.5 -135q0 -126 47.5 -213t142 -140.5t236.5 -77.5t330 -24h253z" />
    <glyph glyph-name="uniFB93" unicode="&#x6af;" horiz-adv-x="1929" arabic-form="final" 
d="M966 1211l760 308v110l-760 -308v-110zM1107 0q147 0 239.5 20.5t150 60.5t97.5 99q61 -94 138.5 -137t188.5 -43h27l1 182h-27q-71 0 -120 26t-85.5 80.5t-72.5 140.5q-30 72 -72.5 133.5t-95 114.5t-113 102t-126 95.5t-133.5 95.5l629 255v177l-719 -292
q-48 -19 -71 -55.5t-23 -77.5q0 -36 17 -70.5t49 -60.5q59 -47 125.5 -94.5t129.5 -95.5t114.5 -97.5t82 -100.5t30.5 -104q0 -68 -36.5 -105.5t-116 -52t-209.5 -14.5h-254q-144 0 -252.5 12.5t-181 44t-109 88t-36.5 144.5q0 45 10.5 95t26.5 93l-155 58
q-25 -61 -40.5 -127t-15.5 -135q0 -126 47 -213t141 -140.5t235.5 -77.5t329.5 -24h255z" />
    <glyph glyph-name="uniFB94" unicode="&#x6af;" horiz-adv-x="909" arabic-form="initial" 
d="M82 1211l760 308v110l-760 -308v-110zM220 970l629 255v177l-719 -292q-48 -19 -70.5 -55.5t-22.5 -77.5q0 -35 17 -70t49 -61q59 -47 125.5 -94.5t129.5 -95.5t114.5 -97.5t82 -100.5t30.5 -104q0 -68 -36.5 -105.5t-116 -52t-209.5 -14.5h-243v-182h244q186 0 304 36
t174.5 113t56.5 201q0 78 -33 149t-89.5 135.5t-126.5 122.5t-145 111t-145 102z" />
    <glyph glyph-name="uniFB95" unicode="&#x6af;" horiz-adv-x="1046" arabic-form="medial" 
d="M82 1211l760 308v110l-760 -308v-110zM220 970l629 255v177l-719 -292q-48 -19 -70.5 -55t-22.5 -77q0 -36 17 -71t49 -61q59 -47 125.5 -94.5t129.5 -95.5t114.5 -97.5t82 -100.5t30.5 -104q0 -68 -36.5 -105.5t-116 -52t-209.5 -14.5h-243v-182h244q147 0 239.5 20.5
t150 60.5t97.5 99q61 -94 138.5 -137t188.5 -43h28v182h-28q-71 0 -120 26t-85.5 80.5t-72.5 140.5q-30 72 -72.5 133.5t-95 115t-113 102t-126 95.5t-133.5 95z" />
    <glyph glyph-name="uniFB9E" unicode="&#x6ba;" horiz-adv-x="1386" arabic-form="isolated" 
d="M689 -262q-159 0 -250 53t-129.5 142t-38.5 197q0 91 20 188t49 189l-159 64q-38 -106 -60 -217.5t-22 -217.5q0 -157 57.5 -288.5t187 -210.5t345.5 -79q209 0 341 74t194.5 205t62.5 300q0 110 -24.5 231.5t-71.5 250.5l-171 -69q28 -74 60 -190t32 -235
q0 -101 -36.5 -189.5t-128 -143t-258.5 -54.5z" />
    <glyph glyph-name="uniFB9F" unicode="&#x6ba;" horiz-adv-x="1477" arabic-form="final" 
d="M689 -335q-159 0 -250 53t-129.5 142t-38.5 197q0 91 20 188t49 189l-159 64q-38 -106 -60 -217.5t-22 -217.5q0 -157 57.5 -288.5t187 -210.5t345.5 -79q208 0 339.5 73t194.5 202.5t64 296.5q32 -31 68.5 -44t106.5 -13h35v182h-39q-82 0 -127.5 33t-65.5 97l-74 234
l-171 -69q28 -74 60 -190t32 -235q0 -101 -36.5 -189.5t-128 -143t-258.5 -54.5z" />
    <glyph glyph-name="uniFBA7" unicode="&#x6c1;" horiz-adv-x="957" arabic-form="final" 
d="M500 422q21 0 36.5 -17t29 -45t27.5 -62q28 -63 67 -132t107 -117.5t179 -48.5h31v182h-32q-59 0 -97.5 31.5t-64.5 81t-50 102.5q-25 58 -53.5 110.5t-71.5 86.5t-111 34q-61 0 -125.5 -46.5t-122 -129.5t-97.5 -194.5t-53 -241.5l148 -36q14 101 42 182.5t65 139.5
t75 89t71 31z" />
    <glyph glyph-name="uniFBA8" unicode="&#x6c1;" horiz-adv-x="584" arabic-form="initial" 
d="M382 -217l-51 41q-77 -59 -125.5 -138.5t-48.5 -181.5q0 -56 26.5 -89t85.5 -33q47 0 70.5 27t23.5 73t-20.5 69.5t-73.5 23.5q0 67 30.5 113.5t82.5 94.5zM143 0q126 0 201 53.5t108 147.5t33 214q0 70 -10 147t-27 157l-174 -44q14 -75 26 -149t12 -139
q0 -89 -35.5 -147t-135.5 -58h-161v-182h163z" />
    <glyph glyph-name="uniFBA9" unicode="&#x6c1;" horiz-adv-x="1020" arabic-form="medial" 
d="M736 -320q0 116 30 186.5t90 102t149 31.5h35v182h-33q-106 0 -185.5 -31t-131.5 -93.5t-78 -155.5t-26 -217q-58 45 -96.5 96.5t-57.5 110t-19 124.5q0 44 17 84t45 75.5t61 64.5l-112 124q-53 -53 -106 -94t-117.5 -64.5t-152.5 -23.5h-68v-182h66q53 0 104 11.5
t106 37.5q0 -140 45.5 -249t127 -192t187.5 -144l124 121q-2 24 -3 48.5t-1 46.5z" />
    <glyph glyph-name="uniFBAA" unicode="&#x6be;" horiz-adv-x="1545" arabic-form="isolated" 
d="M48 182l49 -182h26v182h-75zM457 457q0 80 54 128t140 48q49 0 89.5 -20.5t65 -60t24.5 -97.5q0 -44 -20 -82.5t-59.5 -70.5t-100.5 -57q-63 24 -106 58.5t-65 74.5t-22 79zM657 812q92 -43 181.5 -89t168 -93.5t138.5 -94t94.5 -90t34.5 -81.5q0 -96 -63.5 -141.5
t-184.5 -45.5q-40 0 -92 4.5t-96 9.5q47 38 79.5 79.5t49.5 91.5t17 112q0 85 -48 156.5t-126.5 115.5t-168.5 44q-96 0 -177 -40.5t-130 -115.5t-49 -179q0 -47 13.5 -93t42 -88t74.5 -79q-60 -7 -110.5 -10t-116.5 -3h-86v-182h99q109 0 226 24.5t204 56.5
q48 -16 118 -32.5t148 -27.5t147 -11q184 0 293.5 90t109.5 267q0 72 -44 140.5t-132 139.5t-221.5 148t-313.5 165z" />
    <glyph glyph-name="uniFBAB" unicode="&#x6be;" horiz-adv-x="1144" arabic-form="final" 
d="M50 182l49 -182h26v182h-75zM104 0h221q22 -113 76.5 -214t140 -183t198.5 -139l124 121q-2 24 -3 48.5t-1 46.5q0 87 17 148t50.5 99t84 55.5t117.5 17.5h35v182h-33q-106 0 -185.5 -31.5t-131.5 -93.5t-78 -155.5t-26 -217.5q-58 38 -104 90.5t-77 110.5t-45 114
q90 0 172 44t146 118t101 164t37 183q0 96 -32.5 168t-93 112.5t-145.5 40.5q-98 0 -166.5 -57t-110.5 -150.5t-61.5 -204t-19.5 -217.5v-18h-207v-182zM667 653q50 0 81.5 -37t31.5 -108q0 -88 -41 -162.5t-110 -119.5t-153 -45v20q0 95 13 177.5t37.5 144t60 96t80.5 34.5
z" />
    <glyph glyph-name="uniFBAC" unicode="&#x6be;" horiz-adv-x="1423" arabic-form="initial" 
d="M335 457q0 80 54 128t140 48q49 0 89.5 -20.5t65 -60t24.5 -97.5q0 -44 -20 -82.5t-59.5 -70.5t-100.5 -57q-63 24 -106 58.5t-65 74.5t-22 79zM535 812q92 -43 181.5 -89t168 -93.5t138.5 -94t94.5 -90t34.5 -81.5q0 -96 -63.5 -141.5t-184.5 -45.5q-40 0 -92 4.5
t-96 9.5q47 38 79.5 79.5t49.5 91.5t17 112q0 85 -48 156.5t-126.5 115.5t-168.5 44q-96 0 -177 -40.5t-130 -115.5t-49 -179q0 -47 13.5 -93t42 -88t74.5 -79q-60 -7 -110.5 -10t-116.5 -3h-86v-182h99q109 0 226 24.5t204 56.5q48 -16 118 -32.5t148 -27.5t147 -11
q184 0 293.5 90t109.5 267q0 72 -44 140.5t-132 139.5t-221.5 148t-313.5 165z" />
    <glyph glyph-name="uniFBAD" unicode="&#x6be;" horiz-adv-x="1020" arabic-form="medial" 
d="M-20 0h221q22 -113 76.5 -214t140 -183t198.5 -139l124 121q-2 24 -3 48.5t-1 46.5q0 87 17 148t50.5 99t84 55.5t117.5 17.5h35v182h-33q-106 0 -185.5 -31.5t-131.5 -93.5t-78 -155.5t-26 -217.5q-58 38 -104 90.5t-77 110.5t-45 114q90 0 172 44t146 118t101 164
t37 183q0 96 -32.5 168t-93 112.5t-145.5 40.5q-98 0 -166.5 -57t-110.5 -150.5t-61.5 -204t-19.5 -217.5v-18h-207v-182zM543 653q50 0 81.5 -37t31.5 -108q0 -88 -41 -162.5t-110 -119.5t-153 -45v20q0 95 13 177.5t37.5 144t60 96t80.5 34.5z" />
    <glyph glyph-name="uniFBAE" unicode="&#x6d2;" horiz-adv-x="1817" arabic-form="isolated" 
d="M841 172q-51 0 -123 3t-149 11t-144 23t-108.5 40t-41.5 61q0 27 30 55t72.5 62t79.5 79q38 46 60.5 79t43.5 66.5t52 79.5q58 -44 111.5 -119.5t99.5 -135.5l119 105q-15 28 -52.5 81.5t-86 110.5t-101 96.5t-97.5 39.5q-40 0 -74.5 -30t-65 -75t-58.5 -92.5t-55 -82.5
q-31 -40 -74 -76.5t-84 -75t-68.5 -83t-27.5 -100.5q0 -76 45 -127.5t121.5 -84.5t172.5 -50.5t200.5 -24t204.5 -6.5q296 0 523 22.5t352 38.5l-7 180q-91 -13 -220 -29.5t-292 -28.5t-358 -12z" />
    <glyph glyph-name="uniFBAF" unicode="&#x6d2;" horiz-adv-x="1648" arabic-form="final" 
d="M1261 182v-182h407v182h-407zM841 -320q-63 0 -139 4.5t-151 15t-137.5 26.5t-100.5 39t-38 53q0 17 34 46.5t92.5 61t131 53t149.5 21.5h597v182h-593q-110 0 -215 -36.5t-189 -94.5t-133.5 -124.5t-49.5 -126.5q0 -76 45 -127.5t121.5 -84t172.5 -50t200.5 -24
t204.5 -6.5q143 0 254 11t199 27.5t160 34.5l-37 169q-29 -9 -76.5 -20.5t-117 -23t-164.5 -19t-220 -7.5z" />
    <glyph glyph-name="uniFBB0" unicode="&#x6d3;" horiz-adv-x="1817" arabic-form="isolated" 
d="M556 1155l-110 -43l14 -98l381 151l-14 99l-132 -48q-3 -1 -5.5 -2t-4.5 -1q-56 -8 -86.5 21.5t-31.5 60.5q0 50 36.5 76t79.5 26q23 0 50 -4t58 -20l-1 99q-28 17 -57.5 24.5t-63.5 7.5q-76 0 -135.5 -55t-59.5 -141q0 -59 24 -93t58 -60zM841 172q-51 0 -123 3t-149 11
t-144 23t-108.5 40t-41.5 61q0 27 30 55t72.5 62t79.5 79q38 46 60.5 79t43.5 66.5t52 79.5q58 -44 111.5 -119.5t99.5 -135.5l119 105q-15 28 -52.5 81.5t-86 110.5t-101 96.5t-97.5 39.5q-40 0 -74.5 -30t-65 -75t-58.5 -92.5t-55 -82.5q-31 -40 -74 -76.5t-84 -75
t-68.5 -83t-27.5 -100.5q0 -76 45 -127.5t121.5 -84.5t172.5 -50.5t200.5 -24t204.5 -6.5q296 0 523 22.5t352 38.5l-7 180q-91 -13 -220 -29.5t-292 -28.5t-358 -12z" />
    <glyph glyph-name="uniFBB1" unicode="&#x6d3;" horiz-adv-x="1644" arabic-form="final" 
d="M1257 182v-182h407v182h-407zM582 459l-110 -43l14 -98l381 151l-14 99l-132 -48q-3 -1 -5.5 -2t-4.5 -1q-56 -8 -86.5 21.5t-31.5 60.5q0 50 36.5 76t79.5 26q23 0 50 -4t58 -20l-1 99q-28 17 -57.5 24.5t-63.5 7.5q-76 0 -135.5 -55t-59.5 -141q0 -59 24 -93t58 -60z
M837 -320q-63 0 -139 4.5t-151 15t-137.5 26.5t-100.5 39t-38 53q0 17 34 46.5t92.5 61t131 53t149.5 21.5h597v182h-593q-110 0 -215 -36.5t-189 -94.5t-133.5 -124.5t-49.5 -126.5q0 -76 45 -127.5t121.5 -84t172.5 -50t200.5 -24t204.5 -6.5q143 0 254 11t199 27.5
t160 34.5l-37 169q-29 -9 -76.5 -20.5t-117 -23t-164.5 -19t-220 -7.5z" />
    <glyph glyph-name="uniFBD3" unicode="&#x6ad;" horiz-adv-x="1804" arabic-form="isolated" 
d="M855 182q-145 0 -254 12.5t-181.5 44t-109.5 87.5t-37 144q0 45 10.5 95t26.5 94l-155 58q-25 -61 -40.5 -127t-15.5 -135q0 -126 47.5 -213t142 -140.5t236.5 -77.5t330 -24h165q216 0 343 31t189 93t80.5 155t18.5 217v881h-169v-884q0 -76 -9 -134.5t-50.5 -97.5
t-138 -59t-271.5 -20h-158zM707 610v-111q38 -6 77.5 -9.5t78.5 -3.5q67 0 125.5 14.5t94.5 51t36 102.5q0 26 -7 45.5t-20 34.5q-25 31 -65.5 47.5t-81.5 25t-69 17t-28 25.5q0 22 25.5 42t64.5 35.5t80 24t72 8.5l-7 118q-43 0 -100.5 -14t-113 -42.5t-91.5 -72.5
t-36 -106q0 -49 27.5 -77.5t68.5 -43.5t82 -24t69 -18.5t28 -28.5q0 -32 -46 -43.5t-104 -11.5q-45 0 -88.5 4.5t-71.5 10.5zM918 1699l-135 -135l135 -135l135 135zM1089 1446l-135 -135l135 -135l135 135zM747 1446l-135 -135l135 -135l135 135z" />
    <glyph glyph-name="uniFBD4" unicode="&#x6ad;" horiz-adv-x="1863" arabic-form="final" 
d="M922 1699l-135 -135l135 -135l135 135zM1093 1446l-135 -135l135 -135l135 135zM751 1446l-135 -135l135 -135l135 135zM855 182q-145 0 -254 12.5t-181.5 44t-109.5 87.5t-37 144q0 45 10.5 95t26.5 94l-155 58q-25 -61 -40.5 -127t-15.5 -135q0 -126 47.5 -213
t142 -140.5t236.5 -77.5t330 -24h165q134 0 232.5 13.5t172 48.5t132.5 99q29 -80 97 -120.5t193 -40.5h36v182h-38q-89 0 -130.5 36t-52.5 106t-11 172v881h-169v-884q0 -76 -9 -134.5t-50.5 -97.5t-138 -59t-271.5 -20h-158zM707 610v-111q38 -6 77.5 -9.5t78.5 -3.5
q67 0 125.5 14.5t94.5 51t36 102.5q0 26 -7 45.5t-20 34.5q-25 31 -65.5 47.5t-81.5 25t-69 17t-28 25.5q0 22 25.5 42t64.5 35.5t80 24t72 8.5l-7 118q-43 0 -100.5 -14t-113 -42.5t-91.5 -72.5t-36 -106q0 -49 27.5 -77.5t68.5 -43.5t82 -24t69 -18.5t28 -28.5
q0 -32 -46 -43.5t-104 -11.5q-45 0 -88.5 4.5t-71.5 10.5z" />
    <glyph glyph-name="uniFBD5" unicode="&#x6ad;" horiz-adv-x="909" arabic-form="initial" 
d="M409 1916l-135 -135l135 -135l135 135zM580 1663l-135 -135l135 -135l135 135zM238 1663l-135 -135l135 -135l135 135zM220 970l629 255v177l-719 -292q-48 -19 -70.5 -55.5t-22.5 -77.5q0 -35 17 -70t49 -61q59 -47 125.5 -94.5t129.5 -95.5t114.5 -97.5t82 -100.5
t30.5 -104q0 -68 -36.5 -105.5t-116 -52t-209.5 -14.5h-243v-182h244q186 0 304 36t174.5 113t56.5 201q0 78 -33 149t-89.5 135.5t-126.5 122.5t-145 111t-145 102z" />
    <glyph glyph-name="uniFBD6" unicode="&#x6ad;" horiz-adv-x="1046" arabic-form="medial" 
d="M409 1916l-135 -135l135 -135l135 135zM580 1663l-135 -135l135 -135l135 135zM238 1663l-135 -135l135 -135l135 135zM220 970l629 255v177l-719 -292q-48 -19 -70.5 -55t-22.5 -77q0 -36 17 -71t49 -61q59 -47 125.5 -94.5t129.5 -95.5t114.5 -97.5t82 -100.5
t30.5 -104q0 -68 -36.5 -105.5t-116 -52t-209.5 -14.5h-243v-182h244q147 0 239.5 20.5t150 60.5t97.5 99q61 -94 138.5 -137t188.5 -43h28v182h-28q-71 0 -120 26t-85.5 80.5t-72.5 140.5q-30 72 -72.5 133.5t-95 115t-113 102t-126 95.5t-133.5 95z" />
    <glyph glyph-name="uniFBD7" unicode="&#x6c7;" horiz-adv-x="910" arabic-form="isolated" 
d="M648 1009l8 67q-16 2 -25 3t-19 2q13 32 20 62.5t7 60.5q0 74 -47 119.5t-118 45.5t-118 -48.5t-47 -115.5q0 -57 27.5 -94t71 -56t89.5 -23q-36 -38 -113 -62.5t-177 -33.5l13 -77q125 7 216.5 47t140.5 109l35 -3.5t36 -2.5zM532 1097q-38 9 -70.5 20t-52 30.5
t-19.5 53.5q0 32 24.5 59t63.5 27q34 0 57.5 -23t23.5 -61q0 -24 -8 -52.5t-19 -53.5zM811 171q0 106 -23 206t-69 180t-116.5 127t-165.5 47q-80 0 -143 -38t-106.5 -100.5t-66 -137t-22.5 -148.5q0 -156 92.5 -233t272.5 -77q38 0 88 9t88 21q-16 -103 -83 -183.5
t-179.5 -135.5t-266.5 -85l59 -159q213 41 355.5 133.5t214 236t71.5 337.5zM469 178q-102 0 -152 31t-50 104q0 45 14.5 100.5t51 96.5t102.5 41q48 0 84.5 -22.5t62.5 -67t41.5 -109t20.5 -148.5q-43 -13 -88 -19.5t-87 -6.5z" />
    <glyph glyph-name="uniFBD8" unicode="&#x6c7;" horiz-adv-x="911" arabic-form="final" 
d="M648 1009l8 67q-16 2 -25 3t-19 2q13 32 20 62.5t7 60.5q0 74 -47 119.5t-118 45.5t-118 -48.5t-47 -115.5q0 -57 27.5 -94t71 -56t89.5 -23q-36 -38 -113 -62.5t-177 -33.5l13 -77q125 7 216.5 47t140.5 109l35 -3.5t36 -2.5zM532 1097q-38 9 -70.5 20t-52 30.5
t-19.5 53.5q0 32 24.5 59t63.5 27q34 0 57.5 -23t23.5 -61q0 -24 -8 -52.5t-19 -53.5zM436 731q-80 0 -142.5 -38t-106 -100.5t-66 -137t-22.5 -148.5q0 -154 94.5 -230.5t284.5 -76.5h158q-24 -98 -90.5 -172t-175 -125t-259.5 -80l59 -159q213 41 342 123.5t194.5 190
t87.5 222.5h137v182h-121q-2 135 -31 237.5t-80 172t-118 104.5t-145 35zM468 182q-106 0 -153.5 30.5t-47.5 100.5q0 45 14.5 100.5t51 96.5t100.5 41q48 0 85 -21.5t63 -66.5t42 -115t22 -166h-177z" />
    <glyph glyph-name="uniFBD9" unicode="&#x6c6;" horiz-adv-x="910" arabic-form="isolated" 
d="M386 918h105l153 312l-81 40l-125 -254l-124 254l-82 -40zM811 171q0 106 -23 206t-69 180t-116.5 127t-165.5 47q-80 0 -143 -38t-106.5 -100.5t-66 -137t-22.5 -148.5q0 -156 92.5 -233t272.5 -77q38 0 88 9t88 21q-16 -103 -83 -183.5t-179.5 -135.5t-266.5 -85
l59 -159q213 41 355.5 133.5t214 236t71.5 337.5zM469 178q-102 0 -152 31t-50 104q0 45 14.5 100.5t51 96.5t102.5 41q48 0 84.5 -22.5t62.5 -67t41.5 -109t20.5 -148.5q-43 -13 -88 -19.5t-87 -6.5z" />
    <glyph glyph-name="uniFBDA" unicode="&#x6c6;" horiz-adv-x="911" arabic-form="final" 
d="M386 918h105l153 312l-81 40l-125 -254l-124 254l-82 -40zM436 731q-80 0 -142.5 -38t-106 -100.5t-66 -137t-22.5 -148.5q0 -154 94.5 -230.5t284.5 -76.5h158q-24 -98 -90.5 -172t-175 -125t-259.5 -80l59 -159q213 41 342 123.5t194.5 190t87.5 222.5h137v182h-121
q-2 135 -31 237.5t-80 172t-118 104.5t-145 35zM468 182q-106 0 -153.5 30.5t-47.5 100.5q0 45 14.5 100.5t51 96.5t100.5 41q48 0 85 -21.5t63 -66.5t42 -115t22 -166h-177z" />
    <glyph glyph-name="uniFBDB" unicode="&#x6c8;" horiz-adv-x="910" arabic-form="isolated" 
d="M384 930h89v363h-89v-363zM811 171q0 106 -23 206t-69 180t-116.5 127t-165.5 47q-80 0 -143 -38t-106.5 -100.5t-66 -137t-22.5 -148.5q0 -156 92.5 -233t272.5 -77q38 0 88 9t88 21q-16 -103 -83 -183.5t-179.5 -135.5t-266.5 -85l59 -159q213 41 355.5 133.5t214 236
t71.5 337.5zM469 178q-102 0 -152 31t-50 104q0 45 14.5 100.5t51 96.5t102.5 41q48 0 84.5 -22.5t62.5 -67t41.5 -109t20.5 -148.5q-43 -13 -88 -19.5t-87 -6.5z" />
    <glyph glyph-name="uniFBDC" unicode="&#x6c8;" horiz-adv-x="911" arabic-form="final" 
d="M436 731q-80 0 -142.5 -38t-106 -100.5t-66 -137t-22.5 -148.5q0 -154 94.5 -230.5t284.5 -76.5h158q-24 -98 -90.5 -172t-175 -125t-259.5 -80l59 -159q213 41 342 123.5t194.5 190t87.5 222.5h137v182h-121q-2 135 -31 237.5t-80 172t-118 104.5t-145 35zM468 182
q-106 0 -153.5 30.5t-47.5 100.5q0 45 14.5 100.5t51 96.5t100.5 41q48 0 85 -21.5t63 -66.5t42 -115t22 -166h-177zM384 930h89v363h-89v-363z" />
    <glyph glyph-name="uniFBDE" unicode="&#x6cb;" horiz-adv-x="910" arabic-form="isolated" 
d="M429 1398l-135 -135l135 -135l135 135zM600 1145l-135 -135l135 -135l135 135zM258 1145l-135 -135l135 -135l135 135zM811 171q0 106 -23 206t-69 180t-116.5 127t-165.5 47q-80 0 -143 -38t-106.5 -100.5t-66 -137t-22.5 -148.5q0 -156 92.5 -233t272.5 -77q38 0 88 9
t88 21q-16 -103 -83 -183.5t-179.5 -135.5t-266.5 -85l59 -159q213 41 355.5 133.5t214 236t71.5 337.5zM469 178q-102 0 -152 31t-50 104q0 45 14.5 100.5t51 96.5t102.5 41q48 0 84.5 -22.5t62.5 -67t41.5 -109t20.5 -148.5q-43 -13 -88 -19.5t-87 -6.5z" />
    <glyph glyph-name="uniFBDF" unicode="&#x6cb;" horiz-adv-x="911" arabic-form="final" 
d="M431 1398l-135 -135l135 -135l135 135zM602 1145l-135 -135l135 -135l135 135zM260 1145l-135 -135l135 -135l135 135zM436 731q-80 0 -142.5 -38t-106 -100.5t-66 -137t-22.5 -148.5q0 -154 94.5 -230.5t284.5 -76.5h158q-24 -98 -90.5 -172t-175 -125t-259.5 -80
l59 -159q213 41 342 123.5t194.5 190t87.5 222.5h137v182h-121q-2 135 -31 237.5t-80 172t-118 104.5t-145 35zM468 182q-106 0 -153.5 30.5t-47.5 100.5q0 45 14.5 100.5t51 96.5t100.5 41q48 0 85 -21.5t63 -66.5t42 -115t22 -166h-177z" />
    <glyph glyph-name="uniFBE2" unicode="&#x6c9;" horiz-adv-x="910" arabic-form="isolated" 
d="M647 917l-153 312h-105l-154 -312l82 -40l124 254l125 -254zM811 171q0 106 -23 206t-69 180t-116.5 127t-165.5 47q-80 0 -143 -38t-106.5 -100.5t-66 -137t-22.5 -148.5q0 -156 92.5 -233t272.5 -77q38 0 88 9t88 21q-16 -103 -83 -183.5t-179.5 -135.5t-266.5 -85
l59 -159q213 41 355.5 133.5t214 236t71.5 337.5zM469 178q-102 0 -152 31t-50 104q0 45 14.5 100.5t51 96.5t102.5 41q48 0 84.5 -22.5t62.5 -67t41.5 -109t20.5 -148.5q-43 -13 -88 -19.5t-87 -6.5z" />
    <glyph glyph-name="uniFBE3" unicode="&#x6c9;" horiz-adv-x="911" arabic-form="final" 
d="M647 917l-153 312h-105l-154 -312l82 -40l124 254l125 -254zM436 731q-80 0 -142.5 -38t-106 -100.5t-66 -137t-22.5 -148.5q0 -154 94.5 -230.5t284.5 -76.5h158q-24 -98 -90.5 -172t-175 -125t-259.5 -80l59 -159q213 41 342 123.5t194.5 190t87.5 222.5h137v182h-121
q-2 135 -31 237.5t-80 172t-118 104.5t-145 35zM468 182q-106 0 -153.5 30.5t-47.5 100.5q0 45 14.5 100.5t51 96.5t100.5 41q48 0 85 -21.5t63 -66.5t42 -115t22 -166h-177z" />
    <glyph glyph-name="uniFBE8" unicode="&#x649;" horiz-adv-x="584" arabic-form="initial" 
d="M143 0q126 0 201 53.5t108 147.5t33 214q0 70 -10 147t-27 157l-174 -44q14 -75 26 -149t12 -139q0 -89 -35.5 -147t-135.5 -58h-161v-182h163z" />
    <glyph glyph-name="uniFBE9" unicode="&#x649;" horiz-adv-x="690" arabic-form="medial" 
d="M303 591q4 -43 6.5 -86t2.5 -91q0 -118 -54.5 -175t-181.5 -57h-96v-182h96q96 0 184 37t142 116q27 -49 65 -83t92 -52t128 -18h23v182h-21q-64 0 -107.5 22t-67.5 65.5t-28 107.5l-16 234z" />
    <glyph glyph-name="uniFBFC" unicode="&#x6cc;" horiz-adv-x="1445" arabic-form="isolated" 
d="M689 -505q159 0 281.5 35.5t206 96.5t126.5 138t43 161q0 77 -21.5 136.5t-73.5 93.5t-144 34h-168q-58 0 -77 21.5t-19 68.5q0 85 32 154.5t92.5 110.5t145.5 41q45 0 86 -9.5t82 -30.5l57 152q-58 39 -115.5 53t-109.5 14q-103 0 -185 -38t-140 -105.5t-89 -155
t-31 -186.5q0 -63 14 -113t45 -85t82.5 -53.5t125.5 -18.5h162q50 0 69 -28t19 -60q0 -47 -37.5 -91.5t-104.5 -79.5t-157.5 -55.5t-196.5 -20.5q-159 0 -250 53t-129.5 142t-38.5 197q0 91 20 188t49 189l-159 64q-38 -106 -60 -217.5t-22 -217.5q0 -157 57.5 -288.5
t187 -210.5t345.5 -79z" />
    <glyph glyph-name="uniFBFD" unicode="&#x6cc;" horiz-adv-x="1329" arabic-form="final" 
d="M689 -515q165 0 286 37t200.5 97t118 130.5t38.5 136.5q0 29 -4.5 56t-19.5 57h41v182h-555q-13 0 -18 -7.5t-4 -15.5l27 -96q8 -28 17 -45.5t29 -17.5h148q93 0 134.5 -34t41.5 -82q0 -42 -57.5 -93t-165 -88t-257.5 -37q-159 0 -250.5 53t-129.5 142t-38 197
q0 53 8.5 130t37.5 177l-159 59q-38 -114 -48.5 -203t-10.5 -157q0 -157 57.5 -288.5t187 -210.5t345.5 -79z" />
    <glyph glyph-name="uniFBFE" unicode="&#x6cc;" horiz-adv-x="638" arabic-form="initial" 
d="M-22 182v-182h80v182h-80zM339 -159l-139 -139l139 -141l140 141zM7 -159l-139 -139l139 -141l140 141zM197 0q126 0 201 53.5t108 147.5t33 214q0 70 -10 147t-27 157l-174 -44q14 -75 26 -149t12 -139q0 -89 -35.5 -147t-135.5 -58h-161v-182h163z" />
    <glyph glyph-name="uniFBFF" unicode="&#x6cc;" horiz-adv-x="743" arabic-form="medial" 
d="M-22 182v-182h80v182h-80zM339 -159l-139 -139l139 -141l140 141zM7 -159l-139 -139l139 -141l140 141zM356 591q4 -43 6.5 -86t2.5 -91q0 -118 -54.5 -175t-181.5 -57h-96v-182h96q96 0 184 37t142 116q27 -49 65 -83t92 -52t128 -18h23v182h-21q-64 0 -107.5 22
t-67.5 65.5t-28 107.5l-16 234z" />
    <glyph glyph-name="uniFDFC" unicode="&#xfdfc;" horiz-adv-x="3014" arabic-form="isolated" 
d="M2360 -600q191 37 313.5 136.5t181 242t58.5 309.5q0 95 -18.5 195t-53.5 200l-166 -56q33 -97 51.5 -190.5t18.5 -178.5q0 -121 -43.5 -221t-140.5 -171.5t-260 -106.5zM2092 -149l-139 -139l139 -141l140 141zM1760 -149l-139 -139l139 -141l140 141zM1984 0
q126 0 201 53.5t108 147.5t33 214q0 70 -10 147t-27 157l-174 -44q14 -75 26 -149t12 -139q0 -89 -35.5 -147t-135.5 -58h-161v-182h163zM1443 1377v-955q0 -219 93.5 -320.5t284.5 -101.5h25v182h-25q-105 0 -157 49t-52 190v956h-169zM1158 116v1261h-169v-1279
q0 -145 -40 -236.5t-120 -134.5t-200 -43q-129 0 -207.5 40.5t-114.5 117t-36 184.5q0 91 20 188t49 189l-159 64q-38 -106 -60 -217.5t-22 -217.5q0 -157 55 -276t172 -185.5t303 -66.5q173 0 290.5 65t178 200.5t60.5 346.5z" />
    <glyph glyph-name="uniFE80" unicode="&#x621;" horiz-adv-x="829" arabic-form="isolated" 
d="M302 428q0 57 50.5 102.5t121.5 45.5q41 0 83.5 -11t97.5 -38l51 134q-60 44 -118 62t-127 18q-86 0 -157.5 -43t-113.5 -114.5t-42 -156.5q0 -65 27 -124.5t100 -124.5q-65 -29 -98 -46t-84 -44l26 -167q192 104 339.5 156t271.5 79v169q-46 -8 -85.5 -17.5t-85.5 -23.5
t-113 -36q-75 41 -109.5 90.5t-34.5 89.5z" />
    <glyph glyph-name="uniFE81" unicode="&#x622;" horiz-adv-x="475" arabic-form="isolated" 
d="M337 1502l-129 59q-32 15 -59.5 24t-54.5 9q-41 0 -86.5 -27.5t-110.5 -94.5l-58 -60l91 -82l57 57q47 47 75 65t50 18q11 0 23 -4t26 -10l129 -59q52 -23 90 -23q40 0 79.5 23.5t92.5 73.5l56 53l-91 82l-51 -46q-38 -34 -60 -49.5t-40 -15.5q-15 0 -29 7zM322 1247
h-169v-1246h169v1246z" />
    <glyph glyph-name="uniFE82" unicode="&#x622;" horiz-adv-x="536" arabic-form="final" 
d="M211 1463q25 0 68.5 -22t86 -44.5t65.5 -22.5q32 0 71 24t76.5 57t64.5 60l-73 66q-17 -17 -44 -40.5t-54 -41t-45 -17.5q-30 0 -73 22.5t-83.5 44.5t-63.5 22q-34 0 -79 -28.5t-87 -67t-70 -69.5l74 -66q17 18 49 47t65 52.5t52 23.5zM153 1247v-826q0 -219 93.5 -320
t284.5 -101h25v182h-25q-105 0 -157 49t-52 190v826h-169z" />
    <glyph glyph-name="uniFE83" unicode="&#x623;" horiz-adv-x="475" arabic-form="isolated" 
d="M144 1449l-110 -43l14 -98l381 151l-14 99l-132 -48q-3 -1 -5.5 -2t-4.5 -1q-56 -8 -86.5 21.5t-31.5 60.5q0 50 36.5 76t79.5 26q23 0 50 -4t58 -20l-1 99q-28 17 -57.5 24.5t-63.5 7.5q-76 0 -135.5 -55t-59.5 -141q0 -59 24 -93t58 -60zM322 1247h-169v-1246h169v1246
z" />
    <glyph glyph-name="uniFE84" unicode="&#x623;" horiz-adv-x="536" arabic-form="final" 
d="M144 1449l-110 -43l14 -98l381 151l-14 99l-132 -48q-3 -1 -5.5 -2t-4.5 -1q-56 -8 -86.5 21.5t-31.5 60.5q0 50 36.5 76t79.5 26q23 0 50 -4t58 -20l-1 99q-28 17 -57.5 24.5t-63.5 7.5q-76 0 -135.5 -55t-59.5 -141q0 -59 24 -93t58 -60zM153 1247v-826
q0 -219 93.5 -320t284.5 -101h25v182h-25q-105 0 -157 49t-52 190v826h-169z" />
    <glyph glyph-name="uniFE85" unicode="&#x624;" horiz-adv-x="910" arabic-form="isolated" 
d="M350 983l-110 -43l14 -98l381 151l-14 99l-132 -48q-3 -1 -5.5 -2t-4.5 -1q-56 -8 -86.5 21.5t-31.5 60.5q0 50 36.5 76t79.5 26q23 0 50 -4t58 -20l-1 99q-28 17 -57.5 24.5t-63.5 7.5q-76 0 -135.5 -55t-59.5 -141q0 -59 24 -93t58 -60zM811 171q0 106 -23 206t-69 180
t-116.5 127t-165.5 47q-80 0 -143 -38t-106.5 -100.5t-66 -137t-22.5 -148.5q0 -156 92.5 -233t272.5 -77q38 0 88 9t88 21q-16 -103 -83 -183.5t-179.5 -135.5t-266.5 -85l59 -159q213 41 355.5 133.5t214 236t71.5 337.5zM469 178q-102 0 -152 31t-50 104q0 45 14.5 100.5
t51 96.5t102.5 41q48 0 84.5 -22.5t62.5 -67t41.5 -109t20.5 -148.5q-43 -13 -88 -19.5t-87 -6.5z" />
    <glyph glyph-name="uniFE86" unicode="&#x624;" horiz-adv-x="911" arabic-form="final" 
d="M350 983l-110 -43l14 -98l381 151l-14 99l-132 -48q-3 -1 -5.5 -2t-4.5 -1q-56 -8 -86.5 21.5t-31.5 60.5q0 50 36.5 76t79.5 26q23 0 50 -4t58 -20l-1 99q-28 17 -57.5 24.5t-63.5 7.5q-76 0 -135.5 -55t-59.5 -141q0 -59 24 -93t58 -60zM436 731q-80 0 -142.5 -38
t-106 -100.5t-66 -137t-22.5 -148.5q0 -154 94.5 -230.5t284.5 -76.5h158q-24 -98 -90.5 -172t-175 -125t-259.5 -80l59 -159q213 41 342 123.5t194.5 190t87.5 222.5h137v182h-121q-2 135 -31 237.5t-80 172t-118 104.5t-145 35zM468 182q-106 0 -153.5 30.5t-47.5 100.5
q0 45 14.5 100.5t51 96.5t100.5 41q48 0 85 -21.5t63 -66.5t42 -115t22 -166h-177z" />
    <glyph glyph-name="uniFE87" unicode="&#x625;" horiz-adv-x="475" arabic-form="isolated" 
d="M138 -458l-110 -43l14 -98l381 151l-14 99l-132 -48q-3 -1 -5.5 -2t-4.5 -1q-56 -8 -86.5 21.5t-31.5 60.5q0 50 36.5 76t79.5 26q23 0 50 -4t58 -20l-1 99q-28 17 -57.5 24.5t-63.5 7.5q-76 0 -135.5 -55t-59.5 -141q0 -59 24 -93t58 -60zM323 1377h-169v-1376h169v1376
z" />
    <glyph glyph-name="uniFE88" unicode="&#x625;" horiz-adv-x="536" arabic-form="final" 
d="M208 -458l-110 -43l14 -98l381 151l-14 99l-132 -48q-3 -1 -5.5 -2t-4.5 -1q-56 -8 -86.5 21.5t-31.5 60.5q0 50 36.5 76t79.5 26q23 0 50 -4t58 -20l-1 99q-28 17 -57.5 24.5t-63.5 7.5q-76 0 -135.5 -55t-59.5 -141q0 -59 24 -93t58 -60zM153 1377v-955
q0 -219 93.5 -320.5t284.5 -101.5h25v182h-25q-105 0 -157 49t-52 190v956h-169z" />
    <glyph glyph-name="uniFE89" unicode="&#x626;" horiz-adv-x="1445" arabic-form="isolated" 
d="M402 797l-110 -43l14 -98l381 151l-14 99l-132 -48q-3 -1 -5.5 -2t-4.5 -1q-56 -8 -86.5 21.5t-31.5 60.5q0 50 36.5 76t79.5 26q23 0 50 -4t58 -20l-1 99q-28 17 -57.5 24.5t-63.5 7.5q-76 0 -135.5 -55t-59.5 -141q0 -59 24 -93t58 -60zM689 -505q159 0 281.5 35.5
t206 96.5t126.5 138t43 161q0 77 -21.5 136.5t-73.5 93.5t-144 34h-168q-58 0 -77 21.5t-19 68.5q0 85 32 154.5t92.5 110.5t145.5 41q45 0 86 -9.5t82 -30.5l57 152q-58 39 -115.5 53t-109.5 14q-103 0 -185 -38t-140 -105.5t-89 -155t-31 -186.5q0 -63 14 -113t45 -85
t82.5 -53.5t125.5 -18.5h162q50 0 69 -28t19 -60q0 -47 -37.5 -91.5t-104.5 -79.5t-157.5 -55.5t-196.5 -20.5q-159 0 -250 53t-129.5 142t-38.5 197q0 91 20 188t49 189l-159 64q-38 -106 -60 -217.5t-22 -217.5q0 -157 57.5 -288.5t187 -210.5t345.5 -79z" />
    <glyph glyph-name="uniFE8A" unicode="&#x626;" horiz-adv-x="1329" arabic-form="final" 
d="M404 699l-110 -43l14 -98l381 151l-14 99l-132 -48q-3 -1 -5.5 -2t-4.5 -1q-56 -8 -86.5 21.5t-31.5 60.5q0 50 36.5 76t79.5 26q23 0 50 -4t58 -20l-1 99q-28 17 -57.5 24.5t-63.5 7.5q-76 0 -135.5 -55t-59.5 -141q0 -59 24 -93t58 -60zM689 -515q165 0 286 37
t200.5 97t118 130.5t38.5 136.5q0 29 -4.5 56t-19.5 57h41v182h-555q-13 0 -18 -7.5t-4 -15.5l27 -96q8 -28 17 -45.5t29 -17.5h148q93 0 134.5 -34t41.5 -82q0 -42 -57.5 -93t-165 -88t-257.5 -37q-159 0 -250.5 53t-129.5 142t-38 197q0 53 8.5 130t37.5 177l-159 59
q-38 -114 -48.5 -203t-10.5 -157q0 -157 57.5 -288.5t187 -210.5t345.5 -79z" />
    <glyph glyph-name="uniFE8B" unicode="&#x626;" horiz-adv-x="628" arabic-form="initial" 
d="M-22 182v-182h74v182h-74zM222 945l-110 -43l14 -98l381 151l-14 99l-132 -48q-3 -1 -5.5 -2t-4.5 -1q-56 -8 -86.5 21.5t-31.5 60.5q0 50 36.5 76t79.5 26q23 0 50 -4t58 -20l-1 99q-28 17 -57.5 24.5t-63.5 7.5q-76 0 -135.5 -55t-59.5 -141q0 -59 24 -93t58 -60z
M187 0q126 0 201 53.5t108 147.5t33 214q0 70 -10 147t-27 157l-174 -44q14 -75 26 -149t12 -139q0 -89 -35.5 -147t-135.5 -58h-161v-182h163z" />
    <glyph glyph-name="uniFE8C" unicode="&#x626;" horiz-adv-x="734" arabic-form="medial" 
d="M-22 182v-182h74v182h-74zM254 829l-110 -43l14 -98l381 151l-14 99l-132 -48q-3 -1 -5.5 -2t-4.5 -1q-56 -8 -86.5 21.5t-31.5 60.5q0 50 36.5 76t79.5 26q23 0 50 -4t58 -20l-1 99q-28 17 -57.5 24.5t-63.5 7.5q-76 0 -135.5 -55t-59.5 -141q0 -59 24 -93t58 -60z
M347 591q4 -43 6.5 -86t2.5 -91q0 -118 -54.5 -175t-181.5 -57h-96v-182h96q96 0 184 37t142 116q27 -49 65 -83t92 -52t128 -18h23v182h-21q-64 0 -107.5 22t-67.5 65.5t-28 107.5l-16 234z" />
    <glyph glyph-name="uniFE8D" unicode="&#x627;" horiz-adv-x="475" arabic-form="isolated" 
d="M322 1377h-169v-1376h169v1376z" />
    <glyph glyph-name="uniFE8E" unicode="&#x627;" horiz-adv-x="536" arabic-form="final" 
d="M153 1377v-955q0 -219 93.5 -320.5t284.5 -101.5h25v182h-25q-105 0 -157 49t-52 190v956h-169z" />
    <glyph glyph-name="uniFE8F" unicode="&#x628;" horiz-adv-x="1791" arabic-form="isolated" 
d="M928 -153l-145 -145l145 -145l145 145zM1088 0q128 0 237.5 14t192 56t128.5 124t46 218q0 62 -9.5 145.5t-27.5 161.5l-174 -44q15 -76 26 -153.5t11 -133.5q0 -77 -41 -119.5t-106 -60.5t-139.5 -22t-142.5 -4h-234q-145 0 -254 12.5t-181.5 44t-109.5 87.5t-37 144
q0 45 10.5 95t26.5 94l-155 58q-25 -61 -40.5 -127t-15.5 -135q0 -126 47.5 -213t142 -140.5t236 -77.5t330.5 -24h233z" />
    <glyph glyph-name="uniFE90" unicode="&#x628;" horiz-adv-x="1903" arabic-form="final" 
d="M928 -153l-145 -145l145 -145l145 145zM1515 591q4 -42 6.5 -89t2.5 -88q0 -88 -59 -138.5t-171.5 -72t-271.5 -21.5h-167q-145 0 -254 12.5t-181.5 44t-109.5 87.5t-37 144q0 45 10.5 95t26.5 94l-155 58q-25 -61 -40.5 -127t-15.5 -135q0 -126 47.5 -213t142 -140.5
t236 -77.5t330.5 -24h167q230 0 359.5 41.5t212.5 137.5q47 -94 119.5 -136.5t185.5 -42.5h24v182h-24q-97 0 -145.5 50t-54.5 145l-17 234z" />
    <glyph glyph-name="uniFE91" unicode="&#x628;" horiz-adv-x="604" arabic-form="initial" 
d="M-21 182v-182h48v182h-48zM185 -153l-145 -145l145 -145l145 145zM163 0q126 0 201 53.5t108 147.5t33 214q0 70 -10 147t-27 157l-174 -44q14 -75 26 -149t12 -139q0 -89 -35.5 -147t-135.5 -58h-161v-182h163z" />
    <glyph glyph-name="uniFE92" unicode="&#x628;" horiz-adv-x="710" arabic-form="medial" 
d="M-21 182v-182h48v182h-48zM185 -153l-145 -145l145 -145l145 145zM323 591q4 -43 6.5 -86t2.5 -91q0 -118 -54.5 -175t-181.5 -57h-96v-182h96q96 0 184 37t142 116q27 -49 65 -83t92 -52t128 -18h23v182h-21q-64 0 -107.5 22t-67.5 65.5t-28 107.5l-16 234z" />
    <glyph glyph-name="uniFE93" unicode="&#x629;" horiz-adv-x="954" arabic-form="isolated" 
d="M685 344q0 -82 -49.5 -122t-159.5 -40q-109 0 -158 43t-49 101q0 51 23.5 98t67.5 97t105 108q52 -45 102.5 -93.5t84 -97t33.5 -94.5zM341 740q-118 -116 -180 -216.5t-62 -216.5q0 -132 102 -217.5t276 -85.5q114 0 199 40.5t132 115t47 176.5q0 73 -32.5 141.5
t-92.5 137.5t-141.5 142t-180.5 155l-106 -137zM616 1315l-139 -139l139 -141l140 141zM284 1315l-139 -139l139 -141l140 141z" />
    <glyph glyph-name="uniFE94" unicode="&#x629;" horiz-adv-x="1062" arabic-form="final" 
d="M748 1389l-139 -139l139 -141l140 141zM416 1389l-139 -139l139 -141l140 141zM1047 0h35v182h-31q-87 0 -132.5 43.5t-57.5 131.5l-87 614l-160 -32l7 -48q-135 -42 -233.5 -90.5t-162.5 -105.5t-95 -123t-31 -143q0 -136 97 -213t240 -77q84 0 151.5 31t125.5 89
q16 -80 57.5 -138.5t110 -89.5t166.5 -31zM673 503q0 -61 -33.5 -105t-87 -67t-112.5 -23q-77 0 -122 34t-45 100q0 41 21.5 77.5t66.5 71t115.5 69t167.5 69.5l25 -167q2 -16 3 -30t1 -29z" />
    <glyph glyph-name="uniFE95" unicode="&#x62a;" horiz-adv-x="1791" arabic-form="isolated" 
d="M1088 0q128 0 237.5 14t192 56t128.5 124t46 218q0 62 -9.5 145.5t-27.5 161.5l-174 -44q15 -76 26 -153.5t11 -133.5q0 -77 -41 -119.5t-106 -60.5t-139.5 -22t-142.5 -4h-234q-145 0 -254 12.5t-181.5 44t-109.5 87.5t-37 144q0 45 10.5 95t26.5 94l-155 58
q-25 -61 -40.5 -127t-15.5 -135q0 -126 47.5 -213t142 -140.5t236 -77.5t330.5 -24h233zM1069 981l-139 -139l139 -141l140 141zM737 981l-139 -139l139 -141l140 141z" />
    <glyph glyph-name="uniFE96" unicode="&#x62a;" horiz-adv-x="1903" arabic-form="final" 
d="M1076 981l-139 -139l139 -141l140 141zM744 981l-139 -139l139 -141l140 141zM1515 591q4 -42 6.5 -89t2.5 -88q0 -88 -59 -138.5t-171.5 -72t-271.5 -21.5h-167q-145 0 -254 12.5t-181.5 44t-109.5 87.5t-37 144q0 45 10.5 95t26.5 94l-155 58q-25 -61 -40.5 -127
t-15.5 -135q0 -126 47.5 -213t142 -140.5t236 -77.5t330.5 -24h167q230 0 359.5 41.5t212.5 137.5q47 -94 119.5 -136.5t185.5 -42.5h24v182h-24q-97 0 -145.5 50t-54.5 145l-17 234z" />
    <glyph glyph-name="uniFE97" unicode="&#x62a;" horiz-adv-x="628" arabic-form="initial" 
d="M-20 182v-182h71v182h-71zM420 1174l-139 -139l139 -141l140 141zM88 1174l-139 -139l139 -141l140 141zM187 0q126 0 201 53.5t108 147.5t33 214q0 70 -10 147t-27 157l-174 -44q14 -75 26 -149t12 -139q0 -89 -35.5 -147t-135.5 -58h-161v-182h163z" />
    <glyph glyph-name="uniFE98" unicode="&#x62a;" horiz-adv-x="734" arabic-form="medial" 
d="M-20 182v-182h71v182h-71zM420 1082l-139 -139l139 -141l140 141zM88 1082l-139 -139l139 -141l140 141zM347 591q4 -43 6.5 -86t2.5 -91q0 -118 -54.5 -175t-181.5 -57h-96v-182h96q96 0 184 37t142 116q27 -49 65 -83t92 -52t128 -18h23v182h-21q-64 0 -107.5 22
t-67.5 65.5t-28 107.5l-16 234z" />
    <glyph glyph-name="uniFE99" unicode="&#x62b;" horiz-adv-x="1791" arabic-form="isolated" 
d="M1088 0q128 0 237.5 14t192 56t128.5 124t46 218q0 62 -9.5 145.5t-27.5 161.5l-174 -44q15 -76 26 -153.5t11 -133.5q0 -77 -41 -119.5t-106 -60.5t-139.5 -22t-142.5 -4h-234q-145 0 -254 12.5t-181.5 44t-109.5 87.5t-37 144q0 45 10.5 95t26.5 94l-155 58
q-25 -61 -40.5 -127t-15.5 -135q0 -126 47.5 -213t142 -140.5t236 -77.5t330.5 -24h233zM903 1151l-135 -135l135 -135l135 135zM1074 898l-135 -135l135 -135l135 135zM732 898l-135 -135l135 -135l135 135z" />
    <glyph glyph-name="uniFE9A" unicode="&#x62b;" horiz-adv-x="1903" arabic-form="final" 
d="M906 1152l-135 -135l135 -135l135 135zM1077 899l-135 -135l135 -135l135 135zM735 899l-135 -135l135 -135l135 135zM1515 591q4 -42 6.5 -89t2.5 -88q0 -88 -59 -138.5t-171.5 -72t-271.5 -21.5h-167q-145 0 -254 12.5t-181.5 44t-109.5 87.5t-37 144q0 45 10.5 95
t26.5 94l-155 58q-25 -61 -40.5 -127t-15.5 -135q0 -126 47.5 -213t142 -140.5t236 -77.5t330.5 -24h167q230 0 359.5 41.5t212.5 137.5q47 -94 119.5 -136.5t185.5 -42.5h24v182h-24q-97 0 -145.5 50t-54.5 145l-17 234z" />
    <glyph glyph-name="uniFE9B" unicode="&#x62b;" horiz-adv-x="628" arabic-form="initial" 
d="M-20 182v-182h71v182h-71zM254 1397l-135 -135l135 -135l135 135zM425 1144l-135 -135l135 -135l135 135zM83 1144l-135 -135l135 -135l135 135zM187 0q126 0 201 53.5t108 147.5t33 214q0 70 -10 147t-27 157l-174 -44q14 -75 26 -149t12 -139q0 -89 -35.5 -147
t-135.5 -58h-161v-182h163z" />
    <glyph glyph-name="uniFE9C" unicode="&#x62b;" horiz-adv-x="734" arabic-form="medial" 
d="M-20 182v-182h71v182h-71zM254 1315l-135 -135l135 -135l135 135zM425 1062l-135 -135l135 -135l135 135zM83 1062l-135 -135l135 -135l135 135zM347 591q4 -43 6.5 -86t2.5 -91q0 -118 -54.5 -175t-181.5 -57h-96v-182h96q96 0 184 37t142 116q27 -49 65 -83t92 -52
t128 -18h23v182h-21q-64 0 -107.5 22t-67.5 65.5t-28 107.5l-16 234z" />
    <glyph glyph-name="uniFE9D" unicode="&#x62c;" horiz-adv-x="1370" arabic-form="isolated" 
d="M1249 611q-80 3 -167 29.5t-173.5 65t-167 76t-148.5 62.5t-118 25q-118 0 -207.5 -60t-161.5 -176l-15 -24l153 -75l27 34q46 58 94 89.5t109 31.5q24 0 83.5 -21.5t139 -53.5t161.5 -66q-190 -42 -332.5 -113.5t-237 -166t-141.5 -207t-47 -236.5q0 -134 49.5 -231.5
t139.5 -160.5t211.5 -93.5t265.5 -30.5q139 0 273.5 25.5t239.5 74.5l-45 167q-103 -48 -221.5 -70.5t-231.5 -22.5q-171 0 -285 39.5t-170.5 117.5t-56.5 194q0 96 46 181t132.5 156.5t207 126.5t271 91t323.5 50v172zM817 63l-145 -145l145 -145l145 145z" />
    <glyph glyph-name="uniFE9E" unicode="&#x62c;" horiz-adv-x="1409" arabic-form="final" 
d="M698 19l-145 -145l145 -145l145 145zM100 -175q0 -134 49.5 -231.5t139.5 -160.5t211.5 -93.5t265.5 -30.5q139 0 273.5 25.5t239.5 74.5l-45 167q-103 -48 -221.5 -70.5t-231.5 -22.5q-171 0 -285 39.5t-170.5 117.5t-56.5 194q0 80 36 159t111 151.5t192 133.5t278 104
q0 -153 51.5 -236t155 -114.5t258.5 -31.5h78v182h-81q-102 0 -173 13t-107.5 61.5t-36.5 154.5q49 10 106 17t112 11v172q-80 3 -167 29.5t-173.5 65t-167 76t-148.5 62.5t-118 25q-118 0 -210.5 -64.5t-158.5 -171.5l-15 -24l153 -75l27 34q39 50 90.5 85.5t112.5 35.5
q24 0 83.5 -21.5t139 -53.5t161.5 -66q-190 -42 -332.5 -113.5t-237 -166t-141.5 -207t-47 -236.5z" />
    <glyph glyph-name="uniFE9F" unicode="&#x62c;" horiz-adv-x="1372" arabic-form="initial" 
d="M666 -153l-145 -145l145 -145l145 145zM-20 182v-182h167q141 0 254.5 24.5t223 72t237.5 115.5q106 56 185 92t137 54.5t100 23.5v173q-80 3 -168 29.5t-176 65t-170 76t-151 62.5t-119 25q-118 0 -205.5 -64.5t-153.5 -171.5l-15 -24l153 -75l27 34q39 50 85.5 85.5
t107.5 35.5q21 0 72 -17.5t119.5 -44.5t144.5 -57.5t147 -56.5q-127 -58 -229.5 -108.5t-196 -87.5t-191.5 -58t-215 -21h-170z" />
    <glyph glyph-name="uniFEA0" unicode="&#x62c;" horiz-adv-x="1396" arabic-form="medial" 
d="M666 -153l-145 -145l145 -145l145 145zM1284 555q-80 3 -168 29.5t-176 65t-170 76t-151 62.5t-119 25q-118 0 -205.5 -64.5t-153.5 -171.5l-15 -24l153 -75l27 34q39 50 85.5 85.5t107.5 35.5q21 0 72 -17.5t119.5 -44.5t144.5 -57.5t147 -56.5q-127 -58 -229.5 -108.5
t-196 -87.5t-191.5 -58t-215 -21h-170v-182h167q143 0 271.5 32t254 88t257.5 128q14 -93 62.5 -147.5t138.5 -77.5t226 -23h59v182h-55q-95 0 -162 9.5t-102.5 37.5t-36.5 83q65 31 123 48.5t101 21.5v173z" />
    <glyph glyph-name="uniFEA1" unicode="&#x62d;" horiz-adv-x="1370" arabic-form="isolated" 
d="M1249 611q-80 3 -167 29.5t-173.5 65t-167 76t-148.5 62.5t-118 25q-118 0 -207.5 -60t-161.5 -176l-15 -24l153 -75l27 34q46 58 94 89.5t109 31.5q24 0 83.5 -21.5t139 -53.5t161.5 -66q-190 -42 -332.5 -113.5t-237 -166t-141.5 -207t-47 -236.5q0 -134 49.5 -231.5
t139.5 -160.5t211.5 -93.5t265.5 -30.5q139 0 273.5 25.5t239.5 74.5l-45 167q-103 -48 -221.5 -70.5t-231.5 -22.5q-171 0 -285 39.5t-170.5 117.5t-56.5 194q0 96 46 181t132.5 156.5t207 126.5t271 91t323.5 50v172z" />
    <glyph glyph-name="uniFEA2" unicode="&#x62d;" horiz-adv-x="1409" arabic-form="final" 
d="M100 -175q0 -134 49.5 -231.5t139.5 -160.5t211.5 -93.5t265.5 -30.5q139 0 273.5 25.5t239.5 74.5l-45 167q-103 -48 -221.5 -70.5t-231.5 -22.5q-171 0 -285 39.5t-170.5 117.5t-56.5 194q0 80 36 159t111 151.5t192 133.5t278 104q0 -153 51.5 -236t155 -114.5
t258.5 -31.5h78v182h-81q-102 0 -173 13t-107.5 61.5t-36.5 154.5q49 10 106 17t112 11v172q-80 3 -167 29.5t-173.5 65t-167 76t-148.5 62.5t-118 25q-118 0 -210.5 -64.5t-158.5 -171.5l-15 -24l153 -75l27 34q39 50 90.5 85.5t112.5 35.5q24 0 83.5 -21.5t139 -53.5
t161.5 -66q-190 -42 -332.5 -113.5t-237 -166t-141.5 -207t-47 -236.5z" />
    <glyph glyph-name="uniFEA3" unicode="&#x62d;" horiz-adv-x="1372" arabic-form="initial" 
d="M-20 182v-182h167q141 0 254.5 24.5t223 72t237.5 115.5q106 56 185 92t137 54.5t100 23.5v173q-80 3 -168 29.5t-176 65t-170 76t-151 62.5t-119 25q-118 0 -205.5 -64.5t-153.5 -171.5l-15 -24l153 -75l27 34q39 50 85.5 85.5t107.5 35.5q21 0 72 -17.5t119.5 -44.5
t144.5 -57.5t147 -56.5q-127 -58 -229.5 -108.5t-196 -87.5t-191.5 -58t-215 -21h-170z" />
    <glyph glyph-name="uniFEA4" unicode="&#x62d;" horiz-adv-x="1396" arabic-form="medial" 
d="M1284 555q-80 3 -168 29.5t-176 65t-170 76t-151 62.5t-119 25q-118 0 -205.5 -64.5t-153.5 -171.5l-15 -24l153 -75l27 34q39 50 85.5 85.5t107.5 35.5q21 0 72 -17.5t119.5 -44.5t144.5 -57.5t147 -56.5q-127 -58 -229.5 -108.5t-196 -87.5t-191.5 -58t-215 -21h-170
v-182h167q143 0 271.5 32t254 88t257.5 128q14 -93 62.5 -147.5t138.5 -77.5t226 -23h59v182h-55q-95 0 -162 9.5t-102.5 37.5t-36.5 83q65 31 123 48.5t101 21.5v173z" />
    <glyph glyph-name="uniFEA5" unicode="&#x62e;" horiz-adv-x="1370" arabic-form="isolated" 
d="M578 1315l-145 -145l145 -145l145 145zM1249 611q-80 3 -167 29.5t-173.5 65t-167 76t-148.5 62.5t-118 25q-118 0 -207.5 -60t-161.5 -176l-15 -24l153 -75l27 34q46 58 94 89.5t109 31.5q24 0 83.5 -21.5t139 -53.5t161.5 -66q-190 -42 -332.5 -113.5t-237 -166
t-141.5 -207t-47 -236.5q0 -134 49.5 -231.5t139.5 -160.5t211.5 -93.5t265.5 -30.5q139 0 273.5 25.5t239.5 74.5l-45 167q-103 -48 -221.5 -70.5t-231.5 -22.5q-171 0 -285 39.5t-170.5 117.5t-56.5 194q0 96 46 181t132.5 156.5t207 126.5t271 91t323.5 50v172z" />
    <glyph glyph-name="uniFEA6" unicode="&#x62e;" horiz-adv-x="1409" arabic-form="final" 
d="M578 1315l-145 -145l145 -145l145 145zM100 -175q0 -134 49.5 -231.5t139.5 -160.5t211.5 -93.5t265.5 -30.5q139 0 273.5 25.5t239.5 74.5l-45 167q-103 -48 -221.5 -70.5t-231.5 -22.5q-171 0 -285 39.5t-170.5 117.5t-56.5 194q0 80 36 159t111 151.5t192 133.5
t278 104q0 -153 51.5 -236t155 -114.5t258.5 -31.5h78v182h-81q-102 0 -173 13t-107.5 61.5t-36.5 154.5q49 10 106 17t112 11v172q-80 3 -167 29.5t-173.5 65t-167 76t-148.5 62.5t-118 25q-118 0 -210.5 -64.5t-158.5 -171.5l-15 -24l153 -75l27 34q39 50 90.5 85.5
t112.5 35.5q24 0 83.5 -21.5t139 -53.5t161.5 -66q-190 -42 -332.5 -113.5t-237 -166t-141.5 -207t-47 -236.5z" />
    <glyph glyph-name="uniFEA7" unicode="&#x62e;" horiz-adv-x="1372" arabic-form="initial" 
d="M603 1270l-145 -145l145 -145l145 145zM-20 182v-182h167q141 0 254.5 24.5t223 72t237.5 115.5q106 56 185 92t137 54.5t100 23.5v173q-80 3 -168 29.5t-176 65t-170 76t-151 62.5t-119 25q-118 0 -205.5 -64.5t-153.5 -171.5l-15 -24l153 -75l27 34q39 50 85.5 85.5
t107.5 35.5q21 0 72 -17.5t119.5 -44.5t144.5 -57.5t147 -56.5q-127 -58 -229.5 -108.5t-196 -87.5t-191.5 -58t-215 -21h-170z" />
    <glyph glyph-name="uniFEA8" unicode="&#x62e;" horiz-adv-x="1396" arabic-form="medial" 
d="M603 1270l-145 -145l145 -145l145 145zM1284 555q-80 3 -168 29.5t-176 65t-170 76t-151 62.5t-119 25q-118 0 -205.5 -64.5t-153.5 -171.5l-15 -24l153 -75l27 34q39 50 85.5 85.5t107.5 35.5q21 0 72 -17.5t119.5 -44.5t144.5 -57.5t147 -56.5q-127 -58 -229.5 -108.5
t-196 -87.5t-191.5 -58t-215 -21h-170v-182h167q143 0 271.5 32t254 88t257.5 128q14 -93 62.5 -147.5t138.5 -77.5t226 -23h59v182h-55q-95 0 -162 9.5t-102.5 37.5t-36.5 83q65 31 123 48.5t101 21.5v173z" />
    <glyph glyph-name="uniFEA9" unicode="&#x62f;" horiz-adv-x="980" arabic-form="isolated" 
d="M326 180q-49 0 -105.5 7t-121.5 20v-181q54 -12 115.5 -18t126.5 -6q188 0 307 42.5t176 127.5t57 210q0 79 -31 154.5t-93.5 148.5t-158 142t-223.5 135l-79 -158q148 -81 239 -154.5t133 -140.5t42 -130q0 -66 -42 -110t-127 -66.5t-215 -22.5z" />
    <glyph glyph-name="uniFEAA" unicode="&#x62f;" horiz-adv-x="1089" arabic-form="final" 
d="M675 364q0 -60 -39.5 -101t-119 -62t-200.5 -21q-51 0 -103.5 6.5t-113.5 20.5v-181q50 -12 106 -18.5t126 -6.5q108 0 191.5 18t147 56t110.5 97q37 -58 73 -96t85.5 -57t128.5 -19h42v182h-42q-43 0 -76.5 21.5t-68 79.5t-80.5 166l-227 534l-156 -73l177 -401
q16 -36 27.5 -77.5t11.5 -67.5z" />
    <glyph glyph-name="uniFEAB" unicode="&#x630;" horiz-adv-x="980" arabic-form="isolated" 
d="M368 1407l-145 -145l145 -145l145 145zM326 180q-49 0 -105.5 7t-121.5 20v-181q54 -12 115.5 -18t126.5 -6q188 0 307 42.5t176 127.5t57 210q0 79 -31 154.5t-93.5 148.5t-158 142t-223.5 135l-79 -158q148 -81 239 -154.5t133 -140.5t42 -130q0 -66 -42 -110
t-127 -66.5t-215 -22.5z" />
    <glyph glyph-name="uniFEAC" unicode="&#x630;" horiz-adv-x="1089" arabic-form="final" 
d="M505 1420l-145 -145l145 -145l145 145zM675 364q0 -60 -39.5 -101t-119 -62t-200.5 -21q-51 0 -103.5 6.5t-113.5 20.5v-181q50 -12 106 -18.5t126 -6.5q108 0 191.5 18t147 56t110.5 97q37 -58 73 -96t85.5 -57t128.5 -19h42v182h-42q-43 0 -76.5 21.5t-68 79.5
t-80.5 166l-227 534l-156 -73l177 -401q16 -36 27.5 -77.5t11.5 -67.5z" />
    <glyph glyph-name="uniFEAD" unicode="&#x631;" horiz-adv-x="701" arabic-form="isolated" 
d="M47 -538q191 37 313.5 136.5t181 242t58.5 309.5q0 95 -18.5 195t-53.5 200l-166 -56q33 -97 51.5 -190.5t18.5 -178.5q0 -121 -43.5 -221t-140.5 -171.5t-260 -106.5z" />
    <glyph glyph-name="uniFEAE" unicode="&#x631;" horiz-adv-x="791" arabic-form="final" 
d="M784 0h27v182h-38q-73 0 -121 35t-70 119l-54 209l-166 -56q33 -97 51.5 -190.5t18.5 -178.5q0 -121 -43.5 -221t-140.5 -171.5t-260 -106.5l59 -158q189 37 304 128t172.5 213.5t72.5 253.5q26 -21 72.5 -39.5t115.5 -18.5z" />
    <glyph glyph-name="uniFEAF" unicode="&#x632;" horiz-adv-x="701" arabic-form="isolated" 
d="M413 1029l-145 -145l145 -145l145 145zM47 -538q191 37 313.5 136.5t181 242t58.5 309.5q0 95 -18.5 195t-53.5 200l-166 -56q33 -97 51.5 -190.5t18.5 -178.5q0 -121 -43.5 -221t-140.5 -171.5t-260 -106.5z" />
    <glyph glyph-name="uniFEB0" unicode="&#x632;" horiz-adv-x="791" arabic-form="final" 
d="M413 1029l-145 -145l145 -145l145 145zM784 0h27v182h-38q-73 0 -121 35t-70 119l-54 209l-166 -56q33 -97 51.5 -190.5t18.5 -178.5q0 -121 -43.5 -221t-140.5 -171.5t-260 -106.5l59 -158q189 37 304 128t172.5 213.5t72.5 253.5q26 -21 72.5 -39.5t115.5 -18.5z" />
    <glyph glyph-name="uniFEB1" unicode="&#x633;" horiz-adv-x="2420" arabic-form="isolated" 
d="M1482 0q80 0 148.5 36t124.5 117q37 -73 96 -113t155 -40q118 1 186.5 59.5t98.5 153.5t30 203q0 75 -11 150.5t-29 142.5l-171 -46q8 -31 17 -76.5t16 -96.5t7 -101q0 -55 -13.5 -102.5t-45 -76t-86.5 -28.5q-85 0 -123 56.5t-43 137.5l-16 209l-167 -21q4 -42 6 -71.5
t3 -50.5t1 -39q0 -107 -38 -164t-144 -57q-93 0 -149 44t-84 131l-60 189l-171 -69q28 -74 60 -190t32 -235q0 -101 -36.5 -189.5t-128 -143t-258.5 -54.5q-159 0 -250 53t-129.5 142t-38.5 197q0 91 20 188t49 189l-159 64q-38 -106 -60 -217.5t-22 -217.5
q0 -157 57.5 -288.5t187 -210.5t345.5 -79q208 0 339.5 73t194.5 202.5t64 296.5q32 -24 80 -40.5t115 -16.5z" />
    <glyph glyph-name="uniFEB2" unicode="&#x633;" horiz-adv-x="2533" arabic-form="final" 
d="M689 -335q-159 0 -250 53t-129.5 142t-38.5 197q0 91 20 188t49 189l-159 64q-38 -106 -60 -217.5t-22 -217.5q0 -157 57.5 -288.5t187 -210.5t345.5 -79q208 0 339.5 73t194.5 202.5t64 296.5q32 -24 80 -40.5t114 -16.5q80 0 148.5 36t124.5 117q37 -73 96 -113
t155 -40q98 0 152.5 40t96.5 114q26 -77 96 -115.5t175 -38.5h28v182h-30q-91 0 -141.5 49t-56.5 145l-16 225l-167 -20q5 -64 7.5 -103t2.5 -75q0 -72 -16.5 -121t-49 -74.5t-82.5 -25.5q-85 0 -123 56.5t-43 137.5l-16 209l-167 -21q4 -42 6 -71.5t3 -50.5t1 -39
q0 -107 -38 -164t-144 -57q-92 0 -148 44t-84 131l-60 189l-171 -69q28 -74 60 -190t32 -235q0 -101 -36.5 -189.5t-128 -143t-258.5 -54.5z" />
    <glyph glyph-name="uniFEB3" unicode="&#x633;" horiz-adv-x="1615" arabic-form="initial" 
d="M677 0q80 0 148.5 36t124.5 117q37 -73 96 -113t155 -40q118 1 186.5 59.5t98.5 153.5t30 203q0 75 -11 150.5t-29 142.5l-171 -46q8 -31 17 -76.5t16 -96.5t7 -101q0 -55 -13.5 -102.5t-45 -76t-86.5 -28.5q-85 0 -123 56.5t-43 137.5l-16 209l-167 -21q4 -42 6 -71.5
t3 -50.5t1 -39q0 -107 -38 -164t-144 -57q-89 0 -134.5 55t-51.5 139l-16 209l-167 -21q4 -42 6 -71.5t3 -50.5t1 -39q0 -84 -26 -132t-80 -68.5t-140 -20.5h-94v-182h92q135 0 208 39.5t120 113.5q37 -74 99.5 -113.5t177.5 -39.5z" />
    <glyph glyph-name="uniFEB4" unicode="&#x633;" horiz-adv-x="1729" arabic-form="medial" 
d="M1201 0q98 0 152.5 40t96.5 114q26 -77 96 -115.5t175 -38.5h28v182h-30q-91 0 -141.5 49t-56.5 145l-16 225l-167 -20q5 -64 7.5 -103t2.5 -75q0 -72 -16.5 -121t-49 -74.5t-82.5 -25.5q-85 0 -123 56.5t-43 137.5l-16 209l-167 -21q4 -42 6 -71.5t3 -50.5t1 -39
q0 -107 -38 -164t-144 -57q-89 0 -134.5 55t-51.5 139l-16 209l-167 -21q4 -42 6 -71.5t3 -50.5t1 -39q0 -84 -26 -132t-80 -68.5t-140 -20.5h-94v-182h92q135 0 208 39.5t120 113.5q37 -74 99.5 -113.5t177.5 -39.5q80 0 148.5 36t124.5 117q37 -73 96 -113t155 -40z" />
    <glyph glyph-name="uniFEB5" unicode="&#x634;" horiz-adv-x="2420" arabic-form="isolated" 
d="M1696 1315l-135 -135l135 -135l135 135zM1867 1062l-135 -135l135 -135l135 135zM1525 1062l-135 -135l135 -135l135 135zM1482 0q80 0 148.5 36t124.5 117q37 -73 96 -113t155 -40q118 1 186.5 59.5t98.5 153.5t30 203q0 75 -11 150.5t-29 142.5l-171 -46
q8 -31 17 -76.5t16 -96.5t7 -101q0 -55 -13.5 -102.5t-45 -76t-86.5 -28.5q-85 0 -123 56.5t-43 137.5l-16 209l-167 -21q4 -42 6 -71.5t3 -50.5t1 -39q0 -107 -38 -164t-144 -57q-93 0 -149 44t-84 131l-60 189l-171 -69q28 -74 60 -190t32 -235q0 -101 -36.5 -189.5
t-128 -143t-258.5 -54.5q-159 0 -250 53t-129.5 142t-38.5 197q0 91 20 188t49 189l-159 64q-38 -106 -60 -217.5t-22 -217.5q0 -157 57.5 -288.5t187 -210.5t345.5 -79q208 0 339.5 73t194.5 202.5t64 296.5q32 -24 80 -40.5t115 -16.5z" />
    <glyph glyph-name="uniFEB6" unicode="&#x634;" horiz-adv-x="2533" arabic-form="final" 
d="M1696 1315l-135 -135l135 -135l135 135zM1867 1062l-135 -135l135 -135l135 135zM1525 1062l-135 -135l135 -135l135 135zM689 -335q-159 0 -250 53t-129.5 142t-38.5 197q0 91 20 188t49 189l-159 64q-38 -106 -60 -217.5t-22 -217.5q0 -157 57.5 -288.5t187 -210.5
t345.5 -79q208 0 339.5 73t194.5 202.5t64 296.5q32 -24 80 -40.5t114 -16.5q80 0 148.5 36t124.5 117q37 -73 96 -113t155 -40q98 0 152.5 40t96.5 114q26 -77 96 -115.5t175 -38.5h28v182h-30q-91 0 -141.5 49t-56.5 145l-16 225l-167 -20q5 -64 7.5 -103t2.5 -75
q0 -72 -16.5 -121t-49 -74.5t-82.5 -25.5q-85 0 -123 56.5t-43 137.5l-16 209l-167 -21q4 -42 6 -71.5t3 -50.5t1 -39q0 -107 -38 -164t-144 -57q-92 0 -148 44t-84 131l-60 189l-171 -69q28 -74 60 -190t32 -235q0 -101 -36.5 -189.5t-128 -143t-258.5 -54.5z" />
    <glyph glyph-name="uniFEB7" unicode="&#x634;" horiz-adv-x="1615" arabic-form="initial" 
d="M891 1315l-135 -135l135 -135l135 135zM1062 1062l-135 -135l135 -135l135 135zM720 1062l-135 -135l135 -135l135 135zM677 0q80 0 148.5 36t124.5 117q37 -73 96 -113t155 -40q118 1 186.5 59.5t98.5 153.5t30 203q0 75 -11 150.5t-29 142.5l-171 -46q8 -31 17 -76.5
t16 -96.5t7 -101q0 -55 -13.5 -102.5t-45 -76t-86.5 -28.5q-85 0 -123 56.5t-43 137.5l-16 209l-167 -21q4 -42 6 -71.5t3 -50.5t1 -39q0 -107 -38 -164t-144 -57q-89 0 -134.5 55t-51.5 139l-16 209l-167 -21q4 -42 6 -71.5t3 -50.5t1 -39q0 -84 -26 -132t-80 -68.5
t-140 -20.5h-94v-182h92q135 0 208 39.5t120 113.5q37 -74 99.5 -113.5t177.5 -39.5z" />
    <glyph glyph-name="uniFEB8" unicode="&#x634;" horiz-adv-x="1729" arabic-form="medial" 
d="M891 1315l-135 -135l135 -135l135 135zM1062 1062l-135 -135l135 -135l135 135zM720 1062l-135 -135l135 -135l135 135zM1201 0q98 0 152.5 40t96.5 114q26 -77 96 -115.5t175 -38.5h28v182h-30q-91 0 -141.5 49t-56.5 145l-16 225l-167 -20q5 -64 7.5 -103t2.5 -75
q0 -72 -16.5 -121t-49 -74.5t-82.5 -25.5q-85 0 -123 56.5t-43 137.5l-16 209l-167 -21q4 -42 6 -71.5t3 -50.5t1 -39q0 -107 -38 -164t-144 -57q-89 0 -134.5 55t-51.5 139l-16 209l-167 -21q4 -42 6 -71.5t3 -50.5t1 -39q0 -84 -26 -132t-80 -68.5t-140 -20.5h-94v-182h92
q135 0 208 39.5t120 113.5q37 -74 99.5 -113.5t177.5 -39.5q80 0 148.5 36t124.5 117q37 -73 96 -113t155 -40z" />
    <glyph glyph-name="uniFEB9" unicode="&#x635;" horiz-adv-x="2555" arabic-form="isolated" 
d="M689 -515q208 0 339.5 73t194.5 202.5t64 296.5q41 -15 94.5 -28t123.5 -21t160 -8h53q185 0 323.5 26t230.5 79.5t138 134.5t46 190q0 107 -50 192t-138 134.5t-202 49.5q-86 0 -172 -36t-172.5 -109t-174 -184.5t-176.5 -263.5q-37 0 -68 39t-52 105l-60 189l-171 -69
q28 -74 60 -190t32 -235q0 -101 -36.5 -189.5t-128 -143t-258.5 -54.5q-159 0 -250 53t-129.5 142t-38.5 197q0 91 20 188t49 189l-159 64q-38 -106 -60 -217.5t-22 -217.5q0 -157 57.5 -288.5t187 -210.5t345.5 -79zM2073 624q93 0 150 -58t57 -146q0 -62 -35 -107
t-105.5 -74t-176.5 -43t-249 -14h-161q70 110 137.5 193t133 138.5t128 83t121.5 27.5z" />
    <glyph glyph-name="uniFEBA" unicode="&#x635;" horiz-adv-x="2602" arabic-form="final" 
d="M689 -335q-159 0 -250 53t-129.5 142t-38.5 197q0 91 20 188t49 189l-159 64q-38 -106 -60 -217.5t-22 -217.5q0 -157 57.5 -288.5t187 -210.5t345.5 -79q208 0 339.5 73t194.5 202.5t64 296.5q41 -15 94.5 -28t123.5 -21t160 -8h53q177 0 311 26t216 72q56 -46 139 -72
t210 -26h28v182h-29q-61 0 -101.5 2.5t-67 7t-45.5 9.5q38 50 57 107t20 122q0 107 -50 192t-138 134.5t-202 49.5q-86 0 -172 -36t-172.5 -109t-174 -184.5t-176.5 -263.5q-37 0 -67 39t-52 105l-61 189l-171 -69q28 -74 60 -190t32 -235q0 -101 -36.5 -189.5t-128 -143
t-258.5 -54.5zM2073 624q93 0 150 -58t57 -146q0 -62 -35 -107t-105.5 -74t-176.5 -43t-249 -14h-161q70 110 137.5 193t133 138.5t128 83t121.5 27.5z" />
    <glyph glyph-name="uniFEBB" unicode="&#x635;" horiz-adv-x="1713" arabic-form="initial" 
d="M1232 624q93 0 149.5 -58t56.5 -146q0 -62 -35 -107t-105 -74t-176 -43t-249 -14h-162q70 110 138 193t133.5 138.5t128 83t121.5 27.5zM530 213q-48 0 -71 48.5t-28 115.5l-15 234l-167 -20q2 -47 5.5 -88t3.5 -89q0 -113 -48.5 -172.5t-188.5 -59.5h-40l-1 -182h41
q120 0 192.5 36.5t130.5 115.5q31 -48 89 -82t154 -52t237 -18h53q185 0 323.5 26t230.5 79.5t138 134.5t46 190q0 107 -50 192t-138.5 134.5t-202.5 49.5q-86 0 -172 -36t-172 -109t-173.5 -184.5t-176.5 -263.5z" />
    <glyph glyph-name="uniFEBC" unicode="&#x635;" horiz-adv-x="1761" arabic-form="medial" 
d="M1232 624q93 0 149.5 -58t56.5 -146q0 -62 -35 -107t-105 -74t-176 -43t-249 -14h-162q70 110 138 193t133.5 138.5t128 83t121.5 27.5zM877 0q177 0 311 26t216 72q56 -46 138.5 -72t209.5 -26h29v182h-30q-61 0 -101 2.5t-66.5 7t-45.5 9.5q38 50 57 107t20 122
q0 107 -50 192t-138.5 134.5t-202.5 49.5q-86 0 -171.5 -36t-172 -109t-174 -184.5t-176.5 -263.5q-48 0 -71 48.5t-28 115.5l-15 234l-167 -20q2 -47 5.5 -88t3.5 -89q0 -113 -48.5 -172.5t-188.5 -59.5h-40l-1 -182h41q120 0 192.5 36.5t130.5 115.5q31 -48 89 -82
t154 -52t237 -18h53z" />
    <glyph glyph-name="uniFEBD" unicode="&#x636;" horiz-adv-x="2555" arabic-form="isolated" 
d="M2035 1293l-145 -145l145 -145l145 145zM689 -515q208 0 339.5 73t194.5 202.5t64 296.5q41 -15 94.5 -28t123.5 -21t160 -8h53q185 0 323.5 26t230.5 79.5t138 134.5t46 190q0 107 -50 192t-138 134.5t-202 49.5q-86 0 -172 -36t-172.5 -109t-174 -184.5t-176.5 -263.5
q-37 0 -68 39t-52 105l-60 189l-171 -69q28 -74 60 -190t32 -235q0 -101 -36.5 -189.5t-128 -143t-258.5 -54.5q-159 0 -250 53t-129.5 142t-38.5 197q0 91 20 188t49 189l-159 64q-38 -106 -60 -217.5t-22 -217.5q0 -157 57.5 -288.5t187 -210.5t345.5 -79zM2073 624
q93 0 150 -58t57 -146q0 -62 -35 -107t-105.5 -74t-176.5 -43t-249 -14h-161q70 110 137.5 193t133 138.5t128 83t121.5 27.5z" />
    <glyph glyph-name="uniFEBE" unicode="&#x636;" horiz-adv-x="2602" arabic-form="final" 
d="M2035 1293l-145 -145l145 -145l145 145zM689 -335q-159 0 -250 53t-129.5 142t-38.5 197q0 91 20 188t49 189l-159 64q-38 -106 -60 -217.5t-22 -217.5q0 -157 57.5 -288.5t187 -210.5t345.5 -79q208 0 339.5 73t194.5 202.5t64 296.5q41 -15 94.5 -28t123.5 -21t160 -8
h53q177 0 311 26t216 72q56 -46 139 -72t210 -26h28v182h-29q-61 0 -101.5 2.5t-67 7t-45.5 9.5q38 50 57 107t20 122q0 107 -50 192t-138 134.5t-202 49.5q-86 0 -172 -36t-172.5 -109t-174 -184.5t-176.5 -263.5q-37 0 -67 39t-52 105l-61 189l-171 -69q28 -74 60 -190
t32 -235q0 -101 -36.5 -189.5t-128 -143t-258.5 -54.5zM2073 624q93 0 150 -58t57 -146q0 -62 -35 -107t-105.5 -74t-176.5 -43t-249 -14h-161q70 110 137.5 193t133 138.5t128 83t121.5 27.5z" />
    <glyph glyph-name="uniFEBF" unicode="&#x636;" horiz-adv-x="1713" arabic-form="initial" 
d="M1183 1293l-145 -145l145 -145l145 145zM1232 624q93 0 149.5 -58t56.5 -146q0 -62 -35 -107t-105 -74t-176 -43t-249 -14h-162q70 110 138 193t133.5 138.5t128 83t121.5 27.5zM530 213q-48 0 -71 48.5t-28 115.5l-15 234l-167 -20q2 -47 5.5 -88t3.5 -89
q0 -113 -48.5 -172.5t-188.5 -59.5h-40l-1 -182h41q120 0 192.5 36.5t130.5 115.5q31 -48 89 -82t154 -52t237 -18h53q185 0 323.5 26t230.5 79.5t138 134.5t46 190q0 107 -50 192t-138.5 134.5t-202.5 49.5q-86 0 -172 -36t-172 -109t-173.5 -184.5t-176.5 -263.5z" />
    <glyph glyph-name="uniFEC0" unicode="&#x636;" horiz-adv-x="1761" arabic-form="medial" 
d="M1183 1293l-145 -145l145 -145l145 145zM1232 624q93 0 149.5 -58t56.5 -146q0 -62 -35 -107t-105 -74t-176 -43t-249 -14h-162q70 110 138 193t133.5 138.5t128 83t121.5 27.5zM877 0q177 0 311 26t216 72q56 -46 138.5 -72t209.5 -26h29v182h-30q-61 0 -101 2.5
t-66.5 7t-45.5 9.5q38 50 57 107t20 122q0 107 -50 192t-138.5 134.5t-202.5 49.5q-86 0 -171.5 -36t-172 -109t-174 -184.5t-176.5 -263.5q-48 0 -71 48.5t-28 115.5l-15 234l-167 -20q2 -47 5.5 -88t3.5 -89q0 -113 -48.5 -172.5t-188.5 -59.5h-40l-1 -182h41
q120 0 192.5 36.5t130.5 115.5q31 -48 89 -82t154 -52t237 -18h53z" />
    <glyph glyph-name="uniFEC1" unicode="&#x637;" horiz-adv-x="1516" arabic-form="isolated" 
d="M1034 624q93 0 150 -58t57 -146q0 -62 -35 -107t-105.5 -74t-176.5 -43t-249 -14l-161 1q70 110 137.5 193t133 138t128 82.5t121.5 27.5zM331 182h-232v-182h580q185 0 323 26t230 79.5t138 134.5t47 190q0 110 -49 194.5t-137.5 132.5t-206.5 48q-58 0 -114.5 -16.5
t-111.5 -48.5t-109 -80.5t-108 -113.5v831h-170v-1069q-19 -31 -40 -62.5t-40 -63.5z" />
    <glyph glyph-name="uniFEC2" unicode="&#x637;" horiz-adv-x="1564" arabic-form="final" 
d="M1034 624q93 0 150 -58t57 -146q0 -62 -35 -107t-105.5 -74t-176.5 -43t-249 -14h-161q70 110 137.5 193t133 138.5t128 83t121.5 27.5zM1030 806q-61 0 -118.5 -16.5t-113 -49t-109.5 -81t-108 -113.5v831h-170v-1069q-19 -31 -40 -62.5t-40 -63.5h-232v-182h580
q177 0 311 26t216 72q56 -46 139 -72t210 -26h29v182h-30q-61 0 -101.5 2.5t-67 7t-45.5 9.5q38 50 57 107t20 122q0 107 -49.5 192t-137 134.5t-200.5 49.5z" />
    <glyph glyph-name="uniFEC3" unicode="&#x637;" horiz-adv-x="1334" arabic-form="initial" 
d="M852 624q93 0 150 -58t57 -146q0 -62 -35 -107t-105 -74t-176 -43t-249 -14h-162q70 110 137.5 193t133 138.5t128 83t121.5 27.5zM150 182h-170v-182h518q185 0 323 26t230 79.5t138 134.5t47 190q0 110 -49.5 194.5t-138 132.5t-206.5 48q-58 0 -114.5 -16.5
t-111.5 -48.5t-109 -80.5t-108 -113.5v831h-169v-1069q-19 -31 -40 -62.5t-40 -63.5z" />
    <glyph glyph-name="uniFEC4" unicode="&#x637;" horiz-adv-x="1382" arabic-form="medial" 
d="M852 624q93 0 150 -58t57 -146q0 -62 -35 -107t-105 -74t-176 -43t-249 -14h-162q70 110 137.5 193t133 138.5t128 83t121.5 27.5zM848 806q-61 0 -118.5 -16.5t-113 -49t-109.5 -81t-108 -113.5v831h-169v-1069q-19 -31 -40 -62.5t-40 -63.5h-170v-182h518q177 0 311 26
t216 72q56 -46 138.5 -72t209.5 -26h29v182h-30q-61 0 -101.5 2.5t-67 7t-45.5 9.5q38 50 57.5 107t20.5 122q0 107 -50 192t-137.5 134.5t-200.5 49.5z" />
    <glyph glyph-name="uniFEC5" unicode="&#x638;" horiz-adv-x="1516" arabic-form="isolated" 
d="M1012 1293l-145 -145l145 -145l145 145zM1034 624q93 0 150 -58t57 -146q0 -62 -35 -107t-105.5 -74t-176.5 -43t-249 -14l-161 1q70 110 137.5 193t133 138t128 82.5t121.5 27.5zM331 182h-232v-182h580q185 0 323 26t230 79.5t138 134.5t47 190q0 110 -49 194.5
t-137.5 132.5t-206.5 48q-58 0 -114.5 -16.5t-111.5 -48.5t-109 -80.5t-108 -113.5v831h-170v-1069q-19 -31 -40 -62.5t-40 -63.5z" />
    <glyph glyph-name="uniFEC6" unicode="&#x638;" horiz-adv-x="1564" arabic-form="final" 
d="M1011 1293l-145 -145l145 -145l145 145zM1034 624q93 0 150 -58t57 -146q0 -62 -35 -107t-105.5 -74t-176.5 -43t-249 -14h-161q70 110 137.5 193t133 138.5t128 83t121.5 27.5zM1030 806q-61 0 -118.5 -16.5t-113 -49t-109.5 -81t-108 -113.5v831h-170v-1069
q-19 -31 -40 -62.5t-40 -63.5h-232v-182h580q177 0 311 26t216 72q56 -46 139 -72t210 -26h29v182h-30q-61 0 -101.5 2.5t-67 7t-45.5 9.5q38 50 57 107t20 122q0 107 -49.5 192t-137 134.5t-200.5 49.5z" />
    <glyph glyph-name="uniFEC7" unicode="&#x638;" horiz-adv-x="1334" arabic-form="initial" 
d="M834 1293l-145 -145l145 -145l145 145zM852 624q93 0 150 -58t57 -146q0 -62 -35 -107t-105 -74t-176 -43t-249 -14h-162q70 110 137.5 193t133 138.5t128 83t121.5 27.5zM150 182h-170v-182h518q185 0 323 26t230 79.5t138 134.5t47 190q0 110 -49.5 194.5t-138 132.5
t-206.5 48q-58 0 -114.5 -16.5t-111.5 -48.5t-109 -80.5t-108 -113.5v831h-169v-1069q-19 -31 -40 -62.5t-40 -63.5z" />
    <glyph glyph-name="uniFEC8" unicode="&#x638;" horiz-adv-x="1382" arabic-form="medial" 
d="M834 1293l-145 -145l145 -145l145 145zM852 624q93 0 150 -58t57 -146q0 -62 -35 -107t-105 -74t-176 -43t-249 -14h-162q70 110 137.5 193t133 138.5t128 83t121.5 27.5zM848 806q-61 0 -118.5 -16.5t-113 -49t-109.5 -81t-108 -113.5v831h-169v-1069q-19 -31 -40 -62.5
t-40 -63.5h-170v-182h518q177 0 311 26t216 72q56 -46 138.5 -72t209.5 -26h29v182h-30q-61 0 -101.5 2.5t-67 7t-45.5 9.5q38 50 57.5 107t20.5 122q0 107 -50 192t-137.5 134.5t-200.5 49.5z" />
    <glyph glyph-name="uniFEC9" unicode="&#x639;" horiz-adv-x="1267" arabic-form="isolated" 
d="M1067 416q-42 2 -63.5 3.5t-56.5 1.5q-78 0 -153 -7t-177 -21q-27 25 -56.5 55.5t-50 69.5t-20.5 90q0 99 70.5 156.5t163.5 57.5q55 0 121.5 -23.5t142.5 -68.5l66 148q-91 62 -176 93t-164 31q-105 0 -196.5 -53t-147.5 -139.5t-56 -187.5q0 -53 11.5 -100.5
t37.5 -93.5t70 -95q-123 -62 -196.5 -143t-105.5 -174t-32 -191q0 -138 51 -236t138.5 -160t198.5 -91t232 -29q116 0 232 24.5t217 70.5l-46 167q-86 -35 -196 -58t-220 -23q-115 0 -215 32t-161.5 107t-61.5 204q0 96 39.5 172t124 130t218 82t322.5 28h33.5t50.5 -2z" />
    <glyph glyph-name="uniFECA" unicode="&#x639;" horiz-adv-x="1230" arabic-form="final" 
d="M633 691q46 0 130 -7.5t158 -32.5q-48 -61 -98.5 -113.5t-93.5 -92t-69.5 -61.5l-26.5 -22l-44.5 38.5t-110.5 104t-131 146.5q74 25 157.5 32.5t128.5 7.5zM479 278q-57 -37 -122.5 -84t-124 -106t-96 -133t-37.5 -166q0 -160 74.5 -267t209.5 -160t314 -53
q113 0 216.5 17.5t188.5 48.5l-39 167q-90 -30 -182 -44.5t-179 -14.5q-144 0 -240.5 37.5t-144.5 106.5t-48 162q0 53 24.5 102t71 96t111 92.5t144.5 90.5q104 -72 195.5 -108.5t182.5 -49t192 -12.5h60v182h-60q-136 0 -235 16t-183 68q37 30 81.5 74t88.5 94t80.5 98.5
t58.5 89t22 63.5q0 41 -44 74t-114.5 56t-152.5 35.5t-159 12.5q-78 0 -160 -12.5t-152.5 -35.5t-113.5 -56t-43 -74q0 -23 21.5 -62t56.5 -86t77 -95t84 -91t76 -73z" />
    <glyph glyph-name="uniFECB" unicode="&#x639;" horiz-adv-x="1068" arabic-form="initial" 
d="M287 182h-307v-182h109q104 0 208 9t211.5 27.5t222 46.5t238.5 66v182l-423 -101q-10 -3 -19 -4t-16 -1q-13 0 -51 31.5t-71.5 88.5t-33.5 131q0 64 33 110.5t86.5 72.5t114.5 26q55 0 121 -23.5t142 -68.5l67 149q-91 62 -176.5 93t-164.5 31q-105 0 -196 -51
t-147 -138t-56 -194q0 -54 14.5 -109.5t39 -104.5t54.5 -87z" />
    <glyph glyph-name="uniFECC" unicode="&#x639;" horiz-adv-x="1172" arabic-form="medial" 
d="M622 610q46 0 130 -7t158 -32q-48 -61 -98.5 -113.5t-93.5 -92t-69.5 -61.5l-26.5 -22l-44.5 38.5t-110.5 103.5t-131 147q74 25 157.5 32t128.5 7zM622 782q-78 0 -160 -12.5t-152.5 -35.5t-113.5 -56t-43 -74q0 -23 20.5 -61t54 -83t73.5 -92t81 -88.5t75 -71.5
q-46 -12 -107.5 -17.5t-119 -7t-91.5 -1.5h-159v-182h158q70 0 157.5 11t174 35t152.5 62q101 -58 205.5 -83t209.5 -25h155v182h-156q-51 0 -114 4t-133 22q34 30 75 71.5t81 88.5t73.5 92t53.5 83t20 61q0 41 -44 74t-114.5 56t-152.5 35.5t-159 12.5z" />
    <glyph glyph-name="uniFECD" unicode="&#x63a;" horiz-adv-x="1267" arabic-form="isolated" 
d="M678 1450l-145 -145l145 -145l145 145zM1067 416q-42 2 -63.5 3.5t-56.5 1.5q-78 0 -153 -7t-177 -21q-27 25 -56.5 55.5t-50 69.5t-20.5 90q0 99 70.5 156.5t163.5 57.5q55 0 121.5 -23.5t142.5 -68.5l66 148q-91 62 -176 93t-164 31q-105 0 -196.5 -53t-147.5 -139.5
t-56 -187.5q0 -53 11.5 -100.5t37.5 -93.5t70 -95q-123 -62 -196.5 -143t-105.5 -174t-32 -191q0 -138 51 -236t138.5 -160t198.5 -91t232 -29q116 0 232 24.5t217 70.5l-46 167q-86 -35 -196 -58t-220 -23q-115 0 -215 32t-161.5 107t-61.5 204q0 96 39.5 172t124 130
t218 82t322.5 28h33.5t50.5 -2z" />
    <glyph glyph-name="uniFECE" unicode="&#x63a;" horiz-adv-x="1230" arabic-form="final" 
d="M622 1323l-145 -145l145 -145l145 145zM633 691q46 0 130 -7.5t158 -32.5q-48 -61 -98.5 -113.5t-93.5 -92t-69.5 -61.5l-26.5 -22l-44.5 38.5t-110.5 104t-131 146.5q74 25 157.5 32.5t128.5 7.5zM479 278q-57 -37 -122.5 -84t-124 -106t-96 -133t-37.5 -166
q0 -160 74.5 -267t209.5 -160t314 -53q113 0 216.5 17.5t188.5 48.5l-39 167q-90 -30 -182 -44.5t-179 -14.5q-144 0 -240.5 37.5t-144.5 106.5t-48 162q0 53 24.5 102t71 96t111 92.5t144.5 90.5q104 -72 195.5 -108.5t182.5 -49t192 -12.5h60v182h-60q-136 0 -235 16
t-183 68q37 30 81.5 74t88.5 94t80.5 98.5t58.5 89t22 63.5q0 41 -44 74t-114.5 56t-152.5 35.5t-159 12.5q-78 0 -160 -12.5t-152.5 -35.5t-113.5 -56t-43 -74q0 -23 21.5 -62t56.5 -86t77 -95t84 -91t76 -73z" />
    <glyph glyph-name="uniFECF" unicode="&#x63a;" horiz-adv-x="1068" arabic-form="initial" 
d="M560 1331l-145 -145l145 -145l145 145zM287 182h-307v-182h109q104 0 208 9t211.5 27.5t222 46.5t238.5 66v182l-423 -101q-10 -3 -19 -4t-16 -1q-13 0 -51 31.5t-71.5 88.5t-33.5 131q0 64 33 110.5t86.5 72.5t114.5 26q55 0 121 -23.5t142 -68.5l67 149
q-91 62 -176.5 93t-164.5 31q-105 0 -196 -51t-147 -138t-56 -194q0 -54 14.5 -109.5t39 -104.5t54.5 -87z" />
    <glyph glyph-name="uniFED0" unicode="&#x63a;" horiz-adv-x="1172" arabic-form="medial" 
d="M619 1257l-145 -145l145 -145l145 145zM622 610q46 0 130 -7t158 -32q-48 -61 -98.5 -113.5t-93.5 -92t-69.5 -61.5l-26.5 -22l-44.5 38.5t-110.5 103.5t-131 147q74 25 157.5 32t128.5 7zM622 782q-78 0 -160 -12.5t-152.5 -35.5t-113.5 -56t-43 -74q0 -23 20.5 -61
t54 -83t73.5 -92t81 -88.5t75 -71.5q-46 -12 -107.5 -17.5t-119 -7t-91.5 -1.5h-159v-182h158q70 0 157.5 11t174 35t152.5 62q101 -58 205.5 -83t209.5 -25h155v182h-156q-51 0 -114 4t-133 22q34 30 75 71.5t81 88.5t73.5 92t53.5 83t20 61q0 41 -44 74t-114.5 56
t-152.5 35.5t-159 12.5z" />
    <glyph glyph-name="uniFED1" unicode="&#x641;" horiz-adv-x="1775" arabic-form="isolated" 
d="M1280 1513l-145 -145l145 -145l145 145zM1321 531q-92 0 -141.5 23t-49.5 91q0 46 16.5 100t54 93t99.5 39q53 0 89 -29t59.5 -76t37 -102.5t19.5 -108.5q-47 -13 -92 -21.5t-92 -8.5zM1516 390q0 -93 -30.5 -137.5t-100 -57.5t-187.5 -13h-343q-141 0 -249.5 12.5
t-182.5 44t-112 87.5t-38 144q0 45 10.5 95t26.5 94l-155 58q-25 -61 -40.5 -127t-15.5 -135q0 -126 46.5 -213t140 -140.5t235.5 -77.5t334 -24h331q137 0 231 16.5t151 64t82.5 139t25.5 240.5q0 113 -22 219.5t-67.5 191t-116 134.5t-168.5 50q-81 0 -143 -37.5
t-104.5 -99t-64.5 -135t-22 -144.5q0 -140 85 -210t255 -70q58 0 108.5 8t99.5 23z" />
    <glyph glyph-name="uniFED2" unicode="&#x641;" horiz-adv-x="1903" arabic-form="final" 
d="M1424 1280l-145 -145l145 -145l145 145zM1424 657q40 0 83 -29t72.5 -72t29.5 -85q0 -47 -24.5 -96t-66 -88.5t-92.5 -61.5q-43 22 -84.5 62t-68.5 88t-27 94q0 45 28.5 88t70 71.5t79.5 28.5zM855 182q-145 0 -254 12.5t-181.5 44t-109.5 87.5t-37 144q0 45 10.5 95
t26.5 94l-155 58q-25 -61 -40.5 -127t-15.5 -135q0 -126 47.5 -213t142 -140.5t236 -77.5t330.5 -24h86q31 0 87.5 3.5t126 11.5t140 22t128.5 35q77 -27 156 -43t145 -22.5t104 -6.5h95v182h-97h-50t-58.5 1t-69.5 3q41 47 70 92.5t45 92.5t16 100q0 63 -29 127
t-78.5 117.5t-113.5 86t-134 32.5q-67 0 -130 -32.5t-112 -86.5t-78 -117t-29 -125q0 -52 15.5 -100t44 -93.5t68.5 -92.5q-31 -2 -72.5 -3t-82 -1.5t-70 -0.5h-35.5h-88z" />
    <glyph glyph-name="uniFED3" unicode="&#x641;" horiz-adv-x="936" arabic-form="initial" 
d="M436 1503l-145 -145l145 -145l145 145zM483 532q-93 0 -142.5 22.5t-49.5 91.5q0 46 16.5 100t54 93t99.5 39q53 0 89 -29t59.5 -76t37 -102.5t19.5 -108.5q-46 -13 -91.5 -21.5t-91.5 -8.5zM360 182h-380v-182h368q134 0 227 17t151 64.5t84.5 139t26.5 240.5
q0 113 -22 219.5t-67.5 191t-116 134.5t-168.5 50q-107 0 -182 -64.5t-113.5 -160.5t-38.5 -192q0 -139 85.5 -209t254.5 -70q58 0 108.5 8t99.5 23q0 -94 -32.5 -138.5t-102 -57.5t-182.5 -13z" />
    <glyph glyph-name="uniFED4" unicode="&#x641;" horiz-adv-x="1019" arabic-form="medial" 
d="M532 1280l-145 -145l145 -145l145 145zM539 657q40 0 83 -29t72.5 -72t29.5 -85q0 -47 -24.5 -96t-66 -88.5t-92.5 -61.5q-43 22 -84.5 62t-68.5 88t-27 94q0 45 28.5 88t70 71.5t79.5 28.5zM894 471q0 63 -29 127t-78.5 117.5t-113.5 86t-134 32.5q-67 0 -130 -32.5
t-112 -86.5t-78 -117t-29 -125q0 -52 15.5 -100t44 -93.5t68.5 -92.5q-43 -2 -77.5 -3.5t-63.5 -1.5h-57h-140v-182h140q41 0 110 6.5t150 22t158 43.5q77 -27 156.5 -43t146 -22.5t104.5 -6.5h94v182h-97h-50t-59 1t-70 3q41 47 70 92.5t45 92.5t16 100z" />
    <glyph glyph-name="uniFED5" unicode="&#x642;" horiz-adv-x="1418" arabic-form="isolated" 
d="M1087 1209l-139 -139l139 -141l140 141zM755 1209l-139 -139l139 -141l140 141zM689 -442q314 0 472 153t158 449q0 116 -20.5 226t-65.5 199.5t-118 142t-178 52.5q-81 0 -143 -37.5t-104.5 -99t-64.5 -135t-22 -145.5q0 -139 85 -209.5t258 -70.5q62 0 109.5 9t99.5 24
q0 -119 -45.5 -204t-148 -129.5t-272.5 -44.5q-159 0 -250 53t-129.5 142t-38.5 197q0 91 20 188t49 189l-159 64q-38 -106 -60 -217.5t-22 -217.5q0 -157 57.5 -288.5t187 -210.5t345.5 -79zM953 255q-91 0 -140 23.5t-49 91.5q0 45 17 99.5t55 93.5t99 39q53 0 89 -29
t59.5 -76t37 -103t19.5 -109q-46 -13 -93 -21.5t-94 -8.5z" />
    <glyph glyph-name="uniFED6" unicode="&#x642;" horiz-adv-x="1409" arabic-form="final" 
d="M689 -515q194 0 333.5 61.5t214 176.5t74.5 277h118v182h-116q-2 135 -31 237.5t-80 172t-118 104.5t-145 35q-80 0 -142.5 -38t-106 -100.5t-66 -137t-22.5 -148.5q0 -154 94.5 -230.5t284.5 -76.5h170q0 -163 -114 -249t-348 -86q-159 0 -250 53t-129.5 142t-38.5 197
q0 91 20 188t49 189l-159 64q-38 -106 -60 -217.5t-22 -217.5q0 -157 57.5 -288.5t187 -210.5t345.5 -79zM971 182q-106 0 -153.5 30.5t-47.5 100.5q0 45 14.5 100.5t51 96.5t100.5 41q48 0 85 -21.5t63 -66.5t42 -115t22 -166h-177zM1089 1159l-139 -139l139 -141l140 141z
M757 1159l-139 -139l139 -141l140 141z" />
    <glyph glyph-name="uniFED7" unicode="&#x642;" horiz-adv-x="936" arabic-form="initial" 
d="M603 1484l-139 -139l139 -141l140 141zM271 1484l-139 -139l139 -141l140 141zM483 532q-93 0 -142.5 22.5t-49.5 91.5q0 46 16.5 100t54 93t99.5 39q53 0 89 -29t59.5 -76t37 -102.5t19.5 -108.5q-46 -13 -91.5 -21.5t-91.5 -8.5zM360 182h-380v-182h368q134 0 227 17
t151 64.5t84.5 139t26.5 240.5q0 113 -22 219.5t-67.5 191t-116 134.5t-168.5 50q-107 0 -182 -64.5t-113.5 -160.5t-38.5 -192q0 -139 85.5 -209t254.5 -70q58 0 108.5 8t99.5 23q0 -94 -32.5 -138.5t-102 -57.5t-182.5 -13z" />
    <glyph glyph-name="uniFED8" unicode="&#x642;" horiz-adv-x="1019" arabic-form="medial" 
d="M702 1266l-139 -139l139 -141l140 141zM370 1266l-139 -139l139 -141l140 141zM539 657q40 0 83 -29t72.5 -72t29.5 -85q0 -47 -24.5 -96t-66 -88.5t-92.5 -61.5q-43 22 -84.5 62t-68.5 88t-27 94q0 45 28.5 88t70 71.5t79.5 28.5zM894 471q0 63 -29 127t-78.5 117.5
t-113.5 86t-134 32.5q-67 0 -130 -32.5t-112 -86.5t-78 -117t-29 -125q0 -52 15.5 -100t44 -93.5t68.5 -92.5q-43 -2 -77.5 -3.5t-63.5 -1.5h-57h-140v-182h140q41 0 110 6.5t150 22t158 43.5q77 -27 156.5 -43t146 -22.5t104.5 -6.5h94v182h-97h-50t-59 1t-70 3
q41 47 70 92.5t45 92.5t16 100z" />
    <glyph glyph-name="uniFED9" unicode="&#x643;" horiz-adv-x="1804" arabic-form="isolated" 
d="M855 182q-145 0 -254 12.5t-181.5 44t-109.5 87.5t-37 144q0 45 10.5 95t26.5 94l-155 58q-25 -61 -40.5 -127t-15.5 -135q0 -126 47.5 -213t142 -140.5t236.5 -77.5t330 -24h165q216 0 343 31t189 93t80.5 155t18.5 217v881h-169v-884q0 -76 -9 -134.5t-50.5 -97.5
t-138 -59t-271.5 -20h-158zM707 610v-111q38 -6 77.5 -9.5t78.5 -3.5q67 0 125.5 14.5t94.5 51t36 102.5q0 26 -7 45.5t-20 34.5q-25 31 -65.5 47.5t-81.5 25t-69 17t-28 25.5q0 22 25.5 42t64.5 35.5t80 24t72 8.5l-7 118q-43 0 -100.5 -14t-113 -42.5t-91.5 -72.5
t-36 -106q0 -49 27.5 -77.5t68.5 -43.5t82 -24t69 -18.5t28 -28.5q0 -32 -46 -43.5t-104 -11.5q-45 0 -88.5 4.5t-71.5 10.5z" />
    <glyph glyph-name="uniFEDA" unicode="&#x643;" horiz-adv-x="1863" arabic-form="final" 
d="M855 182q-145 0 -254 12.5t-181.5 44t-109.5 87.5t-37 144q0 45 10.5 95t26.5 94l-155 58q-25 -61 -40.5 -127t-15.5 -135q0 -126 47.5 -213t142 -140.5t236.5 -77.5t330 -24h165q134 0 232.5 13.5t172 48.5t132.5 99q29 -80 97 -120.5t193 -40.5h36v182h-38
q-89 0 -130.5 36t-52.5 106t-11 172v881h-169v-884q0 -76 -9 -134.5t-50.5 -97.5t-138 -59t-271.5 -20h-158zM707 610v-111q38 -6 77.5 -9.5t78.5 -3.5q67 0 125.5 14.5t94.5 51t36 102.5q0 26 -7 45.5t-20 34.5q-25 31 -65.5 47.5t-81.5 25t-69 17t-28 25.5q0 22 25.5 42
t64.5 35.5t80 24t72 8.5l-7 118q-43 0 -100.5 -14t-113 -42.5t-91.5 -72.5t-36 -106q0 -49 27.5 -77.5t68.5 -43.5t82 -24t69 -18.5t28 -28.5q0 -32 -46 -43.5t-104 -11.5q-45 0 -88.5 4.5t-71.5 10.5z" />
    <glyph glyph-name="uniFEDB" unicode="&#x643;" horiz-adv-x="909" arabic-form="initial" 
d="M220 970l629 255v177l-719 -292q-48 -19 -70.5 -55.5t-22.5 -77.5q0 -35 17 -70t49 -61q59 -47 125.5 -94.5t129.5 -95.5t114.5 -97.5t82 -100.5t30.5 -104q0 -68 -36.5 -105.5t-116 -52t-209.5 -14.5h-243v-182h244q186 0 304 36t174.5 113t56.5 201q0 78 -33 149
t-89.5 135.5t-126.5 122.5t-145 111t-145 102z" />
    <glyph glyph-name="uniFEDC" unicode="&#x643;" horiz-adv-x="1046" arabic-form="medial" 
d="M220 970l629 255v177l-719 -292q-48 -19 -70.5 -55t-22.5 -77q0 -36 17 -71t49 -61q59 -47 125.5 -94.5t129.5 -95.5t114.5 -97.5t82 -100.5t30.5 -104q0 -68 -36.5 -105.5t-116 -52t-209.5 -14.5h-243v-182h244q147 0 239.5 20.5t150 60.5t97.5 99q61 -94 138.5 -137
t188.5 -43h28v182h-28q-71 0 -120 26t-85.5 80.5t-72.5 140.5q-30 72 -72.5 133.5t-95 115t-113 102t-126 95.5t-133.5 95z" />
    <glyph glyph-name="uniFEDD" unicode="&#x644;" horiz-adv-x="1310" arabic-form="isolated" 
d="M1158 116v1261h-169v-1279q0 -145 -40 -236.5t-120 -134.5t-200 -43q-129 0 -207.5 40.5t-114.5 117t-36 184.5q0 91 20 188t49 189l-159 64q-38 -106 -60 -217.5t-22 -217.5q0 -157 55 -276t172 -185.5t303 -66.5q173 0 290.5 65t178 200.5t60.5 346.5z" />
    <glyph glyph-name="uniFEDE" unicode="&#x644;" horiz-adv-x="1372" arabic-form="final" 
d="M629 -496q129 0 227.5 35.5t165.5 107t101 179t34 250.5q43 -41 81 -58.5t126 -17.5h28v182h-30q-121 0 -162.5 57.5t-41.5 169.5v968h-169v-1279q0 -145 -40.5 -236.5t-120.5 -134.5t-199 -43q-129 0 -207.5 40.5t-114.5 117t-36 184.5q0 91 20 188t49 189l-159 64
q-38 -106 -60 -217.5t-22 -217.5q0 -157 55 -276t172 -185.5t303 -66.5z" />
    <glyph glyph-name="uniFEDF" unicode="&#x644;" horiz-adv-x="590" arabic-form="initial" 
d="M-20 182v-182h83q194 0 284 106.5t90 314.5v956h-169v-957q0 -102 -42 -170t-162 -68h-84z" />
    <glyph glyph-name="uniFEE0" unicode="&#x644;" horiz-adv-x="651" arabic-form="medial" 
d="M268 438q0 -73 -16.5 -131t-60 -91.5t-127.5 -33.5h-84v-182h86q89 0 140.5 17.5t85 51.5t66.5 83q26 -49 63.5 -83t91 -51.5t128.5 -17.5h30v182h-32q-77 0 -121 32.5t-62.5 90t-18.5 130.5v942h-169v-939z" />
    <glyph glyph-name="uniFEE1" unicode="&#x645;" horiz-adv-x="1218" arabic-form="isolated" 
d="M950 298q0 -61 -33.5 -97.5t-100.5 -36.5q-24 0 -64.5 12.5t-96.5 35.5t-129 55q16 53 36.5 102t47 87.5t62 61t82.5 22.5q58 0 102 -32t69 -86.5t25 -123.5zM356 299q-91 -17 -143 -70.5t-76.5 -135t-31 -182.5t-6.5 -213q0 -82 3 -162.5t8 -172.5h172q-4 66 -7.5 118
t-5 105.5t-1.5 121.5q0 115 5 192.5t19 123t40 65.5t68 20q31 0 77 -19t101.5 -43.5t116 -43.5t119.5 -19q104 0 171.5 41t100.5 111.5t33 160.5q0 123 -48.5 217.5t-131.5 148.5t-189 54q-78 0 -139 -28.5t-108 -83t-83 -131.5t-64 -175z" />
    <glyph glyph-name="uniFEE2" unicode="&#x645;" horiz-adv-x="1298" arabic-form="final" 
d="M950 298q0 -61 -34 -97.5t-100 -36.5q-24 0 -64.5 12.5t-96.5 35.5t-129 55q16 53 36.5 102t47 87.5t62 61t82.5 22.5q57 0 101.5 -32t69.5 -86.5t25 -123.5zM1112 383q-13 96 -64.5 171.5t-128.5 119t-169 43.5q-78 0 -139 -28.5t-108 -83t-83 -131.5t-64 -175
q-91 -17 -143 -70.5t-76.5 -135t-31 -182.5t-6.5 -213q0 -82 3 -162.5t8 -172.5h172q-4 66 -7.5 118t-5 105.5t-1.5 121.5q0 115 5 192.5t19 123t40 65.5t68 20q31 0 77 -19t101.5 -43.5t116 -43.5t119.5 -19q98 0 161 33t97 97q39 -62 98.5 -88t120.5 -26h27v182h-27
q-44 0 -81.5 26.5t-63.5 72t-34 102.5z" />
    <glyph glyph-name="uniFEE3" unicode="&#x645;" horiz-adv-x="1092" arabic-form="initial" 
d="M630 540q91 0 142.5 -66.5t51.5 -170.5q0 -73 -36.5 -111t-111.5 -38q-29 0 -66.5 13t-79.5 40q-30 19 -61 44.5t-63 58.5q26 57 59 110t74 86.5t91 33.5zM678 -23q100 0 170.5 40.5t107.5 117t37 184.5q0 111 -45.5 201t-128 143.5t-193.5 53.5q-92 0 -154.5 -38.5
t-106.5 -99.5t-79.5 -129.5t-71.5 -129.5t-82 -99.5t-113 -38.5h-39v-182h44q73 0 122 17.5t89 51.5t83 83q61 -58 118 -97t116 -58.5t126 -19.5z" />
    <glyph glyph-name="uniFEE4" unicode="&#x645;" horiz-adv-x="1174" arabic-form="medial" 
d="M24 0q73 0 122 17.5t89 51.5t83 83q61 -58 118 -97t116 -58.5t126 -19.5q99 0 161 36.5t104 97.5q38 -58 99 -84.5t125 -26.5h27v182h-26q-43 0 -79 23t-62 68.5t-40 110.5q-20 95 -65 170t-118 119t-178 44q-92 0 -154.5 -38.5t-106.5 -99.5t-79.5 -129.5t-71.5 -129.5
t-82 -99.5t-113 -38.5h-39v-182h44zM630 540q91 0 142.5 -66.5t51.5 -170.5q0 -73 -36.5 -111t-111.5 -38q-28 0 -63.5 12t-76.5 37q-31 19 -64 46t-66 61q26 57 59 110t74 86.5t91 33.5z" />
    <glyph glyph-name="uniFEE5" unicode="&#x646;" horiz-adv-x="1386" arabic-form="isolated" 
d="M677 849l-145 -145l145 -145l145 145zM689 -262q-159 0 -250 53t-129.5 142t-38.5 197q0 91 20 188t49 189l-159 64q-38 -106 -60 -217.5t-22 -217.5q0 -157 57.5 -288.5t187 -210.5t345.5 -79q209 0 341 74t194.5 205t62.5 300q0 110 -24.5 231.5t-71.5 250.5l-171 -69
q28 -74 60 -190t32 -235q0 -101 -36.5 -189.5t-128 -143t-258.5 -54.5z" />
    <glyph glyph-name="uniFEE6" unicode="&#x646;" horiz-adv-x="1477" arabic-form="final" 
d="M678 773l-145 -145l145 -145l145 145zM689 -335q-159 0 -250 53t-129.5 142t-38.5 197q0 91 20 188t49 189l-159 64q-38 -106 -60 -217.5t-22 -217.5q0 -157 57.5 -288.5t187 -210.5t345.5 -79q208 0 339.5 73t194.5 202.5t64 296.5q32 -31 68.5 -44t106.5 -13h35v182
h-39q-82 0 -127.5 33t-65.5 97l-74 234l-171 -69q28 -74 60 -190t32 -235q0 -101 -36.5 -189.5t-128 -143t-258.5 -54.5z" />
    <glyph glyph-name="uniFEE7" unicode="&#x646;" horiz-adv-x="584" arabic-form="initial" 
d="M143 0q126 0 201 53.5t108 147.5t33 214q0 70 -10 147t-27 157l-174 -44q14 -75 26 -149t12 -139q0 -89 -35.5 -147t-135.5 -58h-161v-182h163zM265 1180l-145 -145l145 -145l145 145z" />
    <glyph glyph-name="uniFEE8" unicode="&#x646;" horiz-adv-x="690" arabic-form="medial" 
d="M303 591q4 -43 6.5 -86t2.5 -91q0 -118 -54.5 -175t-181.5 -57h-96v-182h96q96 0 184 37t142 116q27 -49 65 -83t92 -52t128 -18h23v182h-21q-64 0 -107.5 22t-67.5 65.5t-28 107.5l-16 234zM322 1089l-145 -145l145 -145l145 145z" />
    <glyph glyph-name="uniFEE9" unicode="&#x647;" horiz-adv-x="954" arabic-form="isolated" 
d="M685 344q0 -82 -49.5 -122t-159.5 -40q-109 0 -158 43t-49 101q0 51 23.5 98t67.5 97t105 108q52 -45 102.5 -93.5t84 -97t33.5 -94.5zM341 740q-118 -116 -180 -216.5t-62 -216.5q0 -132 102 -217.5t276 -85.5q114 0 199 40.5t132 115t47 176.5q0 73 -32.5 141.5
t-92.5 137.5t-141.5 142t-180.5 155l-106 -137z" />
    <glyph glyph-name="uniFEEA" unicode="&#x647;" horiz-adv-x="1062" arabic-form="final" 
d="M1047 0h35v182h-31q-87 0 -132.5 43.5t-57.5 131.5l-87 614l-160 -32l7 -48q-135 -42 -233.5 -90.5t-162.5 -105.5t-95 -123t-31 -143q0 -136 97 -213t240 -77q84 0 151.5 31t125.5 89q16 -80 57.5 -138.5t110 -89.5t166.5 -31zM673 503q0 -61 -33.5 -105t-87 -67
t-112.5 -23q-77 0 -122 34t-45 100q0 41 21.5 77.5t66.5 71t115.5 69t167.5 69.5l25 -167q2 -16 3 -30t1 -29z" />
    <glyph glyph-name="uniFEEB" unicode="&#x647;" horiz-adv-x="1423" arabic-form="initial" 
d="M335 457q0 80 54 128t140 48q49 0 89.5 -20.5t65 -60t24.5 -97.5q0 -44 -20 -82.5t-59.5 -70.5t-100.5 -57q-63 24 -106 58.5t-65 74.5t-22 79zM535 812q92 -43 181.5 -89t168 -93.5t138.5 -94t94.5 -90t34.5 -81.5q0 -96 -63.5 -141.5t-184.5 -45.5q-40 0 -92 4.5
t-96 9.5q47 38 79.5 79.5t49.5 91.5t17 112q0 85 -48 156.5t-126.5 115.5t-168.5 44q-96 0 -177 -40.5t-130 -115.5t-49 -179q0 -47 13.5 -93t42 -88t74.5 -79q-60 -7 -110.5 -10t-116.5 -3h-86v-182h99q109 0 226 24.5t204 56.5q48 -16 118 -32.5t148 -27.5t147 -11
q184 0 293.5 90t109.5 267q0 72 -44 140.5t-132 139.5t-221.5 148t-313.5 165z" />
    <glyph glyph-name="uniFEEC" unicode="&#x647;" horiz-adv-x="1020" arabic-form="medial" 
d="M-20 0h221q22 -113 76.5 -214t140 -183t198.5 -139l124 121q-2 24 -3 48.5t-1 46.5q0 87 17 148t50.5 99t84 55.5t117.5 17.5h35v182h-33q-106 0 -185.5 -31.5t-131.5 -93.5t-78 -155.5t-26 -217.5q-58 38 -104 90.5t-77 110.5t-45 114q90 0 172 44t146 118t101 164
t37 183q0 96 -32.5 168t-93 112.5t-145.5 40.5q-98 0 -166.5 -57t-110.5 -150.5t-61.5 -204t-19.5 -217.5v-18h-207v-182zM543 653q50 0 81.5 -37t31.5 -108q0 -88 -41 -162.5t-110 -119.5t-153 -45v20q0 95 13 177.5t37.5 144t60 96t80.5 34.5z" />
    <glyph glyph-name="uniFEED" unicode="&#x648;" horiz-adv-x="910" arabic-form="isolated" 
d="M811 171q0 106 -23 206t-69 180t-116.5 127t-165.5 47q-80 0 -143 -38t-106.5 -100.5t-66 -137t-22.5 -148.5q0 -156 92.5 -233t272.5 -77q38 0 88 9t88 21q-16 -103 -83 -183.5t-179.5 -135.5t-266.5 -85l59 -159q213 41 355.5 133.5t214 236t71.5 337.5zM469 178
q-102 0 -152 31t-50 104q0 45 14.5 100.5t51 96.5t102.5 41q48 0 84.5 -22.5t62.5 -67t41.5 -109t20.5 -148.5q-43 -13 -88 -19.5t-87 -6.5z" />
    <glyph glyph-name="uniFEEE" unicode="&#x648;" horiz-adv-x="911" arabic-form="final" 
d="M436 731q-80 0 -142.5 -38t-106 -100.5t-66 -137t-22.5 -148.5q0 -154 94.5 -230.5t284.5 -76.5h158q-24 -98 -90.5 -172t-175 -125t-259.5 -80l59 -159q213 41 342 123.5t194.5 190t87.5 222.5h137v182h-121q-2 135 -31 237.5t-80 172t-118 104.5t-145 35zM468 182
q-106 0 -153.5 30.5t-47.5 100.5q0 45 14.5 100.5t51 96.5t100.5 41q48 0 85 -21.5t63 -66.5t42 -115t22 -166h-177z" />
    <glyph glyph-name="uniFEEF" unicode="&#x649;" horiz-adv-x="1445" arabic-form="isolated" 
d="M689 -505q159 0 281.5 35.5t206 96.5t126.5 138t43 161q0 77 -21.5 136.5t-73.5 93.5t-144 34h-168q-58 0 -77 21.5t-19 68.5q0 85 32 154.5t92.5 110.5t145.5 41q45 0 86 -9.5t82 -30.5l57 152q-58 39 -115.5 53t-109.5 14q-103 0 -185 -38t-140 -105.5t-89 -155
t-31 -186.5q0 -63 14 -113t45 -85t82.5 -53.5t125.5 -18.5h162q50 0 69 -28t19 -60q0 -47 -37.5 -91.5t-104.5 -79.5t-157.5 -55.5t-196.5 -20.5q-159 0 -250 53t-129.5 142t-38.5 197q0 91 20 188t49 189l-159 64q-38 -106 -60 -217.5t-22 -217.5q0 -157 57.5 -288.5
t187 -210.5t345.5 -79z" />
    <glyph glyph-name="uniFEF0" unicode="&#x649;" horiz-adv-x="1329" arabic-form="final" 
d="M689 -515q165 0 286 37t200.5 97t118 130.5t38.5 136.5q0 29 -4.5 56t-19.5 57h41v182h-555q-13 0 -18 -7.5t-4 -15.5l27 -96q8 -28 17 -45.5t29 -17.5h148q93 0 134.5 -34t41.5 -82q0 -42 -57.5 -93t-165 -88t-257.5 -37q-159 0 -250.5 53t-129.5 142t-38 197
q0 53 8.5 130t37.5 177l-159 59q-38 -114 -48.5 -203t-10.5 -157q0 -157 57.5 -288.5t187 -210.5t345.5 -79z" />
    <glyph glyph-name="uniFEF1" unicode="&#x64a;" horiz-adv-x="1445" arabic-form="isolated" 
d="M883 -639l-139 -139l139 -141l140 141zM551 -639l-139 -139l139 -141l140 141zM689 -505q159 0 281.5 35.5t206 96.5t126.5 138t43 161q0 77 -21.5 136.5t-73.5 93.5t-144 34h-168q-58 0 -77 21.5t-19 68.5q0 85 32 154.5t92.5 110.5t145.5 41q45 0 86 -9.5t82 -30.5
l57 152q-58 39 -115.5 53t-109.5 14q-103 0 -185 -38t-140 -105.5t-89 -155t-31 -186.5q0 -63 14 -113t45 -85t82.5 -53.5t125.5 -18.5h162q50 0 69 -28t19 -60q0 -47 -37.5 -91.5t-104.5 -79.5t-157.5 -55.5t-196.5 -20.5q-159 0 -250 53t-129.5 142t-38.5 197q0 91 20 188
t49 189l-159 64q-38 -106 -60 -217.5t-22 -217.5q0 -157 57.5 -288.5t187 -210.5t345.5 -79z" />
    <glyph glyph-name="uniFEF2" unicode="&#x64a;" horiz-adv-x="1329" arabic-form="final" 
d="M689 -515q165 0 286 37t200.5 97t118 130.5t38.5 136.5q0 29 -4.5 56t-19.5 57h41v182h-555q-13 0 -18 -7.5t-4 -15.5l27 -96q8 -28 17 -45.5t29 -17.5h148q93 0 134.5 -34t41.5 -82q0 -42 -57.5 -93t-165 -88t-257.5 -37q-159 0 -250.5 53t-129.5 142t-38 197
q0 53 8.5 130t37.5 177l-159 59q-38 -114 -48.5 -203t-10.5 -157q0 -157 57.5 -288.5t187 -210.5t345.5 -79zM882 -651l-139 -139l139 -141l140 141zM550 -651l-139 -139l139 -141l140 141z" />
    <glyph glyph-name="uniFEF3" unicode="&#x64a;" horiz-adv-x="638" arabic-form="initial" 
d="M-22 182v-182h80v182h-80zM339 -159l-139 -139l139 -141l140 141zM7 -159l-139 -139l139 -141l140 141zM197 0q126 0 201 53.5t108 147.5t33 214q0 70 -10 147t-27 157l-174 -44q14 -75 26 -149t12 -139q0 -89 -35.5 -147t-135.5 -58h-161v-182h163z" />
    <glyph glyph-name="uniFEF4" unicode="&#x64a;" horiz-adv-x="743" arabic-form="medial" 
d="M-22 182v-182h80v182h-80zM339 -159l-139 -139l139 -141l140 141zM7 -159l-139 -139l139 -141l140 141zM356 591q4 -43 6.5 -86t2.5 -91q0 -118 -54.5 -175t-181.5 -57h-96v-182h96q96 0 184 37t142 116q27 -49 65 -83t92 -52t128 -18h23v182h-21q-64 0 -107.5 22
t-67.5 65.5t-28 107.5l-16 234z" />
    <glyph glyph-name=".notdef" horiz-adv-x="908" 
 />
    <glyph glyph-name=".null" 
 />
    <glyph glyph-name=".null" 
 />
    <glyph glyph-name="nonmarkingreturn" horiz-adv-x="682" 
 />
    <glyph glyph-name="CR" unicode="&#xd;" horiz-adv-x="508" 
 />
    <glyph glyph-name="space" unicode=" " horiz-adv-x="550" 
 />
    <glyph glyph-name="exclam" unicode="!" horiz-adv-x="556" 
d="M145 134q0 -57 39 -95t94 -38t94 39t39 94t-39 94.5t-94 39.5t-94 -39.5t-39 -94.5zM182 1381l26 -943h145l26 943h-197z" />
    <glyph glyph-name="quotedbl" unicode="&#x22;" horiz-adv-x="656" 
d="M278 1536v-136l-30 -357h-111v348v145h141zM548 1536v-136l-30 -357h-111v355v138h141z" />
    <glyph glyph-name="numbersign" unicode="#" horiz-adv-x="1261" 
d="M279 0l283 1456h144l-284 -1456h-143zM686 0l284 1456h143l-284 -1456h-143zM1235 901h-1040v139h1040v-139zM1160 410h-1041v138h1041v-138z" />
    <glyph glyph-name="dollar" unicode="$" horiz-adv-x="1151" 
d="M674 1692v-305h-150v305h150zM656 59v-267h-149v267h149zM856 375q0 60 -27 108t-89 88t-166 74q-126 39 -217.5 95t-141 139t-49.5 201q0 123 53 212t150 137t228 48q136 0 232.5 -54t148 -158.5t51.5 -256.5h-184q0 134 -64 220.5t-184 86.5q-84 0 -138.5 -29
t-80.5 -81.5t-26 -121.5q0 -64 26 -112t88.5 -86.5t172.5 -75.5q129 -41 219 -96.5t137 -136t47 -199.5q0 -129 -58 -217.5t-163 -134.5t-246 -46q-85 0 -168 23t-150 75.5t-107 139t-40 212.5h186q0 -85 24.5 -140.5t65.5 -88t90.5 -46t98.5 -13.5q90 0 152.5 28.5
t95.5 81.5t33 124z" />
    <glyph glyph-name="percent" unicode="%" horiz-adv-x="1500" 
d="M105 1099v77q0 83 36 151t103 109t159 41q94 0 160.5 -41t102.5 -109t36 -151v-77q0 -81 -35.5 -149t-102 -109t-159.5 -41t-160.5 41t-103.5 109t-36 149zM244 1176v-77q0 -46 17.5 -87t53.5 -66.5t90 -25.5t89 25.5t52 66.5t17 87v77q0 47 -17.5 88.5t-53 67
t-89.5 25.5q-53 0 -88.5 -25.5t-53 -67t-17.5 -88.5zM814 279v78q0 82 36 150t103 109t159 41q94 0 160.5 -41t102.5 -109t36 -150v-78q0 -82 -35.5 -150t-102 -109t-159.5 -41t-160 41t-103.5 109t-36.5 150zM953 357v-78q0 -46 17.5 -87.5t53.5 -67t90 -25.5t89.5 25.5
t52.5 66.5t17 88v78q0 71 -39.5 125.5t-121.5 54.5q-80 0 -119.5 -54.5t-39.5 -125.5zM1158 1249l-711 -1138l-104 66l711 1138z" />
    <glyph glyph-name="ampersand" unicode="&#x26;" horiz-adv-x="1274" 
d="M410 808l218 155q63 43 97.5 86.5t34.5 119.5q0 59 -46 107.5t-130 48.5q-88 0 -133 -58.5t-45 -137.5q0 -68 48 -142.5t124 -160.5l689 -826h-222l-565 676q-113 132 -186.5 233.5t-73.5 213.5q0 114 45.5 192.5t127.5 119.5t192 41q107 0 184.5 -42.5t119.5 -112
t42 -152.5q0 -70 -25 -125.5t-69.5 -101.5t-103.5 -90l-289 -215q-72 -53 -105 -101t-42.5 -85t-9.5 -59q0 -71 31 -130t94.5 -94.5t159.5 -35.5q84 0 163.5 38.5t142.5 110t100.5 171t37.5 220.5h166q0 -148 -43 -272t-135 -216q-9 -9 -14 -21t-14 -21
q-75 -81 -184.5 -121.5t-219.5 -40.5q-145 0 -250.5 53t-162.5 146t-57 213q0 92 39.5 162t109 131t159.5 123z" />
    <glyph glyph-name="quotesingle" unicode="'" horiz-adv-x="358" 
d="M254 1536v-110l-21 -368h-129l1 351v127h149z" />
    <glyph glyph-name="parenleft" unicode="(" horiz-adv-x="700" 
d="M312 591q0 188 40 368.5t117.5 327.5t191.5 234l-38 122q-111 -60 -201 -167t-154.5 -247.5t-99.5 -303.5t-35 -334t35 -334t99.5 -303.5t154.5 -247.5t201 -167l38 122q-114 87 -191.5 234t-117.5 327.5t-40 368.5z" />
    <glyph glyph-name="parenright" unicode=")" horiz-adv-x="700" 
d="M388 591q0 -188 -39.5 -368.5t-117.5 -327.5t-192 -234l38 -122q111 60 201 167t154.5 247.5t99.5 303.5t35 334t-35 334t-99.5 303.5t-154.5 247.5t-201 167l-38 -122q114 -87 192 -234t117.5 -327.5t39.5 -368.5z" />
    <glyph glyph-name="asterisk" unicode="*" horiz-adv-x="882" 
d="M129 708l201 276l-302 90l47 150l302 -111l-9 344h152l-10 -350l298 111l46 -153l-307 -91l197 -271l-124 -93l-185 288l-181 -281z" />
    <glyph glyph-name="plus" unicode="+" horiz-adv-x="1098" 
d="M625 444h333v152h-333v344h-152v-344h-333v-152h333v-372h152v372z" />
    <glyph glyph-name="comma" unicode="," horiz-adv-x="403" 
d="M309 220v-149q0 -91 -46 -192.5t-129 -169.5l-105 73q32 44 54 89.5t33.5 94t11.5 102.5v152h181z" />
    <glyph glyph-name="hyphen" unicode="-" horiz-adv-x="955" 
d="M815 443v151h-675v-151h675z" />
    <glyph glyph-name="period" unicode="." horiz-adv-x="556" 
d="M145 133q0 -57 39 -95t94 -38t94 39t39 94t-39 94.5t-94 39.5t-94 -39.5t-39 -94.5z" />
    <glyph glyph-name="slash" unicode="/" horiz-adv-x="844" 
d="M177 -125l607 1581h-158l-608 -1581h159z" />
    <glyph glyph-name="zero" unicode="0" horiz-adv-x="1151" 
d="M1035 844v-222q0 -238 -56 -379t-159 -202t-244 -61q-139 0 -243 61t-161 202t-57 379v222q0 238 56.5 376t160 197t242.5 59q141 0 244.5 -59t160 -197t56.5 -376zM849 592v283q0 164 -31 263t-92.5 143t-151.5 44q-88 0 -149 -44t-92.5 -143t-31.5 -263v-283
q0 -163 32 -264.5t93.5 -148.5t149.5 -47q91 0 151.5 47t91 148.5t30.5 264.5z" />
    <glyph glyph-name="one" unicode="1" horiz-adv-x="1151" 
d="M729 1464v-1464h-185v1233l-373 -136v167l529 200h29z" />
    <glyph glyph-name="two" unicode="2" horiz-adv-x="1151" 
d="M1075 152v-152h-953v133l477 531q88 98 136.5 166.5t68 123t19.5 111.5q0 107 -66 183t-188 76q-97 0 -161.5 -37.5t-96.5 -104.5t-32 -154h-185q0 123 54 225t160 162.5t261 60.5q206 0 322.5 -107t116.5 -282q0 -86 -37 -173t-99 -172.5t-137 -166.5l-390 -423h730z
" />
    <glyph glyph-name="three" unicode="3" horiz-adv-x="1151" 
d="M391 819h132q97 0 160.5 32.5t95 89t31.5 127.5q0 84 -28 141t-84 86t-142 29q-78 0 -137.5 -30.5t-93 -86.5t-33.5 -132h-185q0 111 56 202t157.5 145t235.5 54q132 0 231 -46.5t154 -138t55 -227.5q0 -55 -25.5 -117.5t-79 -116.5t-138.5 -88.5t-204 -34.5h-158v112z
M391 667v111h158q139 0 230 -33t143.5 -88t74 -120.5t21.5 -130.5q0 -136 -60.5 -231t-164.5 -145t-236 -50q-95 0 -178.5 27t-147.5 78.5t-100 127t-36 172.5h185q0 -76 33.5 -133t96 -88.5t147.5 -31.5q128 0 201.5 67t73.5 203q0 91 -38 149.5t-107.5 87t-163.5 28.5
h-132z" />
    <glyph glyph-name="four" unicode="4" horiz-adv-x="1151" 
d="M1105 490v-152h-1052v109l652 1009h151l-162 -292l-431 -674h842zM902 1456v-1456h-185v1456h185z" />
    <glyph glyph-name="five" unicode="5" horiz-adv-x="1151" 
d="M355 693l-148 38l73 725h747v-171h-590l-44 -396q40 23 101.5 43t141.5 20q134 0 231.5 -60t150 -169.5t52.5 -258.5q0 -139 -50.5 -248.5t-152.5 -172.5t-258 -63q-88 0 -166.5 24.5t-140 75t-100 126t-48.5 177.5h176q17 -124 89 -187.5t190 -63.5q88 0 149 40
t93.5 114.5t32.5 175.5q0 92 -34 165t-98.5 116t-158.5 43q-93 0 -140.5 -25t-97.5 -68z" />
    <glyph glyph-name="six" unicode="6" horiz-adv-x="1151" 
d="M831 1458h16v-157h-16q-147 0 -246 -47.5t-157 -127t-83.5 -178.5t-25.5 -201v-214q0 -129 40 -218.5t104.5 -135.5t137.5 -46q86 0 146 43t91.5 118t31.5 172q0 87 -28.5 164t-87.5 124.5t-149 47.5q-77 0 -143.5 -37.5t-109 -98t-48.5 -131.5l-98 1q19 149 80.5 241.5
t152 135t196.5 42.5q146 0 238 -70t136 -180t44 -230q0 -138 -51.5 -250t-152 -178.5t-248.5 -66.5q-118 0 -206 48.5t-146 129.5t-87 180t-29 201v87q0 154 31 302t107.5 268t212.5 191t347 71z" />
    <glyph glyph-name="seven" unicode="7" horiz-adv-x="1151" 
d="M1062 1456v-104l-603 -1352h-195l602 1304h-788v152h984z" />
    <glyph glyph-name="eight" unicode="8" horiz-adv-x="1151" 
d="M1039 394q0 -133 -61.5 -225.5t-166 -140.5t-235.5 -48t-236 48t-166 140.5t-61 225.5q0 116 59 206t163 141.5t239 51.5q134 0 239 -51.5t165.5 -141.5t60.5 -206zM853 398q0 81 -35 143.5t-98 97.5t-146 35q-85 0 -146.5 -35t-95.5 -97.5t-34 -143.5q0 -84 33.5 -143.5
t96 -91t148.5 -31.5t148 31.5t95.5 91t33.5 143.5zM1005 1077q0 -106 -56 -191t-153 -134t-220 -49q-125 0 -222.5 49t-152.5 134t-55 191q0 127 55.5 216t152.5 136t221 47q125 0 222 -47t152.5 -136t55.5 -216zM820 1074q0 73 -31 129t-86 88.5t-128 32.5t-127.5 -30.5
t-85 -86.5t-30.5 -133q0 -75 30.5 -131t85.5 -87t128 -31t127.5 31t85.5 87t31 131z" />
    <glyph glyph-name="nine" unicode="9" horiz-adv-x="1151" 
d="M305 155h19q160 0 260 45t154 121t74 171.5t20 196.5v223q0 133 -39 224.5t-103 139t-138 47.5q-86 0 -146.5 -44.5t-92 -121.5t-31.5 -174q0 -86 29 -164.5t87.5 -128t147.5 -49.5q62 0 116.5 24.5t97 67t68 96.5t29.5 113h88q0 -83 -32.5 -163.5t-90.5 -146.5
t-136 -105.5t-170 -39.5q-144 0 -236 72t-136 183.5t-44 230.5q0 139 51 253t152 182t249 68q125 0 213 -50t143.5 -134t81.5 -189t26 -216v-67q0 -113 -14.5 -229.5t-55 -222.5t-117.5 -189.5t-200.5 -132t-304.5 -48.5h-19v157z" />
    <glyph glyph-name="colon" unicode=":" horiz-adv-x="556" 
d="M145 722q0 -57 39 -95t94 -38t94 39t39 94t-39 94.5t-94 39.5t-94 -39.5t-39 -94.5zM145 134q0 -57 39 -95t94 -38t94 39t39 94t-39 94.5t-94 39.5t-94 -39.5t-39 -94.5z" />
    <glyph glyph-name="semicolon" unicode=";" horiz-adv-x="433" 
d="M111 1016q0 -57 39 -95t94 -38t94 39t39 94t-39 94.5t-94 39.5t-94 -39.5t-39 -94.5zM321 220v-149q0 -91 -46 -192.5t-129 -169.5l-105 73q32 44 54 89.5t33.5 94t11.5 102.5v152h181z" />
    <glyph glyph-name="less" unicode="&#x3c;" horiz-adv-x="1041" 
d="M199 672l691 -280v-196l-818 379v115zM890 902l-690 -284l-128 -14v116l818 378v-196z" />
    <glyph glyph-name="equal" unicode="=" horiz-adv-x="1124" 
d="M986 249v150h-834v-150h834zM986 634v151h-834v-151h834z" />
    <glyph glyph-name="greater" unicode="&#x3e;" horiz-adv-x="1071" 
d="M846 632l-711 277v191l854 -378v-117zM135 388l713 283l141 21v-116l-854 -379v191z" />
    <glyph glyph-name="question" unicode="?" horiz-adv-x="968" 
d="M543 410h-186q1 96 17.5 157.5t54.5 112.5t101 116q46 47 84.5 88.5t62.5 90t24 116.5q0 104 -55 163.5t-159 59.5q-88 0 -157 -47.5t-70 -151.5h-185q2 113 56.5 194t147.5 124t208 43q191 0 295.5 -102t104.5 -278q0 -90 -36.5 -165.5t-93.5 -141.5t-121 -126
q-55 -51 -74 -115t-19 -138zM349 93q0 45 28 76t81 31q54 0 82 -31t28 -76q0 -43 -28 -74t-82 -31q-53 0 -81 31t-28 74z" />
    <glyph glyph-name="at" unicode="@" horiz-adv-x="1839" 
d="M1736 503q-4 -92 -28 -184.5t-72 -169.5t-124.5 -123.5t-184.5 -46.5q-139 0 -204.5 95.5t-49.5 255.5l51 554h147l-51 -554q-6 -73 3.5 -119t29.5 -70.5t45.5 -33.5t49.5 -9q81 0 136.5 54.5t86.5 146.5t36 204q11 249 -53.5 427.5t-210.5 274t-378 95.5
q-210 0 -364.5 -104t-242 -289t-97.5 -429q-9 -187 29 -336t120 -254t204.5 -160.5t282.5 -55.5q88 0 178.5 21t151.5 57l38 -114q-70 -45 -174.5 -67t-197.5 -22q-253 0 -431.5 113t-268 322t-77.5 496q9 206 72.5 379.5t174.5 302.5t264 200t342 71q257 0 432 -113.5
t261 -322t74 -492.5zM709 418q-9 -94 6.5 -160t53.5 -100.5t96 -34.5q39 0 82.5 26t82 83.5t62.5 151.5l66 -72q-46 -163 -140.5 -248t-198.5 -85q-98 0 -162 55t-91.5 154t-15.5 230q16 176 80 304t157 198t196 70q108 0 170 -31.5t118 -74.5l-85 -99q-29 28 -76 52
t-111 24q-73 0 -134 -50t-101.5 -148.5t-54.5 -244.5z" />
    <glyph glyph-name="A" unicode="A" horiz-adv-x="1336" 
d="M708 1327l-482 -1327h-197l555 1456h127zM1112 0l-483 1327l-3 129h127l557 -1456h-198zM1087 539v-158h-818v158h818z" />
    <glyph glyph-name="B" unicode="B" horiz-adv-x="1276" 
d="M688 681h-369l-2 155h335q125 0 200.5 62t75.5 172q0 120 -69.5 174t-212.5 54h-284v-1298h-193v1456h477q224 0 349.5 -92.5t125.5 -295.5q0 -90 -46 -162.5t-127.5 -118.5t-190.5 -59zM679 0h-436l109 157h327q137 0 213 70.5t76 190.5q0 81 -29 140t-91 91t-160 32
h-275l2 155h376l41 -56q105 -9 178 -59.5t111.5 -128.5t38.5 -172q0 -204 -131.5 -312t-349.5 -108z" />
    <glyph glyph-name="C" unicode="C" horiz-adv-x="1333" 
d="M1048 463h192q-15 -138 -79 -247t-181 -172.5t-292 -63.5q-171 0 -298.5 83.5t-198.5 235.5t-71 356v145q0 204 71 356t202.5 236t311.5 84q165 0 279 -62t177.5 -171.5t78.5 -253.5h-192q-22 152 -98 240.5t-245 88.5q-129 0 -216.5 -64.5t-132 -180.5t-44.5 -271v-147
q0 -143 40 -260.5t123.5 -187.5t212.5 -70q123 0 196 39t110.5 112t53.5 175z" />
    <glyph glyph-name="D" unicode="D" horiz-adv-x="1344" 
d="M563 0h-304l2 157h302q156 0 260 65.5t156.5 184t52.5 277.5v89q0 167 -53 284.5t-153.5 179t-244.5 61.5h-328v158h328q191 0 335.5 -83.5t225.5 -237t81 -364.5v-87q0 -211 -81 -364t-229 -236.5t-350 -83.5zM362 1456v-1456h-193v1456h193z" />
    <glyph glyph-name="E" unicode="E" horiz-adv-x="1164" 
d="M1094 157v-157h-771v157h771zM362 1456v-1456h-193v1456h193zM992 830v-157h-669v157h669zM1084 1456v-158h-761v158h761z" />
    <glyph glyph-name="F" unicode="F" horiz-adv-x="1132" 
d="M362 1456v-1456h-193v1456h193zM972 801v-158h-652v158h652zM1071 1456v-158h-751v158h751z" />
    <glyph glyph-name="G" unicode="G" horiz-adv-x="1395" 
d="M1245 725v-533q-27 -40 -86 -89.5t-162.5 -86t-266.5 -36.5q-177 0 -314.5 82t-215.5 237t-78 373v113q0 217 68 371.5t199 237t319 82.5q167 0 279.5 -57.5t176 -158.5t81.5 -230h-193q-13 79 -51.5 144t-109.5 104.5t-183 39.5q-135 0 -221.5 -64.5t-128.5 -183.5
t-42 -283v-115q0 -168 52 -287.5t145.5 -183.5t217.5 -64q103 0 167 17.5t100 42t55 46.5v326h-337v156h529z" />
    <glyph glyph-name="H" unicode="H" horiz-adv-x="1461" 
d="M1120 830v-157h-788v157h788zM362 1456v-1456h-193v1456h193zM1288 1456v-1456h-192v1456h192z" />
    <glyph glyph-name="I" unicode="I" horiz-adv-x="557" 
d="M376 1456v-1456h-193v1456h193z" />
    <glyph glyph-name="J" unicode="J" horiz-adv-x="1130" 
d="M780 425v1031h192v-1031q0 -144 -59 -243t-162.5 -150.5t-237.5 -51.5t-238 46t-163 140t-59 237h193q0 -138 74.5 -202t192.5 -64q76 0 136.5 32.5t95.5 97t35 158.5z" />
    <glyph glyph-name="K" unicode="K" horiz-adv-x="1285" 
d="M362 1456v-1456h-193v1456h193zM1241 1456l-605 -679l-340 -353l-32 206l256 282l489 544h232zM1055 0l-539 710l115 153l654 -863h-230z" />
    <glyph glyph-name="L" unicode="L" horiz-adv-x="1103" 
d="M1052 157v-157h-728v157h728zM362 1456v-1456h-193v1456h193z" />
    <glyph glyph-name="M" unicode="M" horiz-adv-x="1788" 
d="M230 1456h187l477 -1187l476 1187h188l-592 -1456h-146zM169 1456h165l27 -888v-568h-192v1456zM1453 1456h165v-1456h-192v568z" />
    <glyph glyph-name="N" unicode="N" horiz-adv-x="1461" 
d="M1289 1456v-1456h-194l-733 1123v-1123h-193v1456h193l736 -1126v1126h191z" />
    <glyph glyph-name="O" unicode="O" horiz-adv-x="1409" 
d="M1290 774v-92q0 -218 -72.5 -375.5t-203.5 -242t-308 -84.5q-172 0 -304.5 84.5t-207.5 242t-75 375.5v92q0 218 74.5 375.5t206.5 242t304 84.5q177 0 309 -84.5t204.5 -242t72.5 -375.5zM1099 682v94q0 173 -47 292.5t-135 181.5t-213 62q-119 0 -208 -62
t-137.5 -181.5t-48.5 -292.5v-94q0 -175 49 -295t138.5 -182t208.5 -62q126 0 213.5 62t133.5 182t46 295z" />
    <glyph glyph-name="P" unicode="P" horiz-adv-x="1292" 
d="M706 571h-389v157h389q113 0 183 36t102.5 100t32.5 146q0 75 -32.5 141t-102.5 106.5t-183 40.5h-344v-1298h-193v1456h537q165 0 279 -57t173 -157.5t59 -229.5q0 -140 -59 -239t-173 -150.5t-279 -51.5z" />
    <glyph glyph-name="Q" unicode="Q" horiz-adv-x="1409" 
d="M916 167l370 -293l-130 -120l-364 289zM1281 774v-92q0 -218 -72 -375.5t-203 -242t-309 -84.5q-172 0 -304.5 84.5t-207.5 242t-75 375.5v92q0 218 74.5 375.5t206.5 242t304 84.5q178 0 309.5 -84.5t204 -242t72.5 -375.5zM1090 682v94q0 173 -46.5 292.5t-135 181.5
t-213.5 62q-119 0 -207.5 -62t-137.5 -181.5t-49 -292.5v-94q0 -175 49.5 -295t138.5 -182t208 -62q126 0 213.5 62t133.5 182t46 295z" />
    <glyph glyph-name="R" unicode="R" horiz-adv-x="1262" 
d="M169 1456h482q164 0 277.5 -50t173 -147.5t59.5 -239.5q0 -100 -40.5 -182.5t-116 -140t-180.5 -85.5l-54 -21h-453l-2 157h342q104 0 173 36.5t104 98.5t35 137q0 126 -75.5 202.5t-242.5 76.5h-289v-1298h-193v1456zM1020 0l-354 660l201 1l359 -649v-12h-206z" />
    <glyph glyph-name="S" unicode="S" horiz-adv-x="1216" 
d="M945 368q0 68 -29 116t-104 87t-213 79q-144 42 -250 99t-164 137.5t-58 193.5t61.5 202.5t173 141.5t260.5 52q164 0 278.5 -62.5t174.5 -163t60 -214.5h-192q0 82 -35 145.5t-106 100t-180 36.5q-103 0 -170 -31t-99.5 -84t-32.5 -121q0 -61 35.5 -108t110.5 -85
t195 -71q165 -47 271 -108t156.5 -144t50.5 -196q0 -118 -63 -206t-177 -136t-268 -48q-101 0 -198.5 28t-177 84t-127 138.5t-47.5 191.5h192q0 -75 29 -128.5t79.5 -88.5t115 -51.5t134.5 -16.5q101 0 171 28t106.5 80t36.5 123z" />
    <glyph glyph-name="T" unicode="T" horiz-adv-x="1222" 
d="M707 1456v-1456h-190v1456h190zM1175 1456v-158h-1125v158h1125z" />
    <glyph glyph-name="U" unicode="U" horiz-adv-x="1328" 
d="M1002 1456h192v-985q0 -164 -73 -273t-193.5 -163.5t-261.5 -54.5q-148 0 -267.5 54.5t-189 163.5t-69.5 273v985h191v-985q0 -114 42 -188t117.5 -110t175.5 -36q101 0 176.5 36t117.5 110t42 188v985z" />
    <glyph glyph-name="V" unicode="V" horiz-adv-x="1304" 
d="M639 221l429 1235h209l-539 -1456h-149zM238 1456l425 -1235l53 -221h-149l-538 1456h209z" />
    <glyph glyph-name="W" unicode="W" horiz-adv-x="1817" 
d="M552 440l289 1016h140l-81 -395l-311 -1061h-139zM253 1456l230 -996l69 -460h-138l-353 1456h192zM1355 461l225 995h193l-352 -1456h-138zM1002 1456l281 -1016l102 -440h-139l-300 1061l-82 395h138z" />
    <glyph glyph-name="X" unicode="X" horiz-adv-x="1284" 
d="M294 1456l350 -558l350 558h225l-460 -721l471 -735h-227l-359 569l-359 -569h-227l471 735l-460 721h225z" />
    <glyph glyph-name="Y" unicode="Y" horiz-adv-x="1230" 
d="M236 1456l378 -731l379 731h219l-502 -912v-544h-193v544l-502 912h221z" />
    <glyph glyph-name="Z" unicode="Z" horiz-adv-x="1227" 
d="M1146 157v-157h-986v157h986zM1114 1316l-908 -1316h-119v144l907 1312h120v-140zM1032 1456v-158h-932v158h932z" />
    <glyph glyph-name="bracketleft" unicode="[" horiz-adv-x="543" 
d="M523 1512v152h-367v-1976h367v152h-191v1672h191z" />
    <glyph glyph-name="backslash" unicode="\" horiz-adv-x="841" 
d="M649 -125l-608 1581h176l608 -1581h-176z" />
    <glyph glyph-name="bracketright" unicode="]" horiz-adv-x="543" 
d="M9 1664v-152h193v-1672h-193v-152h368v1976h-368z" />
    <glyph glyph-name="asciicircum" unicode="^" horiz-adv-x="856" 
d="M439 1242l-203 -513h-172l299 727h112zM617 729l-202 513l-37 214h113l298 -727h-172z" />
    <glyph glyph-name="underscore" unicode="_" horiz-adv-x="924" 
d="M921 0v-152h-917v152h917z" />
    <glyph glyph-name="grave" unicode="`" horiz-adv-x="633" 
d="M281 1536l193 -294h-159l-258 294h224z" />
    <glyph glyph-name="a" unicode="a" horiz-adv-x="1114" 
d="M779 185v557q0 96 -57.5 153.5t-170.5 57.5q-70 0 -122.5 -24t-82 -63t-29.5 -84h-185q0 78 53 151.5t149.5 121t227.5 47.5q118 0 208.5 -40t142 -120.5t51.5 -201.5v-504q0 -54 9.5 -115t28.5 -105v-16h-193q-14 32 -22 85.5t-8 99.5zM811 656l2 -130h-187
q-159 0 -245 -49.5t-86 -150.5q0 -77 52 -130.5t155 -53.5q85 0 150 36t103.5 88t41.5 101l79 -89q-7 -42 -38 -93t-82.5 -97.5t-122 -77t-158.5 -30.5q-110 0 -192.5 43t-128 115.5t-45.5 162.5q0 174 132 264.5t355 90.5h215z" />
    <glyph glyph-name="b" unicode="b" horiz-adv-x="1150" 
d="M140 1536h186v-1326l-16 -210h-170v1536zM1057 550v-21q0 -158 -49.5 -282t-143.5 -195.5t-228 -71.5q-137 0 -229 62.5t-143 178t-67 273.5v92q16 160 67 275.5t142.5 178t227.5 62.5t230.5 -69t143.5 -193.5t49 -289.5zM871 529v21q0 108 -27 198t-89 144t-167 54
q-70 0 -121.5 -24t-87.5 -64.5t-58.5 -92t-33.5 -106.5v-241q16 -70 52.5 -134.5t98 -105.5t152.5 -41q100 0 162 53t90.5 142.5t28.5 196.5z" />
    <glyph glyph-name="c" unicode="c" horiz-adv-x="1072" 
d="M574 132q66 0 122 27t92 74.5t41 108.5h176q-5 -96 -64.5 -178.5t-155.5 -133t-211 -50.5q-163 0 -269.5 74.5t-159 197.5t-52.5 268v42q0 145 52.5 268t159.5 197.5t269 74.5q127 0 222 -51.5t149.5 -140t59.5 -200.5h-176q-5 67 -37.5 121t-88 86.5t-129.5 32.5
q-114 0 -178.5 -58t-91 -147t-26.5 -183v-42q0 -95 26 -184t90.5 -146.5t179.5 -57.5z" />
    <glyph glyph-name="d" unicode="d" horiz-adv-x="1155" 
d="M823 210v1326h186v-1536h-170zM95 529v21q0 165 53.5 289.5t149.5 193.5t225 69q136 0 227 -62.5t142.5 -178t66.5 -275.5v-92q-15 -158 -66 -273.5t-143 -178t-229 -62.5q-127 0 -223 71.5t-149.5 195.5t-53.5 282zM281 550v-21q0 -107 30 -196.5t93 -142.5t163 -53
q92 0 151.5 39t95.5 103t56 139v241q-12 55 -34.5 106.5t-58 92t-87 64.5t-121.5 24q-101 0 -164.5 -54t-93.5 -144t-30 -198z" />
    <glyph glyph-name="e" unicode="e" horiz-adv-x="1086" 
d="M590 -20q-151 0 -262.5 67t-173 185.5t-61.5 270.5v42q0 177 67.5 301.5t176 190t229.5 65.5q155 0 253.5 -69.5t145 -189t46.5 -271.5v-83h-808v151h623v14q-4 72 -29.5 140t-80.5 112t-150 44q-84 0 -149 -47t-101.5 -137.5t-36.5 -220.5v-42q0 -102 38 -186.5
t110 -135t173 -50.5q98 0 166 40t119 107l112 -89q-52 -80 -149 -144.5t-258 -64.5z" />
    <glyph glyph-name="f" unicode="f" horiz-adv-x="712" 
d="M417 0h-185v1196q0 175 94.5 268t260.5 93q32 0 64.5 -4t63.5 -12l-10 -151q-21 5 -47.5 7t-52.5 2q-89 0 -138.5 -52.5t-49.5 -150.5v-1196zM647 1082v-142h-586v142h586z" />
    <glyph glyph-name="g" unicode="g" horiz-adv-x="1150" 
d="M842 1082h168v-1059q0 -143 -58 -244t-161.5 -153.5t-238.5 -52.5q-56 0 -131.5 17.5t-148 59t-121.5 111.5l97 110q68 -82 142.5 -114t147.5 -32q131 0 209 73.5t78 215.5v830zM97 529v21q0 165 52 289.5t147.5 193.5t227.5 69q102 0 178.5 -35.5t130 -103t84.5 -162.5
t43 -215v-92q-15 -158 -66 -273.5t-143 -178t-229 -62.5q-130 0 -225.5 71.5t-147.5 195.5t-52 282zM282 550v-21q0 -107 29.5 -196.5t92.5 -142.5t163 -53q92 0 152 39t95.5 103t55.5 139v241q-11 55 -33.5 106.5t-58 92t-87.5 64.5t-122 24q-101 0 -164.5 -54t-93 -144
t-29.5 -198z" />
    <glyph glyph-name="h" unicode="h" horiz-adv-x="1128" 
d="M326 1536v-1536h-185v1536h185zM282 582l-77 3q2 149 57 265.5t153.5 184t229.5 67.5q107 0 184.5 -39t120 -125.5t42.5 -228.5v-709h-186v711q0 85 -25 136.5t-73 75t-118 23.5q-69 0 -125.5 -29t-97 -80t-63 -116.5t-22.5 -138.5z" />
    <glyph glyph-name="i" unicode="i" horiz-adv-x="498" 
d="M342 1082v-1082h-186v1082h186zM142 1369q0 45 27.5 76t81.5 31q53 0 81.5 -31t28.5 -76q0 -43 -28.5 -73.5t-81.5 -30.5q-54 0 -81.5 30.5t-27.5 73.5z" />
    <glyph glyph-name="j" unicode="j" horiz-adv-x="490" 
d="M146 1082h186v-1211q0 -149 -70.5 -228.5t-212.5 -79.5q-25 0 -58.5 5t-56.5 12l1 149q19 -4 43 -6.5t42 -2.5q61 0 93.5 34.5t32.5 116.5v1211zM127 1369q0 45 28 76t81 31q54 0 82 -31t28 -76q0 -43 -28 -73.5t-82 -30.5q-53 0 -81 30.5t-28 73.5z" />
    <glyph glyph-name="k" unicode="k" horiz-adv-x="1038" 
d="M327 1536v-1536h-186v1536h186zM988 1082l-472 -505l-264 -274l-15 197l189 226l336 356h226zM819 0l-386 516l96 165l508 -681h-218z" />
    <glyph glyph-name="l" unicode="l" horiz-adv-x="498" 
d="M342 1536v-1536h-186v1536h186z" />
    <glyph glyph-name="m" unicode="m" horiz-adv-x="1796" 
d="M325 867v-867h-186v1082h176zM287 582l-86 3q1 149 50.5 265.5t146.5 184t242 67.5q152 0 251 -89t99 -292v-721h-185v712q0 85 -28.5 136t-80.5 74.5t-122 23.5q-82 0 -137 -29t-88 -80t-47.5 -116.5t-14.5 -138.5zM988 684l-124 -38q2 119 51.5 223t145 168.5
t233.5 64.5q116 0 197 -41t123.5 -127t42.5 -223v-711h-186v713q0 91 -28.5 141.5t-80 71t-122.5 20.5q-61 0 -108 -21t-79 -57.5t-48.5 -83.5t-16.5 -100z" />
    <glyph glyph-name="n" unicode="n" horiz-adv-x="1131" 
d="M326 851v-851h-185v1082h175zM282 582l-77 3q2 149 57 265.5t153.5 184t229.5 67.5q107 0 184.5 -39t120 -125.5t42.5 -228.5v-709h-186v711q0 85 -25 136.5t-73 75t-118 23.5q-69 0 -125.5 -29t-97 -80t-63 -116.5t-22.5 -138.5z" />
    <glyph glyph-name="o" unicode="o" horiz-adv-x="1168" 
d="M92 529v23q0 157 60 281t170 196.5t261 72.5q153 0 263.5 -72.5t170.5 -196.5t60 -281v-23q0 -156 -60 -280.5t-170 -196.5t-262 -72t-262.5 72t-170.5 196.5t-60 280.5zM277 552v-23q0 -107 34 -197.5t102.5 -145t171.5 -54.5q102 0 170 54.5t102 145t34 197.5v23
q0 106 -34.5 196.5t-102.5 146t-171 55.5q-102 0 -170 -55.5t-102 -146t-34 -196.5z" />
    <glyph glyph-name="p" unicode="p" horiz-adv-x="1150" 
d="M326 874v-1290h-186v1498h170zM1055 550v-21q0 -158 -49 -282t-143 -195.5t-228 -71.5q-138 0 -232 60t-147 171t-69 263v112q16 160 69.5 275.5t146.5 178t229 62.5q137 0 231 -69t143 -193.5t49 -289.5zM869 529v21q0 108 -30.5 198t-95 144t-165.5 54
q-70 0 -121.5 -24t-87.5 -64.5t-58.5 -92t-33.5 -106.5v-259q20 -70 56 -131.5t96 -99t151 -37.5q100 0 164 54.5t94.5 145t30.5 197.5z" />
    <glyph glyph-name="q" unicode="q" horiz-adv-x="1164" 
d="M822 -416v1290l16 208h170v-1498h-186zM95 529v21q0 165 51.5 289.5t148 193.5t231.5 69q136 0 228.5 -62.5t145.5 -178t68 -275.5v-92q-14 -158 -66.5 -273.5t-146 -178t-231.5 -62.5q-133 0 -229.5 71.5t-148 195.5t-51.5 282zM281 550v-21q0 -107 30.5 -197.5
t94.5 -145t164 -54.5q92 0 153.5 40t98.5 105.5t57 140.5v241q-11 55 -34.5 107t-60.5 93.5t-89.5 66t-122.5 24.5q-101 0 -165.5 -55t-95 -146t-30.5 -199z" />
    <glyph glyph-name="r" unicode="r" horiz-adv-x="694" 
d="M326 912v-912h-185v1082h180zM664 1088l-1 -172q-23 5 -43.5 6.5t-46.5 1.5q-86 0 -144 -35t-90.5 -95.5t-40.5 -139.5l-52 -30q0 130 35 238.5t109.5 174t191.5 65.5q20 0 46 -4.5t36 -9.5z" />
    <glyph glyph-name="s" unicode="s" horiz-adv-x="1057" 
d="M771 287q0 40 -17.5 74.5t-71 63t-160.5 49.5q-120 25 -207.5 64t-135 99t-47.5 149q0 86 49.5 157.5t140 115t211.5 43.5q130 0 222 -46t141 -122.5t49 -169.5h-185q0 67 -58.5 126.5t-168.5 59.5q-77 0 -124.5 -23.5t-69 -59.5t-21.5 -76t20 -69t73.5 -52t155.5 -46
q133 -30 219 -72t128 -103t42 -148q0 -95 -52 -167.5t-146 -113t-220 -40.5q-143 0 -242 51t-150 132t-51 171h186q4 -76 44 -120.5t98 -63t115 -18.5q76 0 127.5 20t78.5 55t27 80z" />
    <glyph glyph-name="t" unicode="t" horiz-adv-x="670" 
d="M594 1082v-142h-585v142h585zM207 1345h185v-1077q0 -55 17 -83t44 -37t58 -9q23 0 48.5 4.5t38.5 7.5l1 -151q-22 -7 -57.5 -13.5t-85.5 -6.5q-68 0 -125 27t-90.5 90.5t-33.5 171.5v1076z" />
    <glyph glyph-name="u" unicode="u" horiz-adv-x="1129" 
d="M803 250v832h186v-1082h-177zM838 478l77 2q0 -144 -41 -257t-134 -178t-248 -65q-159 0 -257 94t-98 310v698h185v-700q0 -97 28.5 -150.5t74.5 -74t96 -20.5q118 0 187 45.5t99.5 123t30.5 172.5z" />
    <glyph glyph-name="v" unicode="v" horiz-adv-x="992" 
d="M470 167l296 915h189l-389 -1082h-124zM223 1082l305 -920l21 -162h-124l-392 1082h190z" />
    <glyph glyph-name="w" unicode="w" horiz-adv-x="1539" 
d="M415 192l278 890h122l-24 -177l-283 -905h-119zM228 1082l237 -900l17 -182h-125l-314 1082h185zM1081 189l226 893h184l-314 -1082h-124zM842 1082l272 -875l31 -207h-118l-291 907l-24 175h130z" />
    <glyph glyph-name="x" unicode="x" horiz-adv-x="1016" 
d="M266 1082l237 -394l240 394h217l-354 -534l365 -548h-214l-250 406l-250 -406h-215l364 548l-353 534h213z" />
    <glyph glyph-name="y" unicode="y" horiz-adv-x="969" 
d="M445 112l301 970h198l-434 -1249q-15 -40 -39.5 -86.5t-62.5 -88.5t-91.5 -68.5t-127.5 -26.5q-22 0 -56 6t-48 10l-1 150q8 -1 25.5 -2.5t24.5 -1.5q95 0 147.5 38.5t86.5 138.5zM224 1082l281 -840l48 -195l-133 -68l-398 1103h202z" />
    <glyph glyph-name="z" unicode="z" horiz-adv-x="1016" 
d="M947 152v-152h-787v152h787zM918 951l-716 -951h-113v136l711 946h118v-131zM836 1082v-153h-739v153h739z" />
    <glyph glyph-name="braceleft" unicode="{" horiz-adv-x="693" 
d="M632 1597l39 -114q-119 -37 -164 -132.5t-45 -218.5v-207q0 -100 -40.5 -181.5t-128 -129.5t-229.5 -48v122q113 0 162.5 64t49.5 173v207q0 105 32.5 196.5t110 161t213.5 107.5zM671 -251l-39 -115q-136 39 -213.5 108t-110 160.5t-32.5 196.5v206q0 109 -49.5 173.5
t-162.5 64.5v122q142 0 229.5 -48t128 -129.5t40.5 -182.5v-206q0 -123 45.5 -217.5t163.5 -132.5z" />
    <glyph glyph-name="bar" unicode="|" horiz-adv-x="500" 
d="M325 1456v-1726h-149v1726h149z" />
    <glyph glyph-name="braceright" unicode="}" horiz-adv-x="693" 
d="M20 1483l39 114q137 -38 214.5 -107.5t109.5 -161t32 -196.5v-207q0 -109 50 -173t162 -64v-113q-141 0 -229 45.5t-128.5 125t-40.5 179.5v207q0 123 -45 218.5t-164 132.5zM59 -366l-39 115q119 38 164 132.5t45 217.5v206q0 101 40.5 180t128.5 124.5t229 45.5v-112
q-112 0 -162 -64.5t-50 -173.5v-206q0 -105 -32 -196.5t-109.5 -160.5t-214.5 -108z" />
    <glyph glyph-name="asciitilde" unicode="~" horiz-adv-x="1393" 
d="M1111 777l152 1q0 -103 -41.5 -188t-114.5 -136t-168 -51q-87 0 -153.5 35t-144.5 103q-51 47 -94 73t-93 26q-76 0 -119 -54t-43 -148l-161 -2q0 105 41 188t114 131t168 48q88 0 156.5 -37t141.5 -102q55 -50 96.5 -74.5t90.5 -24.5q77 0 124.5 59t47.5 153z" />
    <glyph glyph-name="nbspace" unicode="&#xa0;" horiz-adv-x="550" 
 />
    <glyph glyph-name="exclamdown" unicode="&#xa1;" horiz-adv-x="500" 
d="M157 -361l14 1045h167l14 -1045h-195zM358 996q0 -44 -27.5 -75t-81.5 -31q-53 0 -81.5 31t-28.5 75t28.5 74.5t81.5 30.5q54 0 81.5 -30.5t27.5 -74.5z" />
    <glyph glyph-name="cent" unicode="&#xa2;" horiz-adv-x="1121" 
d="M670 1318v-288h-186v288h186zM670 42v-287h-186v287h186zM587 132q66 0 122 27t92 74.5t41 108.5h176q-5 -96 -65 -178.5t-155.5 -133t-210.5 -50.5q-163 0 -270 74.5t-159.5 197.5t-52.5 268v42q0 145 53 268t160 197.5t269 74.5q127 0 222 -51.5t149.5 -140
t59.5 -200.5h-176q-5 67 -37.5 121t-88 86.5t-129.5 32.5q-114 0 -178.5 -58t-91 -147t-26.5 -183v-42q0 -95 26 -184t90.5 -146.5t179.5 -57.5z" />
    <glyph glyph-name="sterling" unicode="&#xa3;" horiz-adv-x="1191" 
d="M1128 0h-1033v157h1033v-157zM763 623h-672v157h672v-157zM435 1039l22 -637q1 -94 -27 -175.5t-84 -122.5l-174 53q35 9 55.5 50.5t29 95.5t8.5 98l-22 638q0 138 58 235.5t158.5 149.5t227.5 52q196 0 304.5 -107.5t108.5 -281.5h-192q0 84 -33.5 135t-87.5 74t-116 23
q-99 0 -167.5 -72.5t-68.5 -207.5z" />
    <glyph glyph-name="currency" unicode="&#xa4;" horiz-adv-x="1461" 
d="M312 608q0 -94 33 -177t91 -145.5t134.5 -98t164.5 -35.5t164.5 35.5t134.5 98t90.5 145.5t32.5 177q0 95 -32.5 177t-90.5 144.5t-134.5 97.5t-164.5 35t-164.5 -35t-134.5 -97.5t-91 -144.5t-33 -177zM140 608q0 133 46.5 247t128 199t189.5 132.5t231 47.5t231 -47.5
t190 -132.5t128 -199t46 -247t-46 -247t-128 -199.5t-190 -133.5t-231 -48t-231 48t-189.5 133.5t-128 199.5t-46.5 247zM1371 1128l-202 -206l-132 137l202 206zM438 180l-202 -206l-131 136l202 205zM1239 -27l-202 206l132 136l202 -205zM307 922l-202 206l131 136
l202 -206z" />
    <glyph glyph-name="yen" unicode="&#xa5;" horiz-adv-x="1076" 
d="M955 737v-125h-835v125h835zM955 446v-124h-835v124h835zM480 666l367 790h213l-433 -852h-123zM232 1456l369 -797l-29 -55h-122l-435 852h217zM630 774v-774h-192v774h192z" />
    <glyph glyph-name="brokenbar" unicode="&#xa6;" horiz-adv-x="492" 
d="M333 -270h-185v792h185v-792zM333 1456v-758h-185v758h185z" />
    <glyph glyph-name="section" unicode="&#xa7;" horiz-adv-x="1256" 
d="M699 108v118q124 0 192.5 57t68.5 145q0 63 -32.5 106t-110 79.5t-214.5 77.5q-145 40 -248 89.5t-158 128t-55 202.5q0 111 60 193t170 127.5t259 45.5q229 0 360 -111t131 -320h-185q0 77 -35.5 140.5t-103.5 101t-167 37.5q-157 0 -230.5 -62.5t-73.5 -149.5
q0 -67 28.5 -109.5t104.5 -76t216 -72.5q149 -41 254 -92t160 -129t55 -203q0 -152 -121.5 -237.5t-324.5 -85.5zM525 874v-121q-125 0 -184 -57t-59 -143q0 -67 29 -110.5t106 -78t220 -74.5q148 -42 251 -91t157.5 -126t54.5 -202q0 -174 -133 -270t-354 -96
q-96 0 -189 22t-168.5 72t-120 133t-44.5 204l185 2q0 -79 30 -133.5t79.5 -86.5t109 -46.5t118.5 -14.5q144 0 223 61t79 151q0 62 -31.5 104t-108 77.5t-211.5 75.5q-146 40 -250.5 91t-160.5 130.5t-56 203.5q0 147 116 235t312 88z" />
    <glyph glyph-name="dieresis" unicode="&#xa8;" horiz-adv-x="857" 
d="M101 1371q0 45 28 76t81 31q54 0 82 -31t28 -76q0 -43 -28 -73.5t-82 -30.5q-53 0 -81 30.5t-28 73.5zM532 1369q0 45 27.5 76t81.5 31q53 0 81.5 -31t28.5 -76q0 -43 -28.5 -73.5t-81.5 -30.5q-54 0 -81.5 30.5t-27.5 73.5z" />
    <glyph glyph-name="copyright" unicode="&#xa9;" horiz-adv-x="1609" 
d="M974 598h146q0 -157 -89.5 -235.5t-242.5 -78.5q-159 0 -252.5 107.5t-93.5 279.5v115q0 172 93.5 279.5t252.5 107.5q153 0 243 -78t90 -235h-146q0 99 -47.5 142t-139.5 43q-66 0 -111 -33t-68 -91.5t-23 -133.5v-116q0 -114 51.5 -186.5t150.5 -72.5q92 0 139 43
t47 143zM207 729q0 -133 46 -248t128 -201t190 -134t231 -48t230.5 48t189 134t127.5 201t46 248q0 134 -46 248t-127.5 199.5t-189 133t-230.5 47.5t-231 -47.5t-190 -133t-128 -199.5t-46 -248zM92 729q0 159 55 295t153 237.5t226.5 158t275.5 56.5t275.5 -56.5t226 -158
t152.5 -237.5t55 -295t-55 -295t-152.5 -238.5t-226 -159.5t-275.5 -57t-275.5 57t-226.5 159.5t-153 238.5t-55 295z" />
    <glyph glyph-name="ordfeminine" unicode="&#xaa;" horiz-adv-x="916" 
d="M595 862v340q0 65 -31 99.5t-93 34.5q-69 0 -108.5 -26.5t-39.5 -78.5l-161 13q0 101 84.5 167t224.5 66q129 0 208 -69.5t79 -206.5v-314q0 -49 6 -93t20 -88h-165q-24 75 -24 156zM635 1149l1 -111h-149q-91 0 -134 -34.5t-43 -81.5q0 -43 30.5 -68t94.5 -25
q43 0 86.5 19.5t72.5 47.5t29 53l18 -112q-15 -32 -46.5 -66t-81 -56.5t-117.5 -22.5q-120 0 -184.5 61.5t-64.5 164.5q0 110 84.5 170.5t254.5 60.5h149z" />
    <glyph glyph-name="guillemotleft" unicode="&#xab;" horiz-adv-x="918" 
d="M446 61q-94 128 -142 218.5t-48 172.5t47.5 172t142.5 217l-95 92q-124 -146 -186.5 -260t-62.5 -221t62.5 -221t186.5 -261zM799 61q-94 128 -142 218.5t-48 172.5t47.5 172t142.5 217l-95 92q-124 -145 -186 -259.5t-62 -221.5t62 -221.5t186 -260.5z" />
    <glyph glyph-name="logicalnot" unicode="&#xac;" horiz-adv-x="1134" 
d="M958 801v-162h-831v162h831zM958 726v-350h-185v350h185z" />
    <glyph glyph-name="uni00AD" unicode="&#xad;" horiz-adv-x="566" 
d="M815 443v151h-675v-151h675z" />
    <glyph glyph-name="registered" unicode="&#xae;" horiz-adv-x="1610" 
d="M827 655h-218l-2 128h203q63 2 111.5 32.5t48.5 88.5q0 74 -40 104t-141 30h-136v-721h-141v848h277q148 0 234.5 -63.5t86.5 -191.5q0 -82 -55.5 -137t-159.5 -84q-3 0 -6.5 -6.5t-6.5 -6.5q-17 -10 -21.5 -14.5t-9 -5.5t-24.5 -1zM817 655l20 90q155 0 211.5 -65.5
t56.5 -165.5v-54q0 -37 4 -70.5t13 -56.5v-16h-145q-10 26 -11.5 74t-1.5 70v52q0 73 -33.5 107.5t-113.5 34.5zM206 729q0 -133 46 -248t128 -201t190 -134t231 -48t230.5 48t189 134t127.5 201t46 248q0 134 -46 248t-127.5 199.5t-189 133t-230.5 47.5t-231 -47.5
t-190 -133t-128 -199.5t-46 -248zM91 729q0 159 55 295t153 237.5t226.5 158t275.5 56.5t275.5 -56.5t226 -158t152.5 -237.5t55 -295t-55 -295t-152.5 -238.5t-226 -159.5t-275.5 -57t-275.5 57t-226.5 159.5t-153 238.5t-55 295z" />
    <glyph glyph-name="macron" unicode="&#xaf;" horiz-adv-x="939" 
d="M814 1445v-142h-671v142h671z" />
    <glyph glyph-name="degree" unicode="&#xb0;" horiz-adv-x="765" 
d="M131 1217q0 71 35 130t93 94.5t127 35.5t126 -35.5t91 -94.5t34 -130t-34 -129.5t-91 -93t-126 -34.5t-127 34.5t-93 93t-35 129.5zM255 1217q0 -55 38.5 -92t92.5 -37t90.5 37t36.5 92q0 56 -36.5 94t-90.5 38t-92.5 -38t-38.5 -94z" />
    <glyph glyph-name="plusminus" unicode="&#xb1;" horiz-adv-x="1095" 
d="M1013 855v-152h-916v152h916zM650 1267v-978h-167v978h167zM971 152v-151h-835v151h835z" />
    <glyph glyph-name="twosuperior" unicode="&#xb2;" horiz-adv-x="751" 
d="M683 795v-128h-598v108l288 271q68 62 94 106t26 77q0 48 -32 79t-91 31q-75 0 -110.5 -38t-35.5 -95h-158q0 72 36 131t103 94.5t161 35.5q134 0 210 -63.5t76 -172.5q0 -80 -52 -145t-140 -145l-175 -146h398z" />
    <glyph glyph-name="threesuperior" unicode="&#xb3;" horiz-adv-x="751" 
d="M266 1126h84q73 0 109.5 30.5t36.5 78.5q0 44 -32 74t-101 30q-57 0 -94.5 -25t-37.5 -68h-157q0 68 38 117.5t103 76.5t145 27q131 0 212 -57t81 -167q0 -53 -32.5 -97.5t-94 -71t-149.5 -26.5h-111v78zM266 1011v78h111q100 0 164 -24t95 -69t31 -109
q0 -110 -87.5 -170.5t-218.5 -60.5q-75 0 -143.5 24.5t-111.5 76.5t-43 133h157q0 -45 40 -75.5t106 -30.5q70 0 106.5 31t36.5 80q0 63 -42.5 89.5t-116.5 26.5h-84z" />
    <glyph glyph-name="acute" unicode="&#xb4;" horiz-adv-x="642" 
d="M123 1242l194 294h223l-268 -294h-149z" />
    <glyph glyph-name="mu" unicode="&#xb5;" horiz-adv-x="1161" 
d="M821 1082h185v-1082h-167l-18 250v832zM854 503l69 2q0 -151 -36.5 -270t-115 -187.5t-203.5 -68.5q-76 0 -135.5 19.5t-102 62t-70.5 110.5l-37 289h116q0 -137 30 -208t80 -96t111 -25q119 0 182.5 48t87.5 132t24 192zM155 1082h184v-1498h-184v1498z" />
    <glyph glyph-name="paragraph" unicode="&#xb6;" horiz-adv-x="1002" 
d="M833 0h-186v520h-87q-159 0 -269 60.5t-166.5 166.5t-56.5 241q0 134 56.5 240t166.5 167t269 61h273v-1456z" />
    <glyph glyph-name="periodcentered" unicode="&#xb7;" horiz-adv-x="535" 
d="M148 729q0 47 29 79.5t85 32.5t85.5 -32.5t29.5 -79.5q0 -46 -29.5 -77.5t-85.5 -31.5t-85 31.5t-29 77.5z" />
    <glyph glyph-name="cedilla" unicode="&#xb8;" horiz-adv-x="508" 
d="M152 0h133l-12 -53q58 -10 105.5 -48t47.5 -125q0 -94 -77 -151.5t-226 -57.5l-7 107q46 0 83.5 10t60 32t22.5 57q0 50 -38.5 68.5t-122.5 25.5z" />
    <glyph glyph-name="onesuperior" unicode="&#xb9;" horiz-adv-x="751" 
d="M495 1456v-789h-156v601l-216 -57v129l354 116h18z" />
    <glyph glyph-name="ordmasculine" unicode="&#xba;" horiz-adv-x="932" 
d="M123 1043v81q0 155 92.5 254t249.5 99q159 0 250.5 -99t91.5 -254v-81q0 -154 -91 -253t-249 -99q-159 0 -251.5 99t-92.5 253zM286 1124v-81q0 -91 44.5 -152t136.5 -61q89 0 133.5 61t44.5 152v81q0 89 -44.5 150.5t-135.5 61.5t-135 -61.5t-44 -150.5z" />
    <glyph glyph-name="guillemotright" unicode="&#xbb;" horiz-adv-x="918" 
d="M472 61l95 -91q125 147 187 261t62 221t-62 221t-187 260l-95 -92q95 -127 142 -217t47 -172t-47 -172.5t-142 -218.5zM119 61l95 -91q124 146 186 260.5t62 221.5t-61.5 221.5t-186.5 259.5l-95 -92q95 -127 142 -217t47 -172t-47 -172.5t-142 -218.5z" />
    <glyph glyph-name="onequarter" unicode="&#xbc;" horiz-adv-x="1500" 
d="M457 1453v-789h-156v601l-216 -57v129l354 116h18zM1155 1257l-711 -1138l-104 66l711 1138zM1426 300v-130h-639l-7 102l378 517h124l-137 -229l-207 -260h488zM1318 789v-789h-157v789h157z" />
    <glyph glyph-name="onehalf" unicode="&#xbd;" horiz-adv-x="1589" 
d="M1111 1257l-711 -1138l-104 66l711 1138zM452 1453v-789h-156v601l-216 -57v129l354 116h18zM1481 128v-128h-598v108l288 271q68 62 94 106t26 77q0 48 -32 79t-91 31q-75 0 -110.5 -38t-35.5 -95h-158q0 72 36 131t103 94.5t161 35.5q134 0 210 -63.5t76 -172.5
q0 -80 -52 -145t-140 -145l-175 -146h398z" />
    <glyph glyph-name="threequarters" unicode="&#xbe;" horiz-adv-x="1593" 
d="M1282 1257l-711 -1138l-104 66l711 1138zM1518 300v-130h-639l-7 102l378 517h124l-137 -229l-207 -260h488zM1410 789v-789h-157v789h157zM315 1126h84q73 0 109.5 30.5t36.5 78.5q0 44 -32 74t-101 30q-57 0 -94.5 -25t-37.5 -68h-157q0 68 38 117.5t103 76.5t145 27
q131 0 212 -57t81 -167q0 -53 -32.5 -97.5t-94 -71t-149.5 -26.5h-111v78zM315 1011v78h111q100 0 164 -24t95 -69t31 -109q0 -110 -87.5 -170.5t-218.5 -60.5q-75 0 -143.5 24.5t-111.5 76.5t-43 133h157q0 -45 40 -75.5t106 -30.5q70 0 106.5 31t36.5 80q0 63 -42.5 89.5
t-116.5 26.5h-84z" />
    <glyph glyph-name="questiondown" unicode="&#xbf;" horiz-adv-x="970" 
d="M403 680h186q-1 -96 -17.5 -155.5t-53 -109.5t-98.5 -117q-42 -45 -80 -87t-62 -92t-24 -119q0 -109 58 -166.5t166 -57.5q88 0 156.5 50t69.5 154h185q-1 -113 -55.5 -195.5t-147 -126.5t-208.5 -44q-195 0 -302.5 100t-107.5 280q0 91 36.5 168.5t92.5 144t116 124.5
q36 35 55.5 73.5t27 82.5t7.5 93zM597 997q0 -44 -28 -75t-81 -31q-54 0 -82 31t-28 75t28 74.5t82 30.5q53 0 81 -30.5t28 -74.5z" />
    <glyph glyph-name="Agrave" unicode="&#xc0;" horiz-adv-x="1336" 
d="M708 1327l-482 -1327h-197l555 1456h127zM1112 0l-483 1327l-3 129h127l557 -1456h-198zM1087 539v-158h-818v158h818zM584 1847l193 -294h-159l-258 294h224z" />
    <glyph glyph-name="Aacute" unicode="&#xc1;" horiz-adv-x="1336" 
d="M708 1327l-482 -1327h-197l555 1456h127zM1112 0l-483 1327l-3 129h127l557 -1456h-198zM1087 539v-158h-818v158h818zM570 1553l194 294h223l-268 -294h-149z" />
    <glyph glyph-name="Acircumflex" unicode="&#xc2;" horiz-adv-x="1336" 
d="M708 1327l-482 -1327h-197l555 1456h127zM1112 0l-483 1327l-3 129h127l557 -1456h-198zM1087 539v-158h-818v158h818zM728 1847l248 -273v-10h-154l-150 169l-149 -169h-152v11l245 272h112z" />
    <glyph glyph-name="Atilde" unicode="&#xc3;" horiz-adv-x="1336" 
d="M708 1327l-482 -1327h-197l555 1456h127zM1112 0l-483 1327l-3 129h127l557 -1456h-198zM1087 539v-158h-818v158h818zM902 1827l125 -11q0 -73 -29 -128t-77.5 -85t-109.5 -30q-51 0 -84 14.5t-59 33t-54.5 33t-70.5 14.5t-70.5 -32t-28.5 -79l-125 6q0 73 28.5 128.5
t77.5 87t109 31.5q43 0 75.5 -14.5t61.5 -33t60 -33t71 -14.5q42 0 71 32.5t29 79.5z" />
    <glyph glyph-name="Adieresis" unicode="&#xc4;" horiz-adv-x="1336" 
d="M708 1327l-482 -1327h-197l555 1456h127zM1112 0l-483 1327l-3 129h127l557 -1456h-198zM1087 539v-158h-818v158h818zM350 1682q0 45 28 76t81 31q54 0 82 -31t28 -76q0 -43 -28 -73.5t-82 -30.5q-53 0 -81 30.5t-28 73.5zM781 1680q0 45 27.5 76t81.5 31q53 0 81.5 -31
t28.5 -76q0 -43 -28.5 -73.5t-81.5 -30.5q-54 0 -81.5 30.5t-27.5 73.5z" />
    <glyph glyph-name="Aring" unicode="&#xc5;" horiz-adv-x="1336" 
d="M708 1327l-482 -1327h-197l555 1456h127zM1112 0l-483 1327l-3 129h127l557 -1456h-198zM1087 539v-158h-818v158h818zM457 1731q0 86 62 147t153 61t153 -61t62 -147q0 -88 -62 -146t-153 -58t-153 58t-62 146zM556 1731q0 -44 32.5 -79.5t83.5 -35.5t83.5 34.5
t32.5 80.5q0 47 -32.5 82.5t-83.5 35.5t-83.5 -35.5t-32.5 -82.5z" />
    <glyph glyph-name="AE" unicode="&#xc6;" horiz-adv-x="1914" 
d="M970 1307l-758 -1307h-227l881 1456h119zM1115 528v-175h-743v175h743zM1880 152v-152h-733v152h733zM1121 1456l61 -1456h-186l-61 1456h186zM1737 834v-152h-630v152h630zM1818 1456v-152h-732v152h732z" />
    <glyph glyph-name="Ccedilla" unicode="&#xc7;" horiz-adv-x="1333" 
d="M1048 463h192q-15 -138 -79 -247t-181 -172.5t-292 -63.5q-171 0 -298.5 83.5t-198.5 235.5t-71 356v145q0 204 71 356t202.5 236t311.5 84q165 0 279 -62t177.5 -171.5t78.5 -253.5h-192q-22 152 -98 240.5t-245 88.5q-129 0 -216.5 -64.5t-132 -180.5t-44.5 -271v-147
q0 -143 40 -260.5t123.5 -187.5t212.5 -70q123 0 196 39t110.5 112t53.5 175zM619 -10h133l-12 -53q58 -10 105.5 -48t47.5 -125q0 -94 -77 -151.5t-226 -57.5l-7 107q46 0 83.5 10t60 32t22.5 57q0 50 -38.5 68.5t-122.5 25.5z" />
    <glyph glyph-name="Egrave" unicode="&#xc8;" horiz-adv-x="1164" 
d="M1094 157v-157h-771v157h771zM362 1456v-1456h-193v1456h193zM992 830v-157h-669v157h669zM1084 1456v-158h-761v158h761zM531 1858l193 -294h-159l-258 294h224z" />
    <glyph glyph-name="Eacute" unicode="&#xc9;" horiz-adv-x="1164" 
d="M1094 157v-157h-771v157h771zM362 1456v-1456h-193v1456h193zM992 830v-157h-669v157h669zM1084 1456v-158h-761v158h761zM517 1564l194 294h223l-268 -294h-149z" />
    <glyph glyph-name="Ecircumflex" unicode="&#xca;" horiz-adv-x="1164" 
d="M1094 157v-157h-771v157h771zM362 1456v-1456h-193v1456h193zM992 830v-157h-669v157h669zM1084 1456v-158h-761v158h761zM675 1858l248 -273v-10h-154l-150 169l-149 -169h-152v11l245 272h112z" />
    <glyph glyph-name="Edieresis" unicode="&#xcb;" horiz-adv-x="1164" 
d="M1094 157v-157h-771v157h771zM362 1456v-1456h-193v1456h193zM992 830v-157h-669v157h669zM1084 1456v-158h-761v158h761zM297 1693q0 45 28 76t81 31q54 0 82 -31t28 -76q0 -43 -28 -73.5t-82 -30.5q-53 0 -81 30.5t-28 73.5zM728 1691q0 45 27.5 76t81.5 31
q53 0 81.5 -31t28.5 -76q0 -43 -28.5 -73.5t-81.5 -30.5q-54 0 -81.5 30.5t-27.5 73.5z" />
    <glyph glyph-name="Igrave" unicode="&#xcc;" horiz-adv-x="557" 
d="M376 1456v-1456h-193v1456h193zM191 1858l193 -294h-159l-258 294h224z" />
    <glyph glyph-name="Iacute" unicode="&#xcd;" horiz-adv-x="557" 
d="M376 1456v-1456h-193v1456h193zM177 1564l194 294h223l-268 -294h-149z" />
    <glyph glyph-name="Icircumflex" unicode="&#xce;" horiz-adv-x="557" 
d="M376 1456v-1456h-193v1456h193zM335 1858l248 -273v-10h-154l-150 169l-149 -169h-152v11l245 272h112z" />
    <glyph glyph-name="Idieresis" unicode="&#xcf;" horiz-adv-x="557" 
d="M376 1456v-1456h-193v1456h193zM-43 1693q0 45 28 76t81 31q54 0 82 -31t28 -76q0 -43 -28 -73.5t-82 -30.5q-53 0 -81 30.5t-28 73.5zM388 1691q0 45 27.5 76t81.5 31q53 0 81.5 -31t28.5 -76q0 -43 -28.5 -73.5t-81.5 -30.5q-54 0 -81.5 30.5t-27.5 73.5z" />
    <glyph glyph-name="Eth" unicode="&#xd0;" horiz-adv-x="1374" 
d="M593 0h-304l2 157h302q156 0 260 65.5t156.5 184t52.5 277.5v89q0 167 -53 284.5t-153.5 179t-244.5 61.5h-328v158h328q191 0 335.5 -83.5t225.5 -237t81 -364.5v-87q0 -211 -81 -364t-229 -236.5t-350 -83.5zM392 1456v-1456h-193v1456h193zM674 817v-152h-637v152h637
z" />
    <glyph glyph-name="Ntilde" unicode="&#xd1;" horiz-adv-x="1461" 
d="M1289 1456v-1456h-194l-733 1123v-1123h-193v1456h193l736 -1126v1126h191zM956 1827l125 -11q0 -73 -29 -128t-77.5 -85t-109.5 -30q-51 0 -84 14.5t-59 33t-54.5 33t-70.5 14.5t-70.5 -32t-28.5 -79l-125 6q0 73 28.5 128.5t77.5 87t109 31.5q43 0 75.5 -14.5t61.5 -33
t60 -33t71 -14.5q42 0 71 32.5t29 79.5z" />
    <glyph glyph-name="Ograve" unicode="&#xd2;" horiz-adv-x="1409" 
d="M1290 774v-92q0 -218 -72.5 -375.5t-203.5 -242t-308 -84.5q-172 0 -304.5 84.5t-207.5 242t-75 375.5v92q0 218 74.5 375.5t206.5 242t304 84.5q177 0 309 -84.5t204.5 -242t72.5 -375.5zM1099 682v94q0 173 -47 292.5t-135 181.5t-213 62q-119 0 -208 -62
t-137.5 -181.5t-48.5 -292.5v-94q0 -175 49 -295t138.5 -182t208.5 -62q126 0 213.5 62t133.5 182t46 295zM619 1849l193 -294h-159l-258 294h224z" />
    <glyph glyph-name="Oacute" unicode="&#xd3;" horiz-adv-x="1409" 
d="M1290 774v-92q0 -218 -72.5 -375.5t-203.5 -242t-308 -84.5q-172 0 -304.5 84.5t-207.5 242t-75 375.5v92q0 218 74.5 375.5t206.5 242t304 84.5q177 0 309 -84.5t204.5 -242t72.5 -375.5zM1099 682v94q0 173 -47 292.5t-135 181.5t-213 62q-119 0 -208 -62
t-137.5 -181.5t-48.5 -292.5v-94q0 -175 49 -295t138.5 -182t208.5 -62q126 0 213.5 62t133.5 182t46 295zM605 1555l194 294h223l-268 -294h-149z" />
    <glyph glyph-name="Ocircumflex" unicode="&#xd4;" horiz-adv-x="1409" 
d="M1290 774v-92q0 -218 -72.5 -375.5t-203.5 -242t-308 -84.5q-172 0 -304.5 84.5t-207.5 242t-75 375.5v92q0 218 74.5 375.5t206.5 242t304 84.5q177 0 309 -84.5t204.5 -242t72.5 -375.5zM1099 682v94q0 173 -47 292.5t-135 181.5t-213 62q-119 0 -208 -62
t-137.5 -181.5t-48.5 -292.5v-94q0 -175 49 -295t138.5 -182t208.5 -62q126 0 213.5 62t133.5 182t46 295zM763 1849l248 -273v-10h-154l-150 169l-149 -169h-152v11l245 272h112z" />
    <glyph glyph-name="Otilde" unicode="&#xd5;" horiz-adv-x="1409" 
d="M1290 774v-92q0 -218 -72.5 -375.5t-203.5 -242t-308 -84.5q-172 0 -304.5 84.5t-207.5 242t-75 375.5v92q0 218 74.5 375.5t206.5 242t304 84.5q177 0 309 -84.5t204.5 -242t72.5 -375.5zM1099 682v94q0 173 -47 292.5t-135 181.5t-213 62q-119 0 -208 -62
t-137.5 -181.5t-48.5 -292.5v-94q0 -175 49 -295t138.5 -182t208.5 -62q126 0 213.5 62t133.5 182t46 295zM937 1829l125 -11q0 -73 -29 -128t-77.5 -85t-109.5 -30q-51 0 -84 14.5t-59 33t-54.5 33t-70.5 14.5t-70.5 -32t-28.5 -79l-125 6q0 73 28.5 128.5t77.5 87
t109 31.5q43 0 75.5 -14.5t61.5 -33t60 -33t71 -14.5q42 0 71 32.5t29 79.5z" />
    <glyph glyph-name="Odieresis" unicode="&#xd6;" horiz-adv-x="1409" 
d="M1290 774v-92q0 -218 -72.5 -375.5t-203.5 -242t-308 -84.5q-172 0 -304.5 84.5t-207.5 242t-75 375.5v92q0 218 74.5 375.5t206.5 242t304 84.5q177 0 309 -84.5t204.5 -242t72.5 -375.5zM1099 682v94q0 173 -47 292.5t-135 181.5t-213 62q-119 0 -208 -62
t-137.5 -181.5t-48.5 -292.5v-94q0 -175 49 -295t138.5 -182t208.5 -62q126 0 213.5 62t133.5 182t46 295zM385 1684q0 45 28 76t81 31q54 0 82 -31t28 -76q0 -43 -28 -73.5t-82 -30.5q-53 0 -81 30.5t-28 73.5zM816 1682q0 45 27.5 76t81.5 31q53 0 81.5 -31t28.5 -76
q0 -43 -28.5 -73.5t-81.5 -30.5q-54 0 -81.5 30.5t-27.5 73.5z" />
    <glyph glyph-name="multiply" unicode="&#xd7;" horiz-adv-x="1028" 
d="M407 515l-267 -272l106 -110l268 273l268 -273l106 110l-267 272l265 271l-105 110l-267 -272l-267 272l-105 -110z" />
    <glyph glyph-name="Oslash" unicode="&#xd8;" horiz-adv-x="1409" 
d="M1309 1516l-1002 -1609h-143l1005 1609h140zM1290 774v-92q0 -218 -72.5 -375.5t-203.5 -242t-308 -84.5q-172 0 -304.5 84.5t-207.5 242t-75 375.5v92q0 218 74.5 375.5t206.5 242t304 84.5q177 0 309 -84.5t204.5 -242t72.5 -375.5zM1099 682v94q0 173 -47 292.5
t-135 181.5t-213 62q-119 0 -208 -62t-137.5 -181.5t-48.5 -292.5v-94q0 -175 49 -295t138.5 -182t208.5 -62q126 0 213.5 62t133.5 182t46 295z" />
    <glyph glyph-name="Ugrave" unicode="&#xd9;" horiz-adv-x="1328" 
d="M1002 1456h192v-985q0 -164 -73 -273t-193.5 -163.5t-261.5 -54.5q-148 0 -267.5 54.5t-189 163.5t-69.5 273v985h191v-985q0 -114 42 -188t117.5 -110t175.5 -36q101 0 176.5 36t117.5 110t42 188v985zM579 1847l193 -294h-159l-258 294h224z" />
    <glyph glyph-name="Uacute" unicode="&#xda;" horiz-adv-x="1328" 
d="M1002 1456h192v-985q0 -164 -73 -273t-193.5 -163.5t-261.5 -54.5q-148 0 -267.5 54.5t-189 163.5t-69.5 273v985h191v-985q0 -114 42 -188t117.5 -110t175.5 -36q101 0 176.5 36t117.5 110t42 188v985zM565 1553l194 294h223l-268 -294h-149z" />
    <glyph glyph-name="Ucircumflex" unicode="&#xdb;" horiz-adv-x="1328" 
d="M1002 1456h192v-985q0 -164 -73 -273t-193.5 -163.5t-261.5 -54.5q-148 0 -267.5 54.5t-189 163.5t-69.5 273v985h191v-985q0 -114 42 -188t117.5 -110t175.5 -36q101 0 176.5 36t117.5 110t42 188v985zM723 1847l248 -273v-10h-154l-150 169l-149 -169h-152v11l245 272
h112z" />
    <glyph glyph-name="Udieresis" unicode="&#xdc;" horiz-adv-x="1328" 
d="M1002 1456h192v-985q0 -164 -73 -273t-193.5 -163.5t-261.5 -54.5q-148 0 -267.5 54.5t-189 163.5t-69.5 273v985h191v-985q0 -114 42 -188t117.5 -110t175.5 -36q101 0 176.5 36t117.5 110t42 188v985zM345 1682q0 45 28 76t81 31q54 0 82 -31t28 -76q0 -43 -28 -73.5
t-82 -30.5q-53 0 -81 30.5t-28 73.5zM776 1680q0 45 27.5 76t81.5 31q53 0 81.5 -31t28.5 -76q0 -43 -28.5 -73.5t-81.5 -30.5q-54 0 -81.5 30.5t-27.5 73.5z" />
    <glyph glyph-name="Yacute" unicode="&#xdd;" horiz-adv-x="1230" 
d="M236 1456l378 -731l379 731h219l-502 -912v-544h-193v544l-502 912h221zM516 1552l194 294h223l-268 -294h-149z" />
    <glyph glyph-name="Thorn" unicode="&#xde;" horiz-adv-x="1210" 
d="M167 1456h185v-1456h-185v1456zM260 1163h370q158 0 266.5 -55t164.5 -151t56 -219q0 -122 -56 -218t-164.5 -151t-266.5 -55h-319v151h319q108 0 174.5 39.5t97 101.5t30.5 130q0 70 -30.5 133t-97 103t-174.5 40h-280z" />
    <glyph glyph-name="germandbls" unicode="&#xdf;" horiz-adv-x="1218" 
d="M324 1112v-1112h-184v1112q0 219 109 330.5t284 111.5q109 0 193.5 -36t133.5 -110.5t49 -190.5q0 -80 -19.5 -133.5t-44.5 -94t-44.5 -79.5t-19.5 -90q0 -55 35 -98.5t87 -83.5t104.5 -85t87.5 -102t35 -134q0 -114 -49.5 -189t-136.5 -111.5t-199 -36.5
q-54 0 -114 10.5t-109.5 27t-75.5 34.5l42 155q35 -22 101.5 -49t136.5 -27q78 0 126.5 24t70.5 64t22 89q0 57 -35 100.5t-87 84t-104.5 85.5t-87.5 104t-35 140q0 60 21 106t48 86.5t48 85t21 101.5q0 67 -25 111.5t-68 67.5t-98 23q-103 0 -161 -70.5t-58 -220.5z" />
    <glyph glyph-name="agrave" unicode="&#xe0;" horiz-adv-x="1114" 
d="M779 185v557q0 96 -57.5 153.5t-170.5 57.5q-70 0 -122.5 -24t-82 -63t-29.5 -84h-185q0 78 53 151.5t149.5 121t227.5 47.5q118 0 208.5 -40t142 -120.5t51.5 -201.5v-504q0 -54 9.5 -115t28.5 -105v-16h-193q-14 32 -22 85.5t-8 99.5zM811 656l2 -130h-187
q-159 0 -245 -49.5t-86 -150.5q0 -77 52 -130.5t155 -53.5q85 0 150 36t103.5 88t41.5 101l79 -89q-7 -42 -38 -93t-82.5 -97.5t-122 -77t-158.5 -30.5q-110 0 -192.5 43t-128 115.5t-45.5 162.5q0 174 132 264.5t355 90.5h215zM494 1536l193 -294h-159l-258 294h224z" />
    <glyph glyph-name="aacute" unicode="&#xe1;" horiz-adv-x="1114" 
d="M779 185v557q0 96 -57.5 153.5t-170.5 57.5q-70 0 -122.5 -24t-82 -63t-29.5 -84h-185q0 78 53 151.5t149.5 121t227.5 47.5q118 0 208.5 -40t142 -120.5t51.5 -201.5v-504q0 -54 9.5 -115t28.5 -105v-16h-193q-14 32 -22 85.5t-8 99.5zM811 656l2 -130h-187
q-159 0 -245 -49.5t-86 -150.5q0 -77 52 -130.5t155 -53.5q85 0 150 36t103.5 88t41.5 101l79 -89q-7 -42 -38 -93t-82.5 -97.5t-122 -77t-158.5 -30.5q-110 0 -192.5 43t-128 115.5t-45.5 162.5q0 174 132 264.5t355 90.5h215zM480 1242l194 294h223l-268 -294h-149z" />
    <glyph glyph-name="acircumflex" unicode="&#xe2;" horiz-adv-x="1114" 
d="M779 185v557q0 96 -57.5 153.5t-170.5 57.5q-70 0 -122.5 -24t-82 -63t-29.5 -84h-185q0 78 53 151.5t149.5 121t227.5 47.5q118 0 208.5 -40t142 -120.5t51.5 -201.5v-504q0 -54 9.5 -115t28.5 -105v-16h-193q-14 32 -22 85.5t-8 99.5zM811 656l2 -130h-187
q-159 0 -245 -49.5t-86 -150.5q0 -77 52 -130.5t155 -53.5q85 0 150 36t103.5 88t41.5 101l79 -89q-7 -42 -38 -93t-82.5 -97.5t-122 -77t-158.5 -30.5q-110 0 -192.5 43t-128 115.5t-45.5 162.5q0 174 132 264.5t355 90.5h215zM638 1536l248 -273v-10h-154l-150 169
l-149 -169h-152v11l245 272h112z" />
    <glyph glyph-name="atilde" unicode="&#xe3;" horiz-adv-x="1114" 
d="M779 185v557q0 96 -57.5 153.5t-170.5 57.5q-70 0 -122.5 -24t-82 -63t-29.5 -84h-185q0 78 53 151.5t149.5 121t227.5 47.5q118 0 208.5 -40t142 -120.5t51.5 -201.5v-504q0 -54 9.5 -115t28.5 -105v-16h-193q-14 32 -22 85.5t-8 99.5zM811 656l2 -130h-187
q-159 0 -245 -49.5t-86 -150.5q0 -77 52 -130.5t155 -53.5q85 0 150 36t103.5 88t41.5 101l79 -89q-7 -42 -38 -93t-82.5 -97.5t-122 -77t-158.5 -30.5q-110 0 -192.5 43t-128 115.5t-45.5 162.5q0 174 132 264.5t355 90.5h215zM812 1516l125 -11q0 -73 -29 -128t-77.5 -85
t-109.5 -30q-51 0 -84 14.5t-59 33t-54.5 33t-70.5 14.5t-70.5 -32t-28.5 -79l-125 6q0 73 28.5 128.5t77.5 87t109 31.5q43 0 75.5 -14.5t61.5 -33t60 -33t71 -14.5q42 0 71 32.5t29 79.5z" />
    <glyph glyph-name="adieresis" unicode="&#xe4;" horiz-adv-x="1114" 
d="M779 185v557q0 96 -57.5 153.5t-170.5 57.5q-70 0 -122.5 -24t-82 -63t-29.5 -84h-185q0 78 53 151.5t149.5 121t227.5 47.5q118 0 208.5 -40t142 -120.5t51.5 -201.5v-504q0 -54 9.5 -115t28.5 -105v-16h-193q-14 32 -22 85.5t-8 99.5zM811 656l2 -130h-187
q-159 0 -245 -49.5t-86 -150.5q0 -77 52 -130.5t155 -53.5q85 0 150 36t103.5 88t41.5 101l79 -89q-7 -42 -38 -93t-82.5 -97.5t-122 -77t-158.5 -30.5q-110 0 -192.5 43t-128 115.5t-45.5 162.5q0 174 132 264.5t355 90.5h215zM260 1371q0 45 28 76t81 31q54 0 82 -31
t28 -76q0 -43 -28 -73.5t-82 -30.5q-53 0 -81 30.5t-28 73.5zM691 1369q0 45 27.5 76t81.5 31q53 0 81.5 -31t28.5 -76q0 -43 -28.5 -73.5t-81.5 -30.5q-54 0 -81.5 30.5t-27.5 73.5z" />
    <glyph glyph-name="aring" unicode="&#xe5;" horiz-adv-x="1114" 
d="M779 185v557q0 96 -57.5 153.5t-170.5 57.5q-70 0 -122.5 -24t-82 -63t-29.5 -84h-185q0 78 53 151.5t149.5 121t227.5 47.5q118 0 208.5 -40t142 -120.5t51.5 -201.5v-504q0 -54 9.5 -115t28.5 -105v-16h-193q-14 32 -22 85.5t-8 99.5zM811 656l2 -130h-187
q-159 0 -245 -49.5t-86 -150.5q0 -77 52 -130.5t155 -53.5q85 0 150 36t103.5 88t41.5 101l79 -89q-7 -42 -38 -93t-82.5 -97.5t-122 -77t-158.5 -30.5q-110 0 -192.5 43t-128 115.5t-45.5 162.5q0 174 132 264.5t355 90.5h215zM367 1420q0 86 62 147t153 61t153 -61
t62 -147q0 -88 -62 -146t-153 -58t-153 58t-62 146zM466 1420q0 -44 32.5 -79.5t83.5 -35.5t83.5 34.5t32.5 80.5q0 47 -32.5 82.5t-83.5 35.5t-83.5 -35.5t-32.5 -82.5z" />
    <glyph glyph-name="ae" unicode="&#xe6;" horiz-adv-x="1730" 
d="M749 183v537q0 107 -55 168.5t-159 61.5q-112 0 -178 -56.5t-66 -133.5l-184 18q0 94 54 167t150.5 115t223.5 42q176 0 285 -96.5t109 -287.5v-500zM790 636v-140h-261q-87 0 -146 -27.5t-89 -72t-30 -96.5q0 -71 50.5 -120.5t155.5 -49.5q54 0 110.5 20.5t104 53
t77 68.5t30.5 67l96 -144q-27 -49 -85.5 -99t-150 -83.5t-218.5 -33.5q-172 0 -263.5 88.5t-91.5 236.5q0 158 114 245t334 87h263zM1263 -21q-163 0 -276 69.5t-171 192t-58 279.5v44q0 158 60.5 280t164.5 190.5t236 67.5q215 0 328.5 -131t113.5 -355v-118h-804v142h618
v31q0 76 -25 139t-81 101.5t-150 38.5q-91 0 -155 -52t-97.5 -139.5t-33.5 -194.5v-44q0 -107 34.5 -195.5t107.5 -141t188 -52.5q119 0 192 36.5t123 70.5l65 -136q-22 -17 -70.5 -46.5t-125.5 -53t-184 -23.5z" />
    </font>
</defs>
</svg>
